<mxfile host="app.diagrams.net" modified="2021-04-25T05:46:36.814Z" agent="5.0 (Windows NT 10.0; Win64; x64) AppleWebKit/537.36 (KHTML, like Gecko) Chrome/90.0.4430.85 Safari/537.36" etag="29CN4GBHJERYDTjPyF-G" version="14.6.6" type="github">
  <diagram id="287CBgsqJr-suc5dQBP1" name="Page-1">
    <mxGraphModel dx="868" dy="1525" grid="1" gridSize="9" guides="1" tooltips="1" connect="1" arrows="1" fold="1" page="1" pageScale="1" pageWidth="850" pageHeight="1100" math="0" shadow="0">
      <root>
        <mxCell id="0" />
        <mxCell id="1" parent="0" />
        <mxCell id="LU8-xw11yKQ6b2Q469gx-173" value="" style="group" vertex="1" connectable="0" parent="1">
          <mxGeometry x="342" y="-1095" width="504" height="659" as="geometry" />
        </mxCell>
        <mxCell id="LU8-xw11yKQ6b2Q469gx-171" value="" style="endArrow=classic;html=1;fillColor=#f8cecc;strokeColor=#b85450;" edge="1" parent="LU8-xw11yKQ6b2Q469gx-173">
          <mxGeometry x="6.090000000000003" y="9.25" width="50" height="50" as="geometry">
            <mxPoint x="466.0899999999999" y="255.25" as="sourcePoint" />
            <mxPoint x="465.9999999999998" y="152.75" as="targetPoint" />
          </mxGeometry>
        </mxCell>
        <mxCell id="LU8-xw11yKQ6b2Q469gx-170" value="" style="endArrow=classic;html=1;fillColor=#f8cecc;strokeColor=#b85450;" edge="1" parent="LU8-xw11yKQ6b2Q469gx-173">
          <mxGeometry x="14.289999999999992" y="7.25" width="50" height="50" as="geometry">
            <mxPoint x="474.28999999999996" y="253.25" as="sourcePoint" />
            <mxPoint x="474.1999999999998" y="150.75" as="targetPoint" />
          </mxGeometry>
        </mxCell>
        <mxCell id="LU8-xw11yKQ6b2Q469gx-169" value="" style="endArrow=classic;html=1;fillColor=#f8cecc;strokeColor=#b85450;" edge="1" parent="LU8-xw11yKQ6b2Q469gx-173">
          <mxGeometry x="22.289999999999992" y="6.5" width="50" height="50" as="geometry">
            <mxPoint x="482.28999999999996" y="252.5" as="sourcePoint" />
            <mxPoint x="482.1999999999998" y="150" as="targetPoint" />
          </mxGeometry>
        </mxCell>
        <mxCell id="LU8-xw11yKQ6b2Q469gx-166" value="" style="endArrow=classic;html=1;fillColor=#f8cecc;strokeColor=#b85450;" edge="1" parent="LU8-xw11yKQ6b2Q469gx-173">
          <mxGeometry x="29" y="-1" width="50" height="50" as="geometry">
            <mxPoint x="489" y="245" as="sourcePoint" />
            <mxPoint x="488.90999999999997" y="142.5" as="targetPoint" />
          </mxGeometry>
        </mxCell>
        <mxCell id="LU8-xw11yKQ6b2Q469gx-83" value="" style="endArrow=classic;html=1;" edge="1" parent="LU8-xw11yKQ6b2Q469gx-173">
          <mxGeometry width="50" height="50" relative="1" as="geometry">
            <mxPoint x="33" y="468" as="sourcePoint" />
            <mxPoint x="32.91000000000008" y="380" as="targetPoint" />
          </mxGeometry>
        </mxCell>
        <mxCell id="LU8-xw11yKQ6b2Q469gx-20" value="" style="shape=image;html=1;verticalAlign=top;verticalLabelPosition=bottom;labelBackgroundColor=#ffffff;imageAspect=0;aspect=fixed;image=https://cdn4.iconfinder.com/data/icons/success-filloutline/64/law-scale-justice-judge-balance-128.png" vertex="1" parent="LU8-xw11yKQ6b2Q469gx-173">
          <mxGeometry x="33" y="576" width="60" height="60" as="geometry" />
        </mxCell>
        <mxCell id="LU8-xw11yKQ6b2Q469gx-21" value="" style="shape=image;html=1;verticalAlign=top;verticalLabelPosition=bottom;labelBackgroundColor=#ffffff;imageAspect=0;aspect=fixed;image=https://cdn3.iconfinder.com/data/icons/analytic-investment-and-balanced-scorecard/512/628_Balance_decision_justice_law_scale-128.png" vertex="1" parent="LU8-xw11yKQ6b2Q469gx-173">
          <mxGeometry x="30.00999999999999" y="471" width="68" height="68" as="geometry" />
        </mxCell>
        <mxCell id="LU8-xw11yKQ6b2Q469gx-2" value="" style="endArrow=classic;html=1;strokeWidth=1;" edge="1" parent="LU8-xw11yKQ6b2Q469gx-173">
          <mxGeometry x="77.87" y="476" width="50" height="50" as="geometry">
            <mxPoint x="315.36999999999995" y="558" as="sourcePoint" />
            <mxPoint x="315.86999999999995" y="525.13" as="targetPoint" />
          </mxGeometry>
        </mxCell>
        <mxCell id="LU8-xw11yKQ6b2Q469gx-4" value="" style="endArrow=classic;html=1;strokeWidth=1;entryX=1;entryY=0.5;entryDx=0;entryDy=0;" edge="1" parent="LU8-xw11yKQ6b2Q469gx-173">
          <mxGeometry x="292.36999999999995" y="559" width="50" height="50" as="geometry">
            <mxPoint x="291.36999999999995" y="599" as="sourcePoint" />
            <mxPoint x="237" y="598" as="targetPoint" />
          </mxGeometry>
        </mxCell>
        <mxCell id="LU8-xw11yKQ6b2Q469gx-5" value="" style="endArrow=classic;html=1;strokeWidth=1;" edge="1" parent="LU8-xw11yKQ6b2Q469gx-173">
          <mxGeometry x="26.870000000000005" y="489" width="50" height="50" as="geometry">
            <mxPoint x="340.8699999999999" y="601" as="sourcePoint" />
            <mxPoint x="386.8699999999999" y="601" as="targetPoint" />
          </mxGeometry>
        </mxCell>
        <mxCell id="LU8-xw11yKQ6b2Q469gx-6" value="" style="shape=image;imageAspect=0;aspect=fixed;verticalLabelPosition=bottom;verticalAlign=top;shadow=1;glass=0;strokeWidth=1;fillColor=#E6E6E6;fontSize=14;image=data:image/png,iVBORw0KGgoAAAANSUhEUgAAAgAAAAIACAYAAAD0eNT6AAAABHNCSVQICAgIfAhkiAAAAAlwSFlzAAAOxAAADsQBlSsOGwAAABl0RVh0U29mdHdhcmUAd3d3Lmlua3NjYXBlLm9yZ5vuPBoAACAASURBVHic7N15nGRldfj/z7m3lt7XWRmGYdj3VaMgUSPivhNQo1ETUOMaNYmar5rMLzEaDcoWjQyLA6gIIyqLC4iCLCIwDMvAwACzMft090zvXVV3eX5/3G5m767urrpL3fN+vYrp7qmuOkNX13PueZ7nPKCUUkoppZRSSqnaJ1EHoNR4Fhljnb2CVtcm72WLDfjSZCM5LGkzRnLG0GgZv9FADgCRNgExBtsILQAW5I1Iw56P7DeLkcxUYvKRPhH8l75gcA1mYPTjgiWMBLGYQePjABixdlqCg5hBz2PIwpRMxu/1S3mnzmNgoJ7htxwpxanEo9RUmPM+cgq+fSi2ewieHIzvzwWZDTRj/HqQ4HfK9xsB66VvtK0RDC5CCSiCDCMMYUw3Ym/AYg2SfZ6WxpVy9cU7IvnHqbJoAqCq6v5nTbNjCp2+sTsM0mnb0mnwOwzSgqFNkBbwWwRpMdACNIO0gWkl+Dwb8T8hbDvBDID0A/3AgEC/EdkpxvQbYcAY049YPSLs8D2zwxJvh0i+549HsWORiD/RE6h0MOedl8Ovez2SeT2efwy+vwDfzML3W/DcHCaEIDK2jyUFxOrHls3Y9nPY1kP4/EaWXrMqhAjUODQBUJNy2yozwxlyj/eMOcYy9kLJmJnNWbPdtqXVYOYKzDTQIUIHhg7SN4BHrReRbozZAXQjpssY2SpitomxujzfbMuKv9X3c11dx9F1vogXdcBq+swFF3TQ530Azz8b4x+Ha+bhOg2hDPJTlbF9MlYvlrUOyTyBmF9w4qG/kkWLNIkNiSYACoDfrTatQ/3u8Y5ljsOTY/BZ4MF8g8w0Pm0G0+gZyTm+EQxkLGjOQ0sdWPoqSiofocv4bMZikxjZhJjNxpgNFrIF399YNLnNbzpetIwbM+bdF5yA+O/F+K/HdY/DcVswcR7ty2RZhqzdQybzOJnMXTQ2XCM/vLwr6rBqlb51p8Rtq8yM4nDxLzD2SSJylOeZI31knufT6RoaXc/Y5TxOzobWOmjM64snRUYMrBNYD7LeiFmHL+vBrPcks+6co9kiIjUw+sSXOe+8ety6D+PL3+K6p+K69VHHFIp81tDS9DT1dT/CmLu46rLlQqzrGomi7+E1whgjNz/G6eI7Z3hYJ/tijjLGzPc8meFBg+tjTefXpi4DrfXQoAV9ta8isB5YIyIvYPwXjFjP+777wg4/v+7846UUdYBJZM79myMx+a/iOedQdOZgTO2/XwtQVwf1+eBm73Nd8iIiv8X3b6Gv4y5ZukhfW9NQ+y+oGvPzZ0ynFEp/6ZN5jet6pxqxDnF9Zjm+afD9yv88cza01UNjrtKPrFLCA3lRxLxgjDxvjP+MZcuzvsk8c/bRsinq4OLGvOeCBeD/P9zSOym6s1NzsZvPQWM9NNSBZU18/0AvyG34shR76LeyeLFTzRBrkSYAMXXzMjPXsp03ulhn+p452TMs8H1pL/kmF8ZUnw78KgR9wCojstIy5lmDPONb7lNnH5lfm6YpBfP2jzWQKy3CcT6UrkE/C40N0FBfiYVE3RiWYlvXyBUXL6tEeGmgCUDEli0z2dWZwlm4uTd6xn+VMRzt+rS7PlPaoz5dWSsY+JvyUTy7UgAMAM+BWSnwKJY8bUvmiVcfKTW1GMz89QVn4zlfo1g6C88vaw1O4lkSDPhNDZCr2nziSuA6fOtK7UMwPk0AQnTLs6bZHfHe7hvONr45zfE5zPFMixeDqT0hGPhb60CiD0ep/TDrQJ4AHkXkUb9kP/r6E2Vb1FFNhlm0KMOKdd+g5FxIyWmPOp7Q5LLQ1AiNob7BDCPciJHL5MpLHg/rSZNE3+qr5JZnTbMz7JznGc7xjJzqehzi+tTHbqeOQEsO2usnM/WmVGxsBB41sAyRR7OWvSyOlQLz7g91YriYkvM+PC89S2kb6oKBvy7yucQH8K1vcfXFt+sugl00AaiQnz9hTnAc970GXu/4HFdygza0cVaXhc6GYL5fqRqyReB+MA8g8miXm3k4qp0I5t0XnIBxrqBYPAM/BqW+MAhBmb+lCbKRzGQemPAUvvkufR0/1h0EmgBMyd13m0xfe+ntjifne4aXO54cUvKS0/HOFmhvCBr5KJUCQ8AjCA8i8kBB7PvecqT0V/MJzXs/dBQFfkixeEYqtu9BMJo0NkJLI2Rif1XxIsb8Fwd3XCOLFrlRBxOVdLwwp+mmP5l6yTkf8JB3uj6nux5zPJPM/3dNeeioB1vL/Sq9PAyrsOR+Y7jLGPsPrz9WeirxwOaDH5vLUPFqCoU3peaKH4JSf1tLEgb+va3DmG/St+VqWbo0dW2x0/MCnYRFxlgnrfDO9RzzoaLHK12fTq8Ke+zDlLWgsxHqE1OnUCo0PvAUcI8Y+R2+fc9fHS+Dk3kA866PtCHmRgrFc/D9RL9XTEp9HbQ1x6/UP3krgS/JlZfeHnUgYUrPC3UCtz5ujh/x3As8w9tKrjnc86VmrpGb8sFcv/bsV6osHvC4gbssi7ua+zN/fNnL5IBNZsy7P/LfFAv/hOcnfhQsWy4L7S1BA59aYvg9lvV5WXzxiqhDCUNqh4RfPGbaXNxPeJ711yXfP95xqbkZcVtgZiPU19jvqFIh22ng92B+7Wayv3rjEbIdwJz7d++n5HyfUqkt6gBDY1nQ2gTNjVFHUk0uItfgeF+t9YOIUpUA/GKZObwk7qc837yz6MpCP6Hz+OVozEJnU5AEKKUqxq/r3fHUad//+tz8tm0zow4mVE2NQbk/PaXEHRjzz1x12ZJa3TpY8z/JXz7mnFny+RfH46+KLq01+VPcjQh0NEBLzdUzlIreoX+4jUN/fTPipKjtfCYDHa1x2MsfDcO9+HxMrrl0VdShVFpNJgA3Lx95tetnPud4cnbRM7Hfj18pGQtmNUE+PTORSoWifkcXJy25lIb1a6MOJTwiQam/tUnbg8IIIt+G4f+qpUOHauan+ovHC28oOvZXij6vcL3am8+fSH02GPzTU51TKhyH//omDrnrdvBStEssm4HOtmr2608mwzJ8Plgr1YBEDxc3PGYOtX3nP4quvLPkxb/zXrW01QetfJVSlZMpDHHqFf9D05rnow4lXE0NwQp/veo/kBEw/ypXXnZp1IFMV+J+wndsNY3DW90vFVz5yEjJzK/1Of2JzGzUk/uUqrS5y//E0T+9EimmqFusbQVX/XX6hlKmXyKZj8ri73RHHchUJSYBuPmxwlsd1/7XgmfOqKU9+lNlSVDy18Y+SlWQ73PytZfS8cSyGl33fQB1eehsBTtxnfyithkjH5CrLrkn6kCmItYJwC8eM21F3/kv15MPFF1ao44nLjIWzG7WQ3yUqqTcQB8vu+z/I789UScMT19LU7C9T02VB3yFKy/9dtK2C8YyAbh5+cirS17mOwWX02t5r/5UZG2Y0xwkAUqpyuhc9SQnXH0JVrEYdSjhsSyYoSX/ypFbkPyHZfG3+qKOpFyxGlyXLitdWPTk34seB0cdSxzlbJjbHPzeKqUq44hf3cj8u24H3486lPBkMzCzPdjjryrpabDfI1d+97moAylH5AnAImMyxz3ufqNY4hMlj6ao44mrrA1zW7Szn1KVdMKPv8fMh/8UdRjhqssHV/56JVEtOxFzriy+7O6oA5lIZMPJZc+b/Ow+55KiZ/2945mUtpgqT2607K9H+CpVGXapyMsv+TfqN22MOpRwNTcGW/xUtZUwfFSuuvS6qAMZT+gJwG3LTMOwOJcXHOtvXd/oGvYJZGyYp2V/pSqmrrebl3/338j0JWaqtjLamoMFfyo8hsu46tLPxXVxYGgJwCJjMscs975XcszfOz468VQGS+CgVsjq4K9URbRuWM0p//sNrEIh6lBCJMEWv0btFhaR65jXfoEsWuRGHcjeQkkAlj7mfHGkJP/ueKYhjOerBSJB2b9OUyWlKqJt7SpO+d5/I06KmvtYAjPadaV/9G7H6TtPliyJVeZZ1QTg5keL7x7xrCuLLp3VfJ5aNKs5ONJXKTV9nc+t4MQrLkLc2F2EVY9lwcwOyOsbSUzcTdZ5h3z/+4NRBzKmKgnATcvNTM9zlw47vKYaj1/rtLe/UpUz68lHOH7J5ek6zEcH/7i6nzr/rXL55f1RBwJQ8dnlG5c5/zNcdLfo4D81dVlor4s6CqVqw9zHHkzn4D+7Uwf/eDqLgvzOfOxLsehsW7EKwE+Xm5M9172j4DK7Uo+ZNrbAvFbd7qdUJcxc+RgnXHVx+gb/WR16jG/cGR4k57wh6umAiiQANz7iXjbs+p/2jZ4fOR1zm4MKgFJqetpXr+Tk730L8VI05y8SDP75MtqqHGzgZAfT6IFUYYeaJ8iODDyUgSEdFvbL8HvcvrdFuTBwWj+Zm58wB48UnT8WXTmsUgGlVUseOhujjkKp5GvdsJpTL/16ulb7IzCrjNX+lmDeVoD2PkLZmm7ZyBMdsFzLmgdwB3X+O+XyyyM5hGLKP5WfLS++f7DgrdHBf/oyFrTrBkmlpq1p6wZOvSxtgz/lH+rz5iK09xJaXxrfw5zUDUem6JyFyXkjBWuJWbQokgxpSk9646Pu1f1F6yeup538KqGzIdiuq5SauuzIAKdd/nWklLLBv70FGspYOdwBZmYE3Q+NwZwxFP7zJsf72NT7zSieeFIJwN13m7obljmPDxbN35tYNjZMnsYsNOhJCEpNi+W6/MVFX8MejM0W63C0NgX9/ctxggMmoitxGQY9gmAc5ovmws99KuxnLTsBuPYh07mp0V07XOLkagaUJgK067y/UtN2+vf+k1x3V9RhhKuhDlqby79/c8RXbTP1qnFcYi41H/3Hd4T5lGUlADesMPMt3DVFlznVDihNmvLa51+p6Trx+v+lac0LUYcRrlwWOtsn9z1Rv9fYET9//NnAj8xHP3dKWE844UviZ4+ZI91h99mSpwWcShKgVbv9KTUt8++/kxmP/jnqMMJlWzCzPcLD3KdICwDlaAZ+aT72TzPCeLJxE4CbnjZzhh3vsZKHrlGvML36V2p6Wjas5Yif/wjStCBJCA73sRNyOW3Z0NSOzF4IA7pmvDxmAca5wZx3XtV/yAccgu54wjSWBt2nHNfoLHUV6NW/UlOXKYxwyv99M11d/gDaW8tr9BMlsaC+Cemch8w7EmmfAzntbz458nraDlpU7WfZbwJgjLF6HOfpoqen+FVDXVav/pWajtP/9z+xh1K2tayhDppiXIwVG5o6kLmHIzPmQ0MLyZuniJWvmI/+47nVfIL9DkNLl7tLR0qyoJpPnGYtejS3UlN29C+up2HD+qjDCFcmAx1tUUexf3YWaZuNHHQE0j4b7EzUEdUKAa4yF3yqamPxPgnAz5a77x8o8p5qPWHa2QINOhWm1JS0rnueg+69M+owwiUSdPqLW7ewTA7pPAg56HBo7ggOIlKV1oaV+VG11gPs8RO7/UnTPuywpBpPpAINueD3WSk1OZbncPKV3wE/ZW1l25rjdbqfZSGts5A5C6GhFS3zV91ZtB30r9V44D0SgMGi+3PHMzFfYZJsevWv1NScfM3F2IMDUYcxfe12+VfzdfnyO/1VnQQr+uceAS2dwWK/uLMFcjWRoPy7ufAzr6z0g740WXPTcueMwQKvrfQTqD3pcb9KTd5By+6j7eknow5j6g7JYs7NQ3MhaMcrFhTzyK89WHGAg+Asgc7WcOM8kHwj0jEbMglZwHRcHs6ogzlWUHLt9eDxEjxYAC+R20YziHW9+eQnT5Xvf79i/a5fSuFcl2sT+b8lQeqy8ZvGUyruMsURjly6JLn7/U+rw3wEaBre1YvfGMgVMO924U0HWNnf3hL9fn/LQtrnILPmJ2PwF4E3NMB7GmGuvWu+tc2G19bDB5shn9g34SNwcl+v5ANaADc9Zk4ZcTmykg+s9lWvi2OVmrQTl1yGVShEHcbUnJLHvM0Dc4B+BcZgXl7cNwmoz0NjxFv+8g3IrIXQ1E4i5vlF4I318Bfj9ByYn4G/bYH6BPx79st8xnz0s2dW6tEsAM91L67UA6oDyyWkeZdScTFz5WO0rVwRdRhTc0oe845xBv+X7JUEiARX/1ERC2mfjcw6BLIJWRI2Nvi/rIyGQ3Ns+EBikwAL5AfmvEUV+cFYxhgpefKqSjyYGp8mAEqVT3yfY39yBYlsIn9KHvMOfxLH7+6WBLQ2B/v+o2BnkVkLoKmDRFz1w+QG/zHJTgJOpG3nFyvxQNZNj5Xe4/pGl6ZVmQAZTQCUKtvxP70CeyCBq/5fGvwn26Z4NAl4Q0Rtc+uagq19SWrbO5XBf0yyk4Cvmo9/dtrT9ha+9b5KRKPGl9P5f6XK1rBjOzMf+VPUYUzeaeWW/Q/EYI7ugTPCPONAoGUmMnN+cHhPUkxn8B8zx4b3JXJhYB6P70z3QSzPNy+rRDRqfLr6X6nynXDt5clr+HPa2IK/6cZtMEdVPgkwje6+XxQLmXEw0hrC6bOtFewbUInBf8y8DPxNApMAkbebj3/2TdN5CMv1ZXal4lEHpgmAUuWZseoJGtevjTqMyanY4D+mwknAUQbq9jo8ybKDhX71TZV5jomcVVeZpjyVHPzHJDUJ8OW75mMfm/IUvuVDQpZ5JpsmAEqV55gbrkzWnv+KD/5jppkEWMCpHuZ9w5gzuvaMz84Ei/1yIZ5LPjcDn2oN9uN3TnGqoRqD/5hkJgHHYur+YarfLNc86Jgk/a4lVUsddMb4JE+l4mDh72/l0FtvjDqM8k15wd9kCPJcJzxY5qB5qI85yYHOIfCdff8+kwvm+zMRX/t1e/BkEZ4owVAZyVM1B//dbfXgx/0wkpiBcQdSd5gs/lbfZL8xAc2ca0OickqlouD7zP/97VFHUb5pL/grVxmVAAt4lYv5cB/mNV3Q3rv/wT+bR2YviH7wB5hhw+sa4B/bgs59c8ZZKR3W4A+jCwNbklQJ6IDi56fyjZZUvm6l9kP/Jys1vsPvvBl7aGjiO8ZB1cr+B3KAJCBn4GwX8+GdmCN6gHE6Jo5d+Vsx25JkEfTuv7AF3t8MC/aa0g5z8B8zz4a/SVASYMznzQWf75jst2UssVzf6AmA1Za0Bc1KhUl8n4PvuSPqMMoT+uA/ZnSL4LxmZEsWOjxM5yAYd+IrDDsTDP52zFu+HJ4NbptceLIEJQMn5uCwCOIeSwJ+0g/F2E8HtGB5/wz8v8l8k1zzYGnAGAlpGWh61WdhTnPUUSgVT0fd/hPm/e5XUYcxsVDm/CtMbGT2IZBNUIOfOEnOmoAh7Oxh8oOLtpf7DVZXkQS9kpMrmSdQKlV94vvMve/3UYcxsbJ7+8eIWMFJfjr4T11yOgY24jv/PJlvsB7s8nRtegicBL1nKBWmhX+4Jf6n/Z08Nvgnay5P2ueGu9WvVo11DKxEH4NqMnzcfOxLreXe3frVFi9rWbpGrdqMAVf/Lyu1j3l/vDPqEMZXb2HeSeIGf5o7oTHCUwVrzbwMnBP76+UWKFxY7p0tz4cB18Q8/a4NWgVQak9zHn+ITH9/1GGM7231YPazpS7O8g1I68yoo6g9J+egMea75w2fK7c7oAVw3RpPa0QhKGkCoNQeFv5madQhTMjMjzqCSbKzSOe8YPucqixL4OCYbaPc18FQf145d7QAlu/wxBdTqm5MqrCfsziUSquWDWup27Y16jAmlqAD8kCQGQeDHftBKrkyCUisDF8o524v1TKuecHVXgBVNlJKVotzparp8N8uTcQvhOxMwBv+KGnthJyu+K+q7kRcyZ1uLvzs6RPd6aUE4KEenz43aatcksUABZ0GUArxfVpXPRN1GOX5Q5FENPPO1UFzCMf6ptlWD7YnZJgU+ehEd9ljNcO3nnYt2yL+KXmCjehEi1IsuOdXiJOQX4Y1DrI+5sukRJCOg3Tev5pKBm4bTETVatQHzCc/OW6Tvz0SgK6izy0bPX0FVdFQCTTFUmk374EENP7Z3XWDyObGqKM4IGmdBdl81GHULsfATQOwLVEl3CZKmXEXA+6zn+GWjS6bCzpCVYvrw0jCdhQpVUlNWzeQ6+mOOozJu3oAtsZwH3iuDponfQ6MKpdj4MYBWJeIuf+9jD8NsN8NjV9/qoSrl6lV05+QyqdS1bDwd7ckqYy6B7kybpUAQdrmRB1E7Ur04A8IZ5gLPn/Egf56vwmA48NXnnAxOhlQFSMl8BKyjkSpSmt/dkXUIUzP1QPxSQIaWiAf8/UJSZX0wX+MZQ44DXDAlkY7ij7/9ZSDSDIz9TgzQL/2XlQp1LJhLfbgYNRhTF8ckgCxkDbt9lcVtTL4B957oL8Yt6fh+iGf765ykJh3Pkyi/iL4WgVQKXPoH26NOoTKuXoA2RDhmoDmDrDL6viqJqO2Bn/AnGwu/Nyx+/ubCYf2lb2Gbz6lq9YqzTfQq1UAlTJtq56KOoTKWjIImyIowdsZpLkz/OetdTU3+I+y/L/e75fL+d7Vgz6LnnLwdU1ARfUX9IRAlR6tG1ZjDw1HHUbFyTVDoVcCpLkDLC3NVlStDv4Axjp3f18u+xW0adjnS4+VKCZ09W4cGbQKoNJj3oN3Rx1C9SwZDC8JEBua2sJ5rrSo5cEfAHOS+YfPz9v7q5NKIXtLhs8uK7F+RC9bK2WgoIcEqXRor7Xy/97CSgKa24MkQFVGzQ/+AAieeePeX5x0Dck38PUVDr/d5mnXyQrpHkrstmilymI5JXI7eqIOo/qqnQSIhTS1V+/x0yYdg/8o86a9vzLlSaSb17tc9GwJrQVMn+NBn04FqBo276F70rPtZckg7KhSEtDUFt5Rv8MGNruw1oVVJXimBM87sN4JWuKWEn7VYoClgykZ/AE4xyxatMeLZ1qvpGf7DJ96pMgXjs1yZJMuSJmO3gI0ZCGnx3irGjTriYejDiFUcu0w5gsWVPSAVUEaq3T1XzKw3g0G9w0u9PhQKCP2Vgtm2DA/AwuzMDczjcvKkK1xglt6tLF55yuB+8e+MO3hxjXw7ZUOr5hhceHhWT3oZoqMge2DMK9VD/RStadx04tRhxCu4Sq8EebrIZur3ON5Jriif7IIL7jB/O5k9fnBbbUD94xAvQXHZ+HEPMyL+dVMOQlOzZHXUMkEYMxD3T6P7Sjy2WOyHNOkZwpPheND9zDMjEmXUaUqIVMYqsntf+M6ow5MsaIPKY2tlXmgkoFHivDQSOUTlREflhWD25wMnFUHR+cgjhc1C3OQGQ6uYtPCmFft/mlFizUlHy5a6fCNlQ4D2ux+SgaLMFDZ9w2lIjVn+Z9JW2nQvLrCI55YUN8yvcfwDTxYgMt64e7h6lQpdrfVhZ8NwhV98Sy1NwicUsGKSjK8ypx33ktbSKoyW7Nm0OcLjzr8ZpsXz8wv5nqGdWugqh2dzzwedQjhOjEPmQqv6m1onl7jnxdduLIffj8MYR/33u3BTwbg5kEYiNmF4Rn1yVmzUBkttB983NgnVf2n/3y9y8cfKfJAj6/z2pNgDGwbCHYHKJV0TRvXRx1CqMybKj/3LQ1TLP/7Bu4dgR8NQFfEbyjPlODKPnghRtWAVguOS1sVwJw19lHVcx/fhyWrHb7waIk1w5oIlMs3sHUwWKejVJLl+nqjDiE8h+egrsJX/2JB3RS2FQ4b+PFgkABMZYFfNQwbuHEwmIKIS/OTM+vTtfLacMbYh6EVP/rd4FChrz7hsGHEpOr/91S5Hmzrj8/vrlKT1bphNXjpKWWZN2ep+HqHukYmPZfa58G1/cG2vrgxBh4owC1D8Xhzm2XDgpjvWKisk8Y+CH32Y2vB5z9WlPjyEw7rRnxdIjCBohdsD4xLsqzUZHQ893TUIYQnK9BZ+QFX6psm9w09Plw7AD0xT7yeKgXVgDiUOU9K0zSAOdactygHES5/6C74/NcKh3953OG5IQ+RGLwIYmrECaYD4pAsKzUZLetfiDqE8Ly6DvwqrN6tm0QCMODDT/qhP2aL7Q5ktQM/j0El4Jgc5FJzOZqjZcdREIP1jztLPv/ztMunHy3xQI+fss1C5Ss4sG0wbZupVNI1bNsSdQihMadW4e00V19+69+SgRsGgsY8SbKqBHeORBtDTuDIFFUBxDoRYpAAjCm4wWLBjz1c5Kcvugz6RqcH9lJwdE2ASpZc746oQwhHkwUNVWjgUTeJrmC/GobtMS/7H8iyAqyIuAFKmqYBxI9XArC732/1+PyyEt9YObpOQDOBl4y4sKUf3IQl+Sp9LNfFKqbklKu31le4739AcvXl3fHRAjyd8A5ivxmOdt3Cwiy0puWYZTkWYpoAjFkzGKwT+PjDRW7b4jLs66JBgJIHm/uhpM2CVIw1b16XjjmrV9djjq7S4Jurm/g+fT7cFXEJvRJKBm4diu41YwHvaoSWWA+LFSILoYJnAVSTZ+DWDR63bvA4pMHivENtjmm20vHmcgCeD1sGYGZTcIqgUnHTvDmmDYD+sg7zSgvqfJDpXrX7Qc//arwX2dny5v/vGArOta8Fm1x4ogin5KN5/vkZ+EwrDBiYbjGi6AcdGB8qBtsyY8UkJwHY3YvDPt9ZGfzSvqzT4m3zMsyvB9+krzbgj3YMnNEIzRH9vih1II1bNkUdwj7MJxphxm5Xy3EeN8u5+n/BgediuNd/On4/AsfmIB/Re7oItFTiua3gQKRT8kEb5NWx+jm1mE98oj3RtY5lPT6LnizxsUdK/Gqry4CXzvUC3UPBTXsFqDhp6N4adQh7Om+vwT/mpJwE4L7k/HvKNuIHpxXWipzAuU0Qt+HWyy+MWURT4/nwyxc9vvCowz88XORnG126HJOq3gIDxWBKwI1bpUmlVn5njHYAWII5NmGLZiZKANa6Qcm8Fj08EqwJqBU5gVeWuaAzLMYsTNwUwERcA3ds9rhjs0fWgjceZHPWTJtZeaHWTyguurCpX9cFqHjIDA9GHcIuCzNgYlWCnZg9wS/xQzV49T9m2ASdAk+robnNQ2M23ArzYhZRsNYtDgAAIABJREFUZTk+3L7R4/aNwWXxyzotzp5jc1ijFe/tD9Mwti6gOQ+djXoas4qOXYxRGbfDZvqrukI2XgIw5MOahCU0k7WiWFsJQEPM3o0NnTWdAOxtWY/Psp6gDHBUi/CGuTZHt1g0WFJzzXUGikFFYGYj5FL1U1ZxIU6cBqiE/YLbGbDGuUx5qgQ1XtFkowc7PWivlb35MUsAxKQrAdjdc/2G5/qD+bOMBWfMsDhzps2CBiFnSU0sqBvrF9BWD211xO71p2qb6IKUqZto+99zpXDiiJIxwQ6HV9RKAhA3MiO1CcDuXB/u2+5z3/Ygpe6sC6oDJ7dZzMhLNRp8hcYAO0eCA4VmNEJWf5dUCDIjw1XpjJca45X/XQObUpJcrXfgFWXshlCTZ1JcARhPT8Fww1qXG0Y/X9Bg8VdzbY5pETpzkrhqIgRnLWzqh9a6oBqQxu2SKjz1O7uiDiHZMuMkAJvcIAlIg/VusLDJ0jesihPRBKAc64d9lqzedTUzp87iNXMsTmyzmJkXMiTjgB5joHcEBktBNaBef/qqSrJDA1GHkGwyzvz/lpRc/QMUDfQa6NAEoOIMTToETMHWgs+N63xuHP283oYzZ9qc3C4saLRotMHEuDOh68HWfmjOQXsj2PENVSVUppSCOeoqkvEWAO5I2dTKDg86anXfVqTymgBUwIgXnGD4+90anx3TKrxyRobDm4QZechK/BYWDpRgyAmmBFp0WkBVkBWrHQAJNN4vY0+NNv85kB4PjtDGJlWgCUC1PNtneLZv15ugAMe0WpzeaXF4kzC7Tqizom9O5BvYMQL9RWivh6Ya2naromOn5RjgahlvCmAoZlcS1TaUsopHeHSHeFgM8EyfzzN9e76Y5zdanNopHNVkMa9BaLQl2K0X8u+460PXUJAIdDRAnb4y1DRYrk4BTMt4CUCtnPxXrmLK/r3h0QpA1DYM+WwYgt27lNXbcGKbcFybzSGNwsy80GQH1YJq/yoUXdjSD/XZoCKgrxA1FZarUwDTMl4CEKMGi6HQXLJa9O09jkY8eLjH8PBuc33nz81ybJNFUx4acsFPLjO6p9/3watwZjDiBLeGbNBISF8pSilVU4y+rSeIMTBQCG57y2egfjQxyNlgW0En0ekmB8NOcGvKBz0EctpISO2HAYqjSWPBhcZSlsOiDirJzDhb/XJAmpZY6LqkailpAlAjim5w2x/LCvb81+eCATxrgz06kBsTzP9PZLAY3LQikE7GBK+vEQccL/i4MDrYjzjB4L97ntlS0nftaRlvy1AuZdt1croFsEqK+jaeAr4PQ6Xgtj8ZO5jzz41WD7Kj1QNLgNHGh54X/DlWEchnoW10OkIlm+fvSiBLXjCYF0cH+dLYbZK9Z9yMJgDTMl4C0GRBd4qaATWlLOEJi9EEQBE0BhqY4P1ECBKEumxQQXB9KJSCg5TqMsHXxqoLWVt7CkTKBEdhO96uW2nsT3e3j0c/r0YXS2e8VrZqYv44ZbkZNqxL0SLLTp13rArRKQBVJsP40wx7swSymaCakLGCKkPW3vW5PfqxPfpxRoKOhLa1a3FjmvkmuDJ3/dE/vd0+N8EA7nrB56XRP93Rgb2cKZ1qK9laAZgOY8yBD+/sTFlJfIa+IVSJVgBUdfhmtJQ8xe+3RxMFazQpeOlPCyyCv5PRr9lWUKEY+5zRjzOj76CW7FmRsGX8o9Ynsve6CZFg8IXgiPax5k6+v+vq2vWD7/NGv+aNfjz2WL4JbmMDfdJ3Pg80tEQdQrL545Tk5qTobbtBoCVlCU94+lP0SlJJ4vlE3iVRTd3OlllRh5Bs/jib3+fZwULAUtLTxDIsyHLgUoiapm5NrZRSFVfK5MdvZqPG54wz12YJzE/Jtduhupakagw9+huqlKoKP5OSQaoavAkW+R2VgoFRgCNT8O+MjlYAlFLV4WXjlAAkrI7se2DGmQM7Plf753gfmqmt+f+4zdiIVgCUUlXiZOujDmGX7QlcUDLeeQp1Vu1XAU6qsZ0kgzF7DQo7NAFQSlXFSF1j1CHssr4EkrABc6ITFV9ZF04cUWix4Lga6zK2Jm69G2SjJgBKqarob+6MOoQ9yKPJ2k9uShNsop2Xqd1Fcq+sq60pjhEf/hyzAxzEW6sJgFKqKnra5kQdwp5+NYysr09Om8rS8MT3eU2C/j3larHg1Boq/w8b+Olg/KYATMO6OK3SUUrVkO0dB0cdwr6uG0KOz2H+KgstBuxpvimLAVOl0m6pjCvG+Rk4IQcrptpyK4bOaYBshElNyUCvB9M9bmHYwHoHlpegELPBH3bI4m/1aQKglKqKTZ0Log5h/54uIU9PML8+GSfmMe82YMrsk10u3wu2A9oTlPlfXw/Pl6AQt2XmU3BYFo6NcO7/BQd+OVgb/y/Htw6CrqpKKVVxW2csqL3y9P6sKCIrqjQXX04VoNGCtzRU5/nDVG/BWyNcOOoZuG0oDYM/wFrQBEApVSU+Fk5djLYCVtNvh6vS+dAUR8q743F5OD3BuwJE4G0N0BrhkPSCA0OxK9VXy9OgCYBSqooGmzqiDiEcIwYGq7BwrTBY/n3PqU9ui+BX18HREW/7q6V1FBMxsgI0AVBKVVFXx7yoQwiNPDLdVWP74RQnbgs8JiPwvmaYnaztjpyWh7+MuFJU8OH5Cq/hiDOxngRNAJRSVbRxzhFRhxCeBwpgVeEKfGSo/PvmR5OAzoQkASfm4U0xWL+w0gnWAKTDCL0bVoMmAEqpKnru4BOjDiE8PrCt8mVsUxiY3Dc0W/DhlqBRUJy9og7e0RCcbhi1J9NU/udpWbrUA00AlFJVtK1jPiaTkKvRCpDbC1T84KHiMJhJXp02CHygOdotdQdiA29sCPb7x2GXyCYXNqap/G+eHPtQEwClVFUNxqwlcFVtdGGwwqvxfR8Kk5gGGJMTOLcJ3tkYbWOd3bVY8KEWeHmMdiz8qcydFjXDeuClj6IMQylV+7bMWhh1CKGS20sVv7I1Q71T/+YT8/D3LbAgwnMDLAkG/Y+3xmtqotuD5+J2SE+VeUYTAKVUOFYtPDXqEML1vAOFCl/hjgyCN41dBjNt+OBoNSDsvfYLsvD3zUHZPx+TSsSYBwuQmrV/AHRzzaXPjX0So1RMKVWLnjr0ZbxdZPLz2Akmd3uYN1XyEQ2M9MF0+iqIBNWA43OwogR/KkBPFbYujj3XYRk4K8a9CQb84P9Dutwvu6U8Mf3JKKVqRSlbT7GhmfxQf9ShhOeRArwlE8zfV4gZ7EMq0VjJEjg5DyflYKMHT5VgZSk4sna6Om04MRfcWmO++HOdA356ktLArvI/aAKglArBtlmHcsjaJye+Y61otys/uDiF4Jat0PSCSHB1Pj8T7MXf6sK60RXx3R7s9Mf/N+QEOi2YmYFDMrAwE/9Bf3ctaZwBlz/u/pkmAEqpqnvyyDPSkwBYgvm7emC44g9tBnYiHXMr/rgIMDcT3Mb4wIAHRcAxUALqBHIEc/lNCR9AF2SD6ZBKngwZb93Ma3909y8k/CeolEqCx448E2Mn6OpwqizBfLoRGis/+AMw1Fd+a+Dpsgiu6GfZwcr9hRmYawdl/qQP/mPe2Rj9GQRhEX4rixbtMc9TIz9FpVSc+VaG/vZZUYdRXWODf2uVBn8ADGZgRxUfP2UsgXNTkwT8Zu8vaAKglArF6vknRR1C9YQy+I8a6gUvRZ3rqi0dSYCPlb1r7y9qAqCUCsXDJ7wu6hCqI8zBH8D3MYPTaAyk9lX7ScAj8oOLtu/9RU0AlFKh2NZ2MMWm5qjDqCxLMJ9pCG/wHzO4A/wq7eFPq5pOAszP9vdVTQCUUqF54dAa6go4duXfEkEved/D9HeH/7y1rjaTAINtaQKglIrWH095e9QhVEbYZf/9GdwJToqOsQ1LrSUBhj/LDy5Zt7+/0gRAKRWarvaDKDS3Rh3G9MRh8AcwBtO7z7SuqoRaSgLE3Higv9IEQCkVqheSfDhQXAb/MYVBGJnCUcFqYrWRBPjY9n7L/6AJgFIqZHef9o6KH5cbiqgW/E3A9G0jbUfahSbpSYDhbvnBxZsO9NdWfQqacyml4mNH82z6OqvQzraaolzwNxGniOnTBYFVk+QkQMxV4/211Z7VIoBSKlx/PvmNUYcwKebCGJX992egB0qFqKOoXZbAe5qCQ4+SwtCD0//L8e5izarQwVJKKVWuPx/zOrxcPuowynNsDmbHePCHYEFgzyYwlTt+WO3FBt7aGByclATCdbJkybhZoXVova2TR0qpcFkWaw9NRmtg85cJKf26JUxfV9RR1LZOGw5Kyry5dfWE91jQkJR0RilVS+58xfnJWAzYmqBrpIEdUIx5tSLpOpIwDWDukysvfnqie1ntmQT8Aiqlak5X20F0zz4k6jAmlrBzd0zPpvCODE6jQhKmWeSicu5l+T5yUJ0uBFRKhe/OV74/6hAmJKujjmCSPBfTvVHXA1SDZ2Bj3DNC8xzz2m8v554WBt48OylzGkqpWvL8/BMZap0RdRjj++0wSDbqKCanVMDs3BZ1FLVnWRFGYj4lZPiOLFpUVvZnAczPWdoRSCkViftPf1vUIYyvZJAbfLASdqE01BucF6AqY40Df4j9+ortNNvXl3tnC8A38JY5CctwlVI14c/Hn4PT0BB1GON73kF+CkiykgCzcxuMDEYdRvKtceCmQYj7Ccxi/lcuvrjsblUvXfif3mKR1fWASqkIPHB6Ak4JXDWWBCRhFfiY0f4AhdhfucbX2ODvxrz0D72UrMsn8w0vJQDGh/fPT9ILWylVK/54yjsoNTRFHcbEnnOQG4luOkAsZEc78vBMZFMHSBk9CoyP6d6QnE6BxsBzDtw0ANcPwFOl6GJJzuAPwrdkySW9k/mWPab+F+Zt5jfoagClVPjuffm7og6hPKtKyA2EXwkQC3miA27LwTMW3JVFrutAnpkBTNDS1fiY7hfBLYYS6pQY4HkHrhkIBv/nHFjvwC8H4d4IzmBI0uAP3bj57032m/YY7Y2BDx+cwdapAKVUyB446c0UmlqjDqM8YVcCxEIe64DH9no+38DDNnJtK/LYDPAbDtxcyfMwXRvAjfCKen9KBpYV4H/74MYB2LKfbXb3joSbBCRr8Afkm3LNtwcm+137XO5bvnDBIbogUCkVvj+88vyoQyhfWJWAsSv/JyZINp60keubkdtnIdvagfp97+M6mG3rwYl4OsA3sNaFW4fgkt5gq2XfBCvswkoCEjf4s4km+b+pfON+6/1zshZnz9L1AEqpcD1y7Gvp75wTdRjlG6sEVCsJONCV/3i6gd/mkGtbkPtnwkArWLu91fsuZtuL0bQM7vHgjuFg0P9xPzxZDCoA5ap2EpC8wR8MX57Myv/dHXDC/6xWm5e36XoApVS4bnrDp0ES9N6zqlSdJGBs8J/oyn88qy3k53XInTP3TALM6HRAmFsE17uwuA8eKcDwNAbYaiUBSRz84c9cdemPp/rNB/wtMwbeMivD0U26IEApFZ5NMxayYcFxUYcxOZVOAiox+O9uEzC01y4L42N6NobXLOjBkcrto690EpDMwd8gfE6C5ZNTMm6abXzhfXOzHNmoSYBSKjw3nfMpTCZh05CVSgIqPfiPPezIfh7PGMzOrZgdW6p/dsBghQfXSiUByRz8Aa6XxZc+NJ0HmLDOZozwgXlZTmxJUElOKZVog3UtLD/57KjDmLxVJeQGmXoSIBbyeOUH/wkN9WK2r0/eKYLTTQKSO/j3Y1v/b7oPUtao7vvCe2ZnObMzWW0wlVLJdfuZH2K4pT3qMCbv+eLUkgCxkHuycE9EXftKBcy2tVAYiub5p2qqSUByB3+Af5UfXLxpug9S9mW9MXBOR4a36ZkBSqmQ/PTNn9tz8VpSPF+c3HSAWMjd2WAgGxiCUkRHznoepnsDpq+LaUwth2+ySUCyB/+HmNf+g0o80KR+s4yB05osPnt4jowuC1BKVdmGWUew6uhXRB3G1JQ7HTB25X/f6ABmDOzsq358B2IM9Hdjtq5NTvtgKD8JSPbgXwLrgnKP+53IlFLrNhG+dESO2fkEZuZKqUS56fWfpNTQHHUYU/N8EfmpAesAlVOxkN9n9h24iiXoj7gU7xQx29Ylqxpw7wjcMxIkMfvzXKIHfxD5plx58dOVergpj+C2Ef7hkCyvnaHrApRS1eNj8fM3fOLALW7j7jkHudyFrnqQbPDvsDLQX48sEXjgAFfZff3gRDQV8JKxasA6KEbQj38q7h+BHw0G5wqMGHAMbHLhtiFYOpDcwR8eZ2fbNyr5gNPar2IMvLotw8mtNlevLzEY9WtVKVWTVs0/mWeOexXHPn1/1KFMzQ4P+cHuV/QeMEFPfgN074Q5MyHq3McpYLavg/ompG02ZMo4hTBK60cPEqodBcT6kCxdVNGDHCpSw28V4QuH5TmzQ6sBSqnquOm1H2eorTPqMMLluNAfYre+iYwMYraswezcBn6V+waoXUS+IIsvXlHph63cJL4Pr+/I8C9H5JiZ07UBSqkKsyyuffuXMXbCGgRNV98AFOJ0gp+BwR2YrS/AQE/1Gwip37D4koqs+t9bxUfqeoRPLsjy7rnZyKtWSqna0tV2EH8889yowwhfz07wKtVHt0I8D9O7HbPphaAikLQmQsmwBdf/8HTa/Y6nKpfqxsCJjRZfOSKvBwoppSrqj6e8g40Ljo86jHB5PvREuDVwPMYLKgJbVmN2bgEnTtWKRHOweJ/88PKuaj1BVUdnC3jzjCxfPiLHMU2aCCilKuOHb/8Swy0dUYcRrkIxXusB9mYMDPZitq4OOgoO7gySAzVF5p/kikvvreYzhDIq5xDOn5Pl84fnmVOniYBSanp8sbnqPf+Gn4v5avRK6x2A4QQ05ykVgkOGNj2P6dkUHDssid1+F4Ub5MrLLq/2k4Q6GjcLfHx+lo8vyDFDmwgppaZhZ/NMbn7jp0FS9l7S0wdOQubbjYHhfkz3BmjWfeJlWkEh+9Ewnij03xxjYHZW+OT8LJ9dmGO+VgSUUlO08tDTeeT0N0UdRriMD129ug2vNm3Hs94l118UShvISEffNlv4u4OzfO6wLEc26Z4BpdTk/fqMD7D2iFOjDiNcrhs0CZrM4nA/4hK8p1MAExjBknfJNRevCesJY3H53WJZvH9uji8fmeMsbS2slJqk6978z3TNPTTqMMJVKE1uZ0BflP0TBLbGYriJKx8jH5QrLnkwzCeNz0/EQM4Ir2vL8LWj8rx3XoZGzQWUUmVa/K5/Z6SlPeowwjU0An1l7gx4wgaJ6E3Vb4CIzzaKN/kXueqSn4f9rPFJAHYjPhxdb/PPh+X5zMIcx+oWQqXUBNxMjh/89X/i1tVHHUq4+gZgcHji+w2AbGytfjx7Ewu5tzH8500MuVSuvOS7UTxzrEdWY6DdFs6bk+WrR2pVQCk1vv7Gdq44/z/x8nVRhxKuHX0wVMb2wLuyyKaO8CoBVg55cAas1zVe+2XkWua1fSGqp5dFtzuJWpkhAj2e4U89Lsv70rMK9vy5WY5pjHW+plRszN2xnguXLsIqpagrnQAzOqA+P/F92wROcTBtHliVHwLEsWCLDY9nknz8bnUJP+eg9vfKokWR7Y9MXAKwBzFsc+APXQ7PDyX3n1EOTQCUmpz521/gIzd/HctNyJ75ShCBmR1Ql7IGSclzB3X+O+Xyy4tRBpHsEcUIszPC++fm+OoReT54cIY52mBIKQVsmHUEN7z9XzCZFJ0eaAx07QjaBqu4ugOn711RD/6Q9ARgNxZwWJ3Nx+Zn+epROT4wP8M8bTKkVKq9cPDxLDn3a/jZFF0RGwNdO5PRMjhtjLkNp+9dsmRJLH44NTlCWr5weN7mgoOzfO2IPB+Zn9XDiJRKqRdnHcHi8/8DN00LA42B7l5NAuLlBqzCuXEZ/KFGE4DdCXBI3uL8OVn+/cg8n12Y47UzbTI1/y9XSo3Z1jGfxef9J24+TVsER5OAoZGoA1Eii5nX/kFZvDhWC1KSvQhwGkRgyDesGjY82OPRXYr3jgJdBKjU9LUPdPHxn32N/OBA1KGEq70ZmpuijiKlzDe58rKvyKT6NocjtQnAPgR2uoaVgz4P9LgUYpYPaAKgVGXknBE+cfO/0da1OepQwtXcCO0tUUeRJh4in5HFl/xf1IEciCYA+yPgYNhUMDzW6/HUgB956qYJgFIV5Pv83a+/zSFrV0QdSbga6qGzNSiBqmoaROR9sviSX0UdyHg0ASiDCLgYNhcNqwZ9Hu31KIZcIdAEQKnKsS3IZeAd91zNMcvvDhbNpUUuG/QKsPX9pEo2YnirXHXpk1EHMhFNAKZABBwD2x2fF4YMj/Z6DFS525UmAEpNXcaGfGb0lmWPRcDHPn4Pr7z9h4gXWUO28NkWzGyHXIq2R4bjfkTOl8WXbIk6kHKkqENG5RgT/I87KGtxUBu8us1GLOh1DS+OGJ4ZdHl2QPMqpaIgElzd5+xgsM/bYI2TOz9zymvZftBC3nLdN8gOlXmyXtJ5PmzbAR2t0JimnRFVJLIYhj8dt5X+49EKQJWIQMnATsfwYsHnmQGftcNTnzfQCoBS+xKB7Gg5f+yWtQj2/05SxnN48w3fZubqlRWPM9Ya64NEQNcFTNUIyCflykuWRB3IZGkCECIRKGLoLhnWjRhW9vtsLnO7gSYAKu32GextyFahhvmqO6/n6IfuBD9mW4GqKZeFGW2QprbJlbESsd4niy9O5GpSTQAiJoAnMOAZuoo+60YMT/b5DHp7/lg0AVBpYlvB4D424Gft4BaWORtXcc6N3yU7mJIpAQjmSTpagp0CqgxyPYXMJ+T6i4aijmSqNAGIK4GiMex0DZsLMCcHB+U0AVC1xbZ2De6Z0T9zdjyq0RnP4Q0/u5g5zz4RdSjhaqgP+gXoLoED6QIulCsvvTXqQKZLE4CEmNEE9TlwPXA8cP3gT8cLvubrT1HFlEgwuGdk11X92IAfh4F+Isc+fg+v+M21WKVS1KGEx7ahs02PFd7Xr8k6F8j3v7816kAqQROAhBhLAA7EmD2Tg7EEwfXTNZWpoiESbK3LWKODvR0M9Bm7Ni4kc8Uh3rj0knQuEGzTagCwE2O+LFddtjjqQCpJE4CEmCgBmIjr76oUeKMfu7v9qdR4RMAeu5K3dv1pW8HUsW1NaeF94ixctYy/vPUKMsPDUYcSHtuC9lZoSNFpintaiut/Sn54eVfUgVSaJgAJMd0EYDzGgGcMnid4PnijScLYx64Pnled51bRsySo+GasYJC3R8v1uw/uVhpG9zJlnBJn3/I95q1cDiZF2XN9XbBI0A5xNWa0ViP+J2Xx5XdGHUi1aAKQENVMAMrlm2A6YSxB2OPj3f70fV2TECWRYMC2RgfxsQH8QB+rqencvp7X/eL7NG/dGHUo4REJDhVqaarlF88QIhdR6v1vWbKkEHUw1aQJQELEIQGYLN/sPzHwffAJKg/+bjez259pas2+P2Mld0uCj3cf1GV0AN/9Ppa159+r8Bz11AO84rfXpaeLIARVgPbmWtsyaEB+RLb0xVpZ5DcRTQASIokJwHSNTU1gZFdywOht9HNGv+bvljSYl/6zK9EYu99+n4fxKxYW4wyqsmvu29rt47H7jw3cYx8Luw3SAja7Ph77fh3Ak8fyfc6863qOXHYP4qRot0A+GywSzCf+zeluLOuLcsXFy6IOJEyaACREGhMApZIm45R41Z3Xcdjj9yFuig4XqstDW3PQUTBJDA8i1r/JlRffFXUoUdAEICE0AVAqOTKlIq/63fXpSwTq89DalIBTBs3D+PbX5eqLb4s6kihpApAQmgAolTx1IwOccddPWPDUn9PVSKg+HywUjN/UwO+A78iVl94RdSBxoAlAQmgCoFRyWb7PaQ/cwjEP30lusD/qcMKTzwW7BurzUS5ucYBf4lsXydUXPxxVEHGkCUBCaAKgVG04+sl7OflPt9O0fXN6trvYNjQ3QGNDmF0Ft4BZgjHfl6suT9FezfJpApAQmgAoVVsaB3bysntv5tCnH8IeSUlnQZGgGtBQX63Ogj6YPyCyGEZ+KYsXO9V4klqhCUBCaAKgVO06esV9HP/wHbRueRFJS9vNjB1UBBrrIJOZ7qOtRMxPcTJL5Iff3VCJ8NJAE4CE0ARAqdpn+S5Hr7ifo5ffQ/umNelJBrKZoCLQUB98XJ51GG7FYqksvvT+aoZXqzQBSAhNAJRKl0ypyImP3sHCZx6hZdvG9OwiyGWDaYL6ur37CvhgliHWb/C8W+Tqyx+LKsRaoQlAQmgCoFS6Hbx2BUc//kfmvPgs+b7edCwgzGcdWpruoaFuCWTulMXf6Y46pFoy7YkXpZRS1bdx4YlsXHgiABnP4dBVj7Lg+UeZsXENDTu7Ea8GGg5lMg62vQHbWkbG/jFLr7lNDtzFW02TVgASQisASqnxHLzuaQ5e8yQztqylecc26gb643sugQhk7RFseyu29SzGfgjxfyI3L3k+6tDSRCsASilVAzYeejwbDz1+j681Duzk4LUrmLF1PS07t9LY10PdUD/ZkZHqJweWZbCsIrbVj9CNyDrs7Aps/14aDv2DLFlU00ftJoFWABJCKwBKqYryfVr7umju3U5T/w4aB3dQP9hP/VAfYnwybgnbCbbRZ4sj1A/1bc4Xh7rAGsHCwWcEoYChgFg9iN+FJWvJWKuQ/LPyk//bGfG/UE1AKwBKKZVGlkVf+2z62meXd3+RL15wRubH1Q1KhSm0noxKKaWUig9NAJRSSqkU0gRAKaWUSiFNAJRSSqkU0gRAKaWUSiFNAJRSSqkU0gRAKaWUSiFNAJRSSqkU0gRAKaWUSiFNAJRSSqkU0gRAKaWUSiFNAJRSSqkU0gRAKaWUSiFNAJRSSqkU0gRAKaWUSiFNAJRSSqkU0gRAKaXUhHxBoo5BVZYmAEoppSZkPOqjjkFVliYASimlJuQ6ugtFAAAcNElEQVT5piXqGFRlWaJFHaWUUhPwXDJRx6AqyxLBRB2EUkqpeHM8clHHoCpLpwCUUkpNqOQzHHUMqrKsgu/rJIBSSqkDM3glR3ZEHYaqLGtTMeoQlFJKxVnJo+T7lKKOQ1WWtaLfizoGpZRSMVZwdAtgLbKe6PfRnQBKKaUOpOBEHYGqBssY2FbSjQBKKaX25Xpiim7UUahqsAB+0+WgTR6VUkrtbbBgdHSoURbA+mFDwWgVQCml1C7GwJAu/atZL/UBuHmr1niUUkrt0jsCvl4b1qyXEoDVgz7dnv6klVJKgevDYCHqKFQ17dEJ8LoXHUR7AyqlVKoZYOdQ1FGoattjuB/0DHd06X4PpZRKs8GCbv1Lg32u9/+802dTyY8iFqWUUhErudA3EnUUKgz7Lfgv2eBQEl0PoJRSaeL70DNo0E1h6bDfBMAzcPmaEnpMkFJKpYMx0DUIrr7xp8YBl/wNefCDFx09MFgppWqcMdA9GJT/VXqMO7x3F32uftHRswKUUqqG9Qzpor80mvD6flPB5wcvOhitBCilVE0xBroGYES7/aVSWcP6tqLPpWsc9OBgpZSqDWODv175p1fZ1/X9rs931xQZNrpFUCmlksz1YVs/6Cl/6Tapwv6IDxetdlg1orUApZRKooID2/rA0bfx1JvSzP6Nm1z+sNPVxYFKKZUQBhgoBFv99IAfBdPY5Hd/j8fiDQ6ONgxSSqlY83zo7ofeYYJMQCmmuct/S8Hnm8+XeHbY02qAUkrF0EgJtvZBQef71V4qsrnvps0u124q4Wk1QCmlYsEbbe7TrSV/dQAV292/btjwjedLPD7oIZoIKKVUJAwwPHrVr/v71Xgq2t7HALdudbl8vUu/ppxKKRUqx4PtfdAzGBzso9R4qtLfb0fJ55I1JX7T7eBrB0GllKoqz8DO4eCqv6Tb+1SZMtV88Ed6fR7pLfLamTavbs+AZqRKKVUxxsBgEfpG0CN81aRVNQEYc0+Xx33dHu+em+GERgvf6JYBpZSajsEi9A3rAj81daEkABCUqH622eW3GXjP3CwL6yzNWJVSapKGS8EVv6ulfjVNoSUAYwZduG6DQ96Gd8zOcFyjrYmAUkqNwxgYcXTgV5UVegIwpujB0s0uWcvlbbMznNRso+cMKaXULr6BoWLQwtfT90dVYZElAGMcH36xxeWXW1xeOzPDGW0WGV0joJRKMc+DgWIwz68VUlUtkScAYwxwd5fL3V1wXLPFOTMztNuiC1yUUqlRdIKBf8RBe/arqotNArC7lQM+KwdKNGeFN820ObbJ1i2ESqmaZAwMlWCwoEf0qnDFMgEYM+AYlm52AZfT2ixe05mlWWcHlFI1wHGDEv9QScv8KhqxTgB2t7zXZ3lvkfasxZvmWBxeZwdtDPUXRymVEJ4Hw04w8OtqfhW1xCQAY3Y6Pjds8AGXQxosXtdpsaBedxAopeJpbAvfUAkKejiPipHEJQC7e3HYZ8lwkAyc2mZxZnuGGRnRcppSKlLGQGG3QV/fklQcJToB2N1jvT6P9ZYQ4NRWi1e0Z5iZE108qJQKhTFQcIMjeId1Xl8lQM0kAGMMsLzPZ3lfkAyc0mbxF202c3KWThMopSpqrLw/XAqu+HXQV0lScwnA7gxjlYFg5F/YIPxFu81h9RY50akCpdTkuX4w6BdKUHR10FfJVdMJwN7WDhvWDrsAtOcszuqwOapRaLbB93V/oVJqX8ZAyQ1W7xdKQQKgVC1IVQKwu50ln9u27vpNPrwRXtaWYUG9Rb1WB5RKNdcPSvpjN30/ULUotQnA3lYPweqhoDpQZ8HL221OaLaZkRVEf/mVqmmeFyzgKzhBO15Pf+dVCmgCsB8FH+7r8bivJ+jU0ZyFU1ptjmm0mJUTbET39SiVYK4flPWLDoy4QQKgVNpoAlCGAQfu6/a4rzt4l6iz4bRWm2ObLWbnhKyI7jBQKsZKLpS8YMAvunq0rlKgCcCUFDz40w6PP+0IEgIBjmoSTm6xOajOosXWCoFSUTEmGORLLhQ9KDnoqaJK7YcmABVggFWDhlWD7ktfa80KJ7daHN4gzMwJDZYVvAnpG5FSFWNMcGVfcnfddJW+UuXRBKBK+hzDvd0e9+72tc68xUktwsIGi5lZoU4kyAc0KVBqQvsM9p4eqKPUdGgCEKKeos/dXXA3u961GjPCEY3C4Y02B9UJrTZkES1ZqlRzfXC84Mjckhd8rIO9UpWlCUDEhlzDE32GJ/p21S0FWNAgHNloMb/eoiMHI55F3oCl/YpUDXH9YJB3vD1vSqnq0wQghgywbtiwbtiD0WrB+XP///buPUiysrzj+O95zzndvTOzO3tjLyCCcTGUJWoUYUHErCFysbyW4iVGg0BIgmWKEBMtUyVaKWMZvEZijJVYamJZJJaJ10i4eotGVsSUoKLICrjCusvu7G1m+pz3yR+ne2f2yuzS06enz/dTNXTP9Fye3dni+b2X855Mp44GJYmUBilLpCxIaVo+JqYyOQADJno5es8Lqd1t+JERPVA1AsACUxTl21T74NeyTjhIZz8mrpRpA8yz6DPT9kV3yr7T5FnOAgYTAWCI7Js+3S8clM3fbFYw6ISDJEhp5+NGRsAReHcUH6Xcyyafx/KtoMkDCxIBoCbcO1Ovh3ndrBMIQvkYbP+QkHRCAjlhuLiXS05F0Wnss0btRbfBR87CB4YRAQCSZo3wjrAua1YGgyRIobPvYL/ns95n1aEaLsljp4F7+Rg7jbz7vIgzDZ6RO1BfBADMmXeaylyPUd0XGDqPYVY4MM163n298zyxei9JRO+MzH3meTzgrdvk92v0nQYPAHNBAMC82RcYjvHruyFgXyAwKXQ+3l2OCAeEhRBmlim6Hw86OFA8loBx4OFNrpmR9OzXYpz5tO5Ue/c0SFfnjnPdBt/5OkbkAPqFAICB1V13zmmKANBzoeoCAABA/xEAAACoIQIAAAA1RAAAAKCGCAAAANQQAQAAgBoiAAAAUEMEAAAAaogAAABADREAAACoIQIAAAA1RAAAAKCGCAAAANQQAQAAgBoiAAAAUEMEAAAAaogAAABADREAAACoIQIAAAA1RAAAAKCGCAAAANQQAQAAgBoiAAAAUEMEAAAAaogAAABADREAAACoIQIAAAA1RAAAAKCGCAAAANQQAQAAgBoiAAAAUEMEAAAAaogAAABADYXRtOoSAACDLphaVdeA3grLMiYBAABH1mjGxVXXgN4KxzWrLgEAMOgStyVV14DeCie2kqprAAAMuCwJy6uuAb0VTh6xqmsAAAywZiqZeaPqOtBbYWlKAAAAHF6TzeJDKShKJ42wERAAcGgtxv5DKUjS+avYBwAAOFiWMAMwrIIkHZ+ZMlYCAAAHGOPq/6EVJCm66YVrs6prAQAMkBCkEab/h9a+xf/TRoNGmOYBAHSML5ICs8NDa18AcJdefQKzAAAAKU2kMQ6KG2r7bf8/oRF0yhhxDwBqzaTlo1UXgfm2//V/Lr1qbUNNrgoEgNpa0mLnfx0c1OrNpctPYtcHANRRIynX/jH8DjnWX56YXriG/QAAUCdJkFZyz7/aOOxk/zPGgp6zggOCAKAOzMrmn7AEXBuH/VW7pOetSPX0cf41AMAwM5OOW1xO/6M+jtjdPUovXpXpqYQAABhKZtLKMTb91dGjdnZ36aWrMp2xnGgIAMOk2/xbbPmqpTkN7d2lC5enOm8VEREAhkEI0uolc2/+FmxyfitCv815bt8lPXs80SsfRwgAgIUsS8rmnx3FxO5I0zfOX0WowlEt7rtLv9lKdPW6hhaxIgAAC85Is2z+KVu7au+Y/gmMyvTnv9HUySMcGwwAC8XSkfKIX+N/3dAxBgCpPDHw9cc39BJuIwwAAy0NrlVLpMUtid6Prsc0CeSSnjoa9OZ1mVZwAwEAGDijTWnNuHGZHw7Sk669SEFvPDHTBVwlAAADIQnl4T5M+eNwetaxXdIZSxL91njQpx/MtWlP7NW3BgAchbFWeUOfQOPHEfR83j5z0x+ckOl1j097ly4AAI+qkUirx6VlIzR/PLp5Wbh3l05uJHrrKU2ddxwxAADmUxLKqf5V45znj7mb1+5sLp09nujMpYlu2NLWd7ezLAAAvWImLWl1dvcz4sdR6svwPHHpwpWZNqx0fXZzWz/b7f34sQAwlMyk0Ya0ZERKaPw4Rn2dn2/J9NrjG9rlrs9tznXvbmYEAGCu9jX+lpQw1Y/HqO8L9O7lSYKvXZtpj0d96eFCd+8kCADA4ZiV1/MvaZXr/UAvVLpDb8SCXrE6aHKV66Zf59q4gyAAAF0hSGPNco2fXf3otYHYot8y0wuOy3ThKmnjRKGvPpSLKACgrtKkvJZ/rMHmPsyfgQgAXcGlZy1OdMZ4op/vjfriQ4W2TRMFANRDKytH+82MM/sx/wYqAHR5lE5uBr3x8UF75frujkK3bimqLgsAei6EcmPfWItb9KK/BjIAzLZIpnPHU527NNX9U1Gff6jQ1ilmBQAsYCa10nJ9v5UxzY9qDHwA2MelExtBV54YtNtdG3dEfX1broIsAGCBSJNytD/a4DI+VG/hBIBZRs107tJEz12WaHvh+u72Qt/axhIBgMHTvXZ/tCllKWv7GBwLMgB0uUvjwXTe8lTnrUi0edp127ZCP+FcAQAVCia1GtJIQ1qUVV0NcGgLOgDsx01rM9OrVgdprbR5Kuqb2wrdRRgA0AfBpEWdhs+6PhaC4QkAs0VpbRb08tVBWiNtabu+t6PQd7cXityGAECPhFA2/EWNclMfTR8LyXAGgNlcOi41nb8i1QUrU+2OUT/aLX3t17kmctIAgKOTJmXTH2l0br1L08cCNfwBYBb38vjhZ4xJzxxraNpc9+2Nun17oXt2EQYAHMw6l+y1OtP7nMWPYVGrADCbS8rcdEor0SlrEplJu6Lr3j1R39wW9TBnDQC1laWdpp9JTab2MaRqGwAO5F5eXnjaaKLTxhK5pIfbrh/uLLTxkUJ7yQPA0MqS8vjdVlo+cuMd1AEB4FC8XNZbnZpWL0v1vGWp3KRHctfP9kR9+5GoR7hHAbBgpaEzuu+M8JnWRx0RAObIXFqemJYvTvSsxeUMwfbC9fO9Ud/fEfUAUwTAQDKVU/rNdKbhM8IHCADHzCQtS0zLxhI9YyxRCNLuGPXLKdfPdrnumCg0xeGEQN8lYWYNv5ly+h5wOASAHolRWqSgJzalJzal569I5ZImiqjN0657dkb9366onIkCoGdCkJpJ2eQbaXlZHtP5wNwQAOaRSRpPgsYXSacuSvSi1VIhaUfhemCv657dhX68K6pNKAAeVRI6m/U6o3qaPfDYEAD6yF0KkpYF07JR02mjQVpVXmK0113b29L9k1E/3hl17x5SAerJrGzszbRs+GlSjvIDzR7oKQLAAHCXWjKtyaQ1WbnJ0EzKXdpZuLa0o5ZlpsSkgvOKMCTMOg2+M7LP0pn3Acw/AsCAcpcSSUsT09Ik0cqx8rzx6FJeSNNF+ZgXUh7LNyccYAAloRzFp0HKOhv00sSVBGNzHlAhAsACE6yz2ekQv7k8uvLCZkIB4QB9knSae5rMNPvu46FP0aP1A1UjAAyRNFg5fXqI+497Z+Ygd6k4IBwUhbhLIo4oCeUafBr2b+4pU/bAgkUAqAmzzhrrYV73bjCI5WMRy/0G3ec5IWEodTfcpaF8TIKUWOf9pJxxYqc9MJwIAJBUNoLu9O3huCTvBgMvzz7oBoXu8+idt0hgqIJZOVIPKh+7DT10Hrsj+YTGDtQeAQBzZpKs01wON5OwH5eiZgJBMSsYRC9nHbwbJrwMF67O19R034JZp4nPegyz3jeb1dy7r4WZR1bWAcwVAQDzp9usTOWTY9ANAUUnLKgbFjQTIKLKj/usr+nOPvi+/8x83aF/0GFesyM31cQO/rxu4+58eN9rwWaed7+uG6jM9Kg/CwB6iQCAgdbdQZ7SGQGgp1gFBACghggAAADUEAEAAIAaIgAAAFBDBAAAAGqIAAAAQA0RAAAAqCECAAAANUQAAACghggAAADUEAEAAIAaIgAAAFBDBAAAAGqIAAAAQA0RAAAAqCECAAAANUQAAACghggAAADUEAEAAIAaIgAAAFBDBAAAAGqIAAAAQA0RAAAAqCECAAAANUQAAACghggAAADUEAEAAIAaIgAAAFBDBAAAAGqIAAAAQA0RAAAAqCECAAAANUQAAACghggAAIBH5dJE1TWgt0IwFVUXAQAYbF7ELVXXgN4KIdhU1UUAAAZbZgSAYRMSfqkAgCObnNjRfKDqItBbIQTbWHURAIDBZdK333QRs8XDJsjjp6ouAgAwuKL0taprQO+Fvc9vfD4JnlddCABgMAXzL1ddA3ovXGMWG8Fuq7oQAMAAMt35hrMa36m6DPRekKRU6dVVFwIAGDzm/vdV14D5ESTp6gvszlYj/KTqYgAAA+WhvVPZp6suAvNj30mAlhW/V2UhAIDBYuZ/deUG21V1HZgf+wLAX25o3D7S0K0V1gIAGBSmO8fuzz5edRmYP/vdCyDL0pemwaarKgYAMBAKmd548cXGUfFDbL8AcNUG295MitdbVdUAAAbBOy5dn32j6iIwvw66G+Cbz29+ZqSlf6+iGABA5W5b/ED6rqqLwPw79GDf3d59Q/ueybY9sc/14DBWjkmLGlVXAWC4+aaQZusvOcN+VXUlmH8HzQBIksx82YrsqVmqrX2uBwBQBdevg/wCmn99HDoASLridNszovS0LBGXgADAcNtjphdfcnbzR1UXgv45bACQpKsusM0jWfq0LGhPvwoCAPTVLpde9Iazs29VXQj664gBQJKuOs/ubSXpqVlq2/tREACgP0x6xKTzLzs7u6nqWtB/jxoAJOnq8+3+xTE5qZHowfkuCADQF5uLEH+bkX99zSkASNKbLrKJ6Va6rtXQHfNZEABg3t1uaXrm5eubP6i6EFTnmM78ufaG/MO72vFKOUcG9QuXAQLoCfd/zZvZH15xurG3q+aOuYNfe1P+6slpfSIvPOtlQTg0AgCAx6gt+VWXnt24rupCMBge0xD+n27w4x+O7dumclvXq4JwaAQAAI/B3Yr+ukvPadxedSEYHD2Zw7/2hvY79uZ6WxGV9OL74WAEAADHwCX7WN5IrmLKHwfq2SL+e2/0J+Wx+OreaT+5V98TMwgAAI6O3RvNL738rOzWqivBYOr5Lr733VS8Zc+0v5O9Ab1FAAAwR22ZPjI5mb7tyg3GSa44rHnZxv/hG33F7iL/wt62zpqP719HBAAAj8akWxXilW9Y37yr6low+Ob1Or4P3tz+nT1tfWKqrRPm8+fUAQEAwOHZvTK99dKz0uurrgQLR18u5H/fjdOXTub23ulc4/34ecOIAADgELa662/37Eg/8KaLbKrqYrCw9O0kH3e399+cv3PPtP4iL0QrO0oEAACz7HbXB1pJ+p7XrreJqovBwtT3o/yu+aE3Rh5sf3AqD28ootPS5ogAAEDSLpn+OW+n777iXNtcdTFY2Co7y/eaWzwdy/O3T+V2Vbvw0arqWCgIAECt7ZTp49HSd12+3h6quhgMh8oP87/GPSy+OX/rdFtXT+VaVnU9g4oAANTSZjNdZ5PpdZds4Jbs6K3KA8Bs778p//3JdvzrqdweX3Utg4YAANTKHSb/B5vKPnnJBpusuhgMp4EKAF3vu8VPL/L2tZNtPaeINudbFg8zAgAw9AqT/tOiPnDJOdnXqy4Gw28gA0DXR7/gI7sWxbdMt+MfTxVaWXU9VSIAAEPrl2b6VIzpRy57tm2quhjUx0AHgNmuvXHyd4uYvnOq7WdEV+1mBQgAwFCJkm522T8+MJV87poNllddEOpnwQSArg992Ze0G/nb27leM5lrTdX19AsBABgKP3DpUxbTT196jv2y6mJQbwsuAMz2N1/xk7M0vrWdx5cN+xIBAQBYsB6U6bPR/JOXr29srLoYoGtBB4DZ/u7m9rMn8/i26SI8t11opOp6eo0AACwoW2T2Hxb9M784O731GrNYdUHAgYYmAMz2npsmn+9F8qd5oXPbhcaqrqcXCADAwNsq+Zfdwr8VWfJfV5xu7aoLAo5kKAPAbB/62vQZ7enwZ9O5P3+60DL3qis6NgQAYBD5fabwxcL8s+P3p1+/+GIrqq4ImKuhDwCzXXebnzjZjldOF8Ur2rk9IfrC+fMTAICBEE26w11fjIl/4bIzs++Z2QIdVqDuFkwD7LXrbvGxyTz+Ue7xlXlhT2kX3qq6piMhAACV2SLzmyyGLyVp8pXXn2lbqy4I6IXaBoADfehr/uTpqfyywnXBdO5PKqIlVdc0GwEA6JvcpDu7o/wHz8zuYBMfhhEB4BDc3T544/TL2hZe325rfe5aGWO1f1cEAGDeFJLukOk2c/13u5F+/YrTbU/VRQHzjQAwB9df740HlkxfWAR7eR71nHbUibHP9yggAAA9U5j0fTd9092+MV0kN/7Jc+yRqosC+o0AcAyucQ9Lb5q6qFD6yrzQWXn0x7cLZfP5MwkAwDGbMNd3oul/POgbzUXpt173NNtddVFA1QgAPfKeG/zpZvlrYtQ5RbRT2zEuc+/dXy8BAJgru1eK33Rpowd9gzV84NAIAPPko7d7NjkxfVE7Ji+J0U5vRz+5XfiYjvGCIQIAcCj2c8k3StoYgza22+ntTOcDc0MA6KNP3umjW7dMv6TtdmF0e2YR7cQ8j6NzOY6AAICai+XI3r+vTrO3mG687GzbVnVhwEJFAKjY9dd78uDi/Iwi1UUurc8LPyXGsKYdvTn78wgAqJEJk+5x+V0ubbRgGyf3pt+/coPtqrowYJgQAAbUdf/ra6Z2t19Q5Do3RnvKWEtTrczXSnaS+L1hOGyTdLe73W3yHynYXXmR/PCKc+wXVRcG1AGNZIH56O0+krXbp0YPp8r9ycH0JJfWqXxbXHV9wAHaku6T9FOZ7pH87ij7UTOmd73u2fZwxbUBtUYAGCIf+7avNs/XmfwUj7ZO8nXBbJ1LJ0taUXV9GFqTku5z073BdY/L7zHZT4MXP71vurnpmg2WV10ggIMRAGriult8LMumT0pD8gRXPKlcSvDOo06StKbqGjGwdpr0C5d+LtkmyTfJbJMpbrIk23TJGfarqgsEcPQIAJAkXf9Db0xs11qF/HEmO0Eej5fbiTJf67LyY/I1kkaqrhU9k0vaIukBuTbL7H4z3+xu95v5LwvFB0PReODSc2xn1YUC6D0CAI7Kdbf4WLM5tSYoWSW34zzEtea2SrLjvAwIqyQt77ytkNQ84jdEL7lcWyVts6Bt7vq1yR6O7ptlviUoPFyYb/YibmlZYwtr8EC9EQAwrz55p4/mU1pu7fYKly2PZivM4gqPNi7TuMmWSHGxZEskLTZpqcvGJV+iclPjoor/CP1UmDThskdkvtNdEzLtNPmEPEy4+/YQNKHoO6WwzYO2muI2s7itiM2tXBMP4GgQADDw/uXbvqQwZcX01LgyaxWyRSG3JTJlbjYeXE1ZLJcmTKMxWqPzfDyYgruCZOP7fVOTmfvSo6/G97jC1P7fyvfKNNl5d2eMyiUpmD8iSVHKpbAzSHtlPmnRd0hqe4wTbW/uLUyTKzdr4uKLrTj6egAAAAAAAADgcP4fIh9GMrzmWtEAAAAASUVORK5CYII=;" vertex="1" parent="LU8-xw11yKQ6b2Q469gx-173">
          <mxGeometry x="286.46" y="557" width="71.25" height="71.25" as="geometry" />
        </mxCell>
        <mxCell id="LU8-xw11yKQ6b2Q469gx-7" value="" style="shape=image;imageAspect=0;aspect=fixed;verticalLabelPosition=bottom;verticalAlign=top;shadow=1;glass=0;strokeWidth=1;fillColor=#E6E6E6;fontSize=14;image=data:image/png,iVBORw0KGgoAAAANSUhEUgAAAgAAAAIACAYAAAD0eNT6AAAABGdBTUEAALGPC/xhBQAAACBjSFJNAAB6JgAAgIQAAPoAAACA6AAAdTAAAOpgAAA6mAAAF3CculE8AAAABmJLR0QA/wD/AP+gvaeTAAAACXBIWXMAAAsTAAALEwEAmpwYAAAAB3RJTUUH5QELCQkZ2kSmJgAAgABJREFUeNrsnXmcI0X5/z9P5Zgjc+wux4KCch8eXIqgCAw4cu0mnVmIiorXV9GvB94n6m+9xVvxXBUvxGNwJ8ksLGCA+Xqj4OKFHHLJuVy7c2VmMpN+fn9MZslkOklXp5NUJfV5vebFknS9+/lUV/qp7q6uIhgZNUjnn39+aPv27ccDOImZnymEOJSZnwKgF0A3AGp2jEZGmsgG8BARZRYWFi7csmXLA80OyEg/+XLCHRwc2MXJZMbY8AxvSQMDA8HVq1efkc/nzyOidQAitcZjZGS0TE8w82vT6XTa6UuVzgeGpxYv6NeO/ZDhtRSPLMs6l5k/Ydv2AUTm4t7IqE5aQ0Sbo9Ho2aOjo6mlDxU7HxiegjzPgMLOi8tzLb0Zw2sdXiwWezERXQTgaK/7NzIyktYsgNNSqdRvVTofGJ66PE8dgMHBAVH6WSYzZtdgxvBagBePx1fZtv0TIlrvdd9GRkY1aSfAA9PTE/8o/rAVzi+G5z9PugNQ2Hlpz6NWM4anOS8Wix1KRGkAh3jdt5GRkS96EMCJ09Pj96JFzi+GVx+ekNl4cHAgULLzWnsyhtcCvHg8fhoR/Qkm+RsZqaCnANja37/bHq1wfjG8+vAAl4MAC88bVvQ8sPgqihcjhtcivFgs9gpm/hGAgJd9GxkZ1UWH5PP5dCKROHV4eHhKpqBK5xfD859XxKx+B6Cw4YqeBwDby6ADw2sd3tDQ0POJ6Pswyd/ISDkx87Hz8/Obzz///JDbMiqdXwzPf14RE0CVDkDJzotHHeZ9MGN4GvM2bNiwj23bmwF0yO7XyMioMWLmFz/88MM/govxXiqdXwzPf16BuexOAlXZuHjnS1qowYzTIwfD04wXjUa7A4HAb5n5GNn9VtAUgLyPPCOjVlEvJMdrOehrqVTq7eW+VOn8Ynj+8wrM4jbEmcwYByts7HTbQQkzhtdcnhDikzUm/wcBpJl5i23btxPRA6Ojo1lV/Rqe4TWTZ1nWfwAcKLvfEl1gWdb2VCr1adX9Gl5deEvJf1l5KlNg6TZB8fe13MZQvXIMzyUvGo3uL4S4FUBYdt8AbmfmD6bT6RGUNERV/Rqe4TWb51MHAABARK9PJpPfV9mv4dUt+QOL591dkwYJhwKlow0Bk/wNryAi+hTkk/8CEb1nfHz8mel0ejNM8jc8w6t5DngvYubvRKNRSwe/hucLz+nVwV0scihQeuVfy+hF1SvH8CR48Xj8Ocz8F8hNILUDwEtSqVRGN7+GZ3gq8Py8A1DQLIDTp6fH/6iiX8PzjVf8dtbSlf+yVwdFSQE/X11QvXIMT5LHzB+DXPKfJqJTTfI3PMPzzquDOgGkurt7n6WiX8PzjVd10qBygwA9Ty+oUeUYngTvrLPO2gvAGRK7ZgDnJZPJm3X0a3iGpxBPptPtVquIxBXd3X0nZbMT9yrm1/D85XEmM+b4hpUoKrRLJvkbXqlCodC5kJvw5+upVGpEV7+GZ3gK8/zS3kR05apVu69W3K/h1cYrm89LBwGaK3/DcxQRnSmx+bgQ4mM6+zU8w1OU57cOnp+fvyKRSPQo6tfwvPMYVQbwL+sA1Di1oG6VY3gudfbZZ3cw8wvdbk9EXxwZGXlcV7+GZ3iK8uql587Pz29OJBKu3u7RuP7ajVf17b0g4D3xa145hueSt7CwcBSALrdlAoHAT3X2a3iGpyCvrmLmF+dyuR8BeDnKvKbbYL+G1wBeTdNLqmbG8OrDY2aZZX7/8atf/eounf0anuEpxmvUmwMvsyzrKwr4NbwG8Tx3AFQ0Y3j14RHhIImi1+vu1/AMTyWeLKtGXWBZ1oea6dfwGsfz1AFQ1Yzh1Y23xm1ZZr6/BfwanuFpy/NBn7Is6/W6+DU87zzpZ00qmzG8evGoz215IcRD+vs1PMPTk+ejvh2NRh+dmZlMq+zX8GrjSd0BUN2M4dWN53rufyLa2QJ+Dc/wtOP5rIAQ4ufd3X0nq+rX8GrjARIdANXNGF79ePAwE5nOfg3P8HTj1UmdRDRSMmWwEn4Nrzbeklx1AFQ3Y3iGZ3iG1668OmtpyuCnq+LX8GrjLTEHBweoagegsHOnKWCVMGN4avGweLdA2fgMz/Baidcg7S2EuHL16j12b7Zfw6uNV8QEUOUOQFHyL70FrIQZw1OLBwDM7NSmlIjP8AyvlXiNFDMfnMvlrpSZMlj1+ms3XoEpUJTPq90BMCdzw5OV6SwanuHVmdckuZ4yWPX6azdegbli6v9ghY3Nlb/h1Sol4jM8w2slXjPlZspg1euvTXlLyX9ZeVGmwIpVAhUzY3iK8CpIifgMz/BaiaeIXmZZ1lcb4dfwfOE5rfrLcNpR6TOCgqquKqRx5WjFCwRC4XC4c38iOiQWi+0nhOgD0MvMfQB6l/6YmYQQMwCytm1nAWQBPE6EB2yb7wdwHxHuy2YnH/caXxmZzqLhGV4deIrpbZZlbU+lUp+ql1/D84W3NIB/V/liVtChQLEYgK2QmbbidXZG9icSA0LQEQAdAuBQAE9H0VsZzM5oItr1HdHywyrEk//f3d33KBFtsyxrGxH91bbtv6bT6f/Ixlu0X9NeDM/wWjv5L+mThU7A91Svvzbllb69x5nMmF38QbCkQGkHwJzMG8jbsGHD3vl8/hRmPhXAqUS0v2wssiKiPQCcBuA0ZgYRwbKs+wFkmDkDICOJbJnjYXiGpwJPcX07Ho8/NjW18wq//Kp+PDTjFV/526XblhsEyE4bK2Cm5XjRaPRpQojzAJybz+efCay8Ym+C9gHwGiJ6DRYb0Fy9dqTa8TA8w1OQ1/QTQgUFmPlnXV2962ZmJn/rk1/Vj4duPM5kxvJO2weLCu2SSf715SUSiZ75+flzmPnVAE6G2j9wAtBZD7Aqx8PwDE8znmrqFEJs7urqPXVmZvIfdfBreLXxyuZzp55CLbML6Vg5DeNFo9FnBgKB9+ZyuQSAbtl9tpJUOB6GZ3ga8lRVvxBiS0/PqhOSyeTdPvpV/XiozGNUGcC/YmIA2R1rXDkN48VisedaljUihPhH4arfJP8WOr6GZ3gN4qmuvQFcnUgk9vDJr+rHQ3Ve1bf3ar71rHHl1J1nWdaJAC4EcLrsfnQVM/9POp2+pNz3rXR8Dc/wGsGLRPpvBXCALKuJujEcDp8yPDw85cVvQcoej1bi1dQBUM2MKryhoaFDbNu+GIuj69tNzMyXMPMHRkdHHyv+olWOr+EZXiN5kUj/vwEcKMtrsjLhcHjd8PBwTtYvFD8ercTz3AFQ0UyzeQMDA52rVq26kJnfC6BDdh8tph0APhIOh789PDycb4Xja3iG1wxeJNJ/B/TrAADAL1Kp1LlweDVY5+PRSryqywHrZKaZPMuyzurr6/sXM38YJvkDwGoAX8/lcjdalnUCND++hmd4uvAU0kudpgxWvf7aiSd9B0BlM83gDQ0N7cbMm5h5gyzboxjA/UR0KzPfysx3ApgGMAlgqvDfSSy++tGDoumBiagfwEFEdBgzHwbgKQ2M+ZL5+dy7c7mZbHH9yYJ0by+GZ3iyPMuy/gM97wAs6cNLUwa3wvFoJZ5UB0B1M01I/i+0bftnWJw4p156mJmvB3A9M980Nzd32zXXXDPth99YLNbLzIcJIY4FcCqAAQC71dHLLUR42dTU+D91OL6GZ3gq8FqgAwBmPj+bnfieG79u1SrHt1k8QKIDoLqZBvMQi8U+QEQfL7NNLVpg5quI6CoA16dSqVsa5Xdqajq0115PeTYzBojojMKUxJ4eE1XQNBH9bzKZ/IlsfH77NTzD04HXCh0AAHkAL52eHk9X8+tGrXR8m8FbkqsOgOpmGslbvXqP3XO53I8BnCHLraTCQjw/7ujouGx4ePhRFfx2dvasDQaDL2fmVwF4ps9+LwmFQm8dHh6e8Rqf334Nz/BU5LVIBwAAZm3bLp4yWMvjoTuviFm9A1DYMOCwrRJmGjwa91kAtgJ4qiy3jLJE9N18Pv/d0dHRf6nmt5gXjUaPIaI3EtGr4d8gx38y81Cl1Qd1bi+GZ3h+8FqoAwAA47ZtnzozM7lN1+OhM6+ICaBKB8Ak/yd5kUj/CwGkAayS5TpoHMDXbdv+Sum78qr4LceLxWJPIaL3AHgj/JnRcDszn5ZOp/+uol/DM7xm81qsAwAAD9m2fcLo6KjUlMGqHA9deQXm0iNdBqp3AJaSf/F2SphpJK+rqzcmhPg5al8UZweAL4TD4W8MDw+Pq+rXDS8aje4uhHgHgLdj8W2DmupFCLFuZGTkj6r6NTzDaxavBTsAIKI7QqHQCdUedy5JpeOhI6/ALB7PxZnMGFOFjYuv/Jf+q4SZRvJ6ela9jpm/g8U7IV7FAH4SCoXee/nllz+isl9Z3vr1658aCAS+AuCcGuoHWHyVMZ5KpTIq+zU8w2s0rxU7AAW5mjJYteOhKW/ZlT8KHQBRpkDp56yYmUYl/3cx8/dQW/L/p23bp0xPj7+m1ZI/AMzOTj04PT3+cmZeD+DOGuopAmCLZVlDKvs1PMNrJq/F9NxcLjeSSCTC5TZQ/XhowluRz5dYwqGAwMpHA1VXFdK4chx53d19r2XmL8gyi5Rjtj84OTl+7MzM5G9U91srL5uduGZ2NnsUET6NCutPV1EHgOFIpP+lqvs1PMNrNK9FNZjL5X68ceNGp1yk9PHQhLdiDF8xSzgUKBajDZN/V1dvjIg2yTKLdI9t2ydns5NfFAJzqvv1i5fPz89NTY1/mIheBOAhj3UXAPD9rq7eE1X3a3iG1yhei+ulN99887Ipg1U/HprwSu9ccyYztuziTJQUKO0A2AqZadho/8KAP6+3/UeEoGNnZiZv0sFvPXjJZHJMCHEUEf3aYx2GhRDDvb2rD9DBr+EZXj157SBmfmssFvswoP7x0IhXeuW/4s5suVneOJMZa7sr/+7uvmcDGIW30f4LAN45PT3+0snJneM6+K0nb2Rk5JGjjjrqDCL6KBxWA3OhNbZtXxGNRnfXwa/hGV4dea5nbNVZRPSJWCz2Bqh/PHTjcSYzlnfanooK7fp/p56CQmbqwuvq6t1NCLEN3ub1nyGil09N7bxCF7+N5MXj8Vcy8yUAQrL7BPD7XC73oq1bt87p4tfwDM9PXiTSfyuAA2TLa6o8M78sm51IFX2m1PHQjFfxMX5pBwBeb1FpWjlLPMRisSuI6EwP1ncwczybnfhjEU91vw3nxWKxM4joV/AweRAz/0wI8eYq25Bt50sHvLAQgTwRSfs1PP14oVBoodorZUtS7fdRiddmHQBg+ZTByh0PjXhVx/At6wC0afLneDz+Pma+yIP1B/P5/Fmzs1O3FPNU99ssXjQaPV4IcQWANbIxGBm51ASAKwOBwHs3b958v9MGqv4+yvHasAMAAOPMfHI6nf6bbEHdjm8zeTU/W1LJjBeeZVkvAPB/ZbappIfy+YWTZ2en79HJb7N5lmUdAWAMwGrZskZGEnqCmV+VTqevKP5Q9d+HE69NOwCAhymDdTy+zeTVtNSramZkeYlEYg2An0M++e9ktteZ5C/Pm54e/7dt20MAqq4CaGRUg9YQ0YhlWacvfaDD76MMr13fHNg7EAhcnUgk9nCzscbHt2k8z3cAVDQjy7Ms6+cAXioFXhzwd9bU1M7f6+ZXJV5Pz6p1zDwM+c6XkZGMpono1KmpnX+BRr+PYl4k0n8HWnMqYLe6iZlPSafTk+U20O38pwrP0x0AVc3I8GKx2Ishn/wXmPkVJvnXzpua2nkFM78e7Xt1Y9QYRZj5iq6u3mc4fKfs76MWXgvqOUS0udyUwaofD5V50h0Alc245Z155pkdQohvyLKZ7Q9lsxNbdPOrKi+dTv+IiD4ryzQyktTuQoitHR3dTy36TPnfh0n+y+Q4ZbDqx0N1nlQHQHUzbnnhcPj9zHywJH5LNjv5FR39qswLhUIfYebfybKNjCS1bzAYuiIU6loFjX4fRsu0bMpg1Y+H6jxAogOguhm3vLPPPvsAAB+UxN+Xy839j45+VecNDw/ng8HguQAel92HkZGknhEOh0dWr95DeqZP1X9v7aKlKYNVPx6q85bkqgOguhkZ3vz8/FchN9XvfD6ff/n8/OwOHf3qwCu8r/0qmPEARvXXCblc7hcDAwOuB582+/dhtFxE9IlIpP9NDl8pcTxU5y0xBwcHqGoHoMyqQsqYkeHFYrHnEtF6GT4RPj07O3WDjn514qVSqSsBfF12f0ZGHhTt7+93tdqnKr8PoxW6uLu7zyr6fyWOh+q8IiZQBly64Yr1hFUxI8sjogsld3GHbec/p6tf3Xi5XO7D4XD4HAB7S+x2AcADEts7vfpay4nX8JrDexpqm8jstZZlPZJKpT5QbgPVfh9GyxQgop90dfWeNTMzOabC8VCdV2AuXfQzUKUDAOdHBEqYkeUNDQ09y7Ztqzr5STHz27LZqRkd/erI27p160Q8Hn83M18msWsKBAInb968+V7d/Bqed55lWVMAIrL7LdH7Lcvankqlvqy6XyNHdQohRnp7V58MQGrKYNWPb52TP4DFqf9FhY1b5sofAGzb/iDkrhiGs9mJa3T1qysvmUz+DMC1EkUCCwsLFRcKUtmv4dXOq1FfjMVir2gjv62mftu2r4pGo/u7LaD68a0Hr0w+dx4EWNpTwOLtAmXMyPLi8fiBkJv0Z5KZ36mrX915tm2/HcC82zJE9PpEItGlq1/D887zQUREP4jFYme0id9W1F5CiGuGhob2rLah6se3TrwV+XyJJRwKCKzsKeQVMiPNY+Z3wXkgo6OI6OvpdFrmubJSfnXnzcxM3g7gJxJF1+RyuVeU46nu1/CangxDRHS5ZVnHt4nfVtRBtm1fGYvFesttoHp7rhNvxZV/MctpVqViVV1PWPXKKUwfea7ErrL5fP5LuvptFR4zfw5AXgLxNp39Gl7TFQGwpbOz59A28duKeg4RjThNGax6e65j8i8WZzJjdvEHoqRAaQfAVsiMJ978/HwUEkvPMvOm0dHRx3T12yq8bHbiLiyu1OhWR8RisZN09Wt40rx6aLdAIHBlT0//Pir5NZLSi+bm5n5SPGWwJu25HrzSK3+7dNtygwA5kxnT+sq/SOdJ7G4OwOc199syPCHEpyDxipkQ4q06+zW8mnh+aV9mbOnoiPQq5LdeHZ6WFBG9ZGnKYI3bs588zmTGHO+miqJCu+TUU1DIjGve0NDQbsx8ltv9MfOP0un0g7r6bTXeyMjIvwEk3fKYeV0+7/hqmBZ+Dc8zz289IxgMpssNLG1Bvy2npSmDoWd79ptXNp87jQ5sieQPAPl8/lwAIbf7JKJLdPbbijxm/r4Etru3t+9Unf0anjSvXjphbm7ul26nDG4Bvy2nwpTBry/5WPX27OuVP6qM4VsxMYDsjhWvHJlX/25PpVI3aO635XgTExNXA9gugT+rEk91v4YnxauriGh9f3//d9vFb4uqeMpg1duz37yqj/EFsJj4Wy35JxKJHiI63u32zOzqtTNV/bYqb2xsbIGZf+aWT0TrdPZreK55jdJrYrHYRW3kt9UUIKJLe3tXn6B4e24Kz/VywDqYKVYulzsJ7n9ILIS4VGe/Lc77scRu9untXf1Mzf0aXhWeLKsWEdH7YrHYu5ro17w5UJs6bNtODg0NHSlTSOffh1ue5w6AimaKxcynSmz7+2QyeY/OfluZl06ntwH4l9t95fN5qRUfVfNreOq9SkdEX4jH469sht9Ge21RSU0ZrHp79ovnqQOgqpliHhG9SKLI1br7bQPeNW73V/QYQGe/hucTzycRM18Si8XOaBO/rShXUwarfnz95El3AFQ2s8Tr61u9B4Aj3JYhout09tsOPCHEdW63BfDcgYGBTp39Gp4/PJ8VIqLLu7v7XtAmfltRBzHz1nJTBqvenv3mSXUAVDezxMvn7RMlvE2Nj4//WWe/7cCbnZ39DdxPDRxcvXr10Tr7NbzaeXVShIhSJVMGt7LflhMzH+M0ZbDq7bke7cV1B0B1M8U8IjxbouhvxsbGFirxVPfbDrz5+ZlJAH91u71t28fq7NfwauPVWbsFAoGtPT39T20Tv62oZVMGq96e69VeVJvkwqeFZHCo27JOt/9189s+PB4D6FiXxZ6jv1/DUzgZ7lOYMvhEADvawG/LiYhesm3btkcHBwfeBoXbcz3ay9Lsv1XvAJRZVUgZM2V4h7gtn8/ntzUhPsPzwGPGzRJFD6nGU92v4SmfDJ8ZDAa3yEwZrLnfVtRbIpG+/3X4XIn2XM/kD1TpABQl/9LFKJQwU4HnugPAzLc1IT7D88Ajwu0SxQ+pxlPdr+FpoRfkcrlhN1MGt4jfFhR9qrMzsrboAyXac52Sv0BRPq92B8DpeyXMlON1dvasBdDjEjO1ZcuWBxoZn+F5583Pz98O95OirEkkEmt09mt42mjdqlWrvocKq/a1mN9W0yohArHCv5Voz3VM/ruUyYyxqLCxjlf+C0Tk+uqfiG5vdHyG552Xy81MArjfLWd2dnY/nf0anj5i5ldbluU4ZbAPfrWsE51EREdCkfZcD16ZfO58B6C0p4DFBqiMmUq8QCDwNLcs27Zv0+HgGd4y3m1uWYFAYG0L+DU8ffTe0imDffJ7X7ONtYF2U6E914nntOovw+GLFc8ICqq6qpBCldPrlkdEdzchPsOrjXe3W55t23u2gF/D00iFKYPP89nvTc32ZbRSqv8+yo3hK2YJhwLFYuiV/MHMrjsAAE81Oj7Dq43HzBPuqbyX7n4NTzsRM18Sj8fP8suvbdvfBzDbbGNGT0r130eZt/c4kxmziz8QJQVKOwC2QmZc8YjI7QBAMGOqGk91v23Im3TLJaL+FvBreM48lRVk5uHOzp7j/PA7MzN5G7N9YbNNGS1Kk99HECuv/O3Sbcu9usJOG2tSORJ3AJZ1AFQ7eIbnzHPdAWDmThc81f0anjueauoOBAKpnp7+gamp8Vtr9ZvNTl7c3d13NxF9A8DezTbXrtL098GZzJjjNOrBokK7pHHyBzO7vgOAJ5OJygfP8IokhJhidrcrIuqsxlPdr+G54qmqNcy4sq9vzQs2b94sPZCv1G82O7FlzZrdrpydnd9fCHEEgG5ZJjOvmNSNiNyusaEb79nM/C6PZVdI499H2Xzu1FOoZXYhFSpHtgOg+sEzvOWSuAOAzhbwa3jQMvkvaZ98Pn9VIpE4cXh4+Ila/T7xxOO5TGbsVgC3ygSh8fH1zOvq6j1LCOFLB0AHvw68qmP4VkwM0AKV47q3SESk8MEzPGcF4FJENNcCfg1P3+S/pGfkcrkt0WjU1RW7xsdDNZ4vY0U08luqqgP4BbCY+Fsk+QMSV4iQu1ugqt9243kd46GrX8PTO/kv6flCiKpTBmt8PFTneZLGfl3xXC8HrIOZgmQ6ADLJRFW/7caTOWYybUFVv4bnwJNlKaKz+vv7v48yV6Y6Hw/FeZ6ksV/XPM8dABXNAAAzy1z1uU4mqvptQ15dOgAK+zU8H3gK6VWWZX2u3n4ND0ANUyhr6lea56kDoKqZgny/A6C433bjue4AuO0MKu7X8GrkKaj3xOPxd9fLr+Etioi0fZutUTzp2yUqmylI5j3x1br7bTcegFUS21ZtC6r7NbzaeKqKmT8fj8cfmZraeamfflU/Hg1+TKR0fCrwpDoAqpsp8FxPFSuEOKgF/LYVj5ldr/YI4EE/49u4caP4+9//vnZhYaGPmSNE1COEiDBzpPD/ESKEbZtzAHIA5gDMBAKBxwA8tmHDhsd33333xzZt2jTfrPprJ57iIma+pLu7b2c2O3GVH35VPx6N5sViMV95qvuV5QESHQDVzSzxmPkuIndvfzDzobr7bUOe6w6Abdt3ysbX37+bsG37mdFo9EAiOpCIDmDmA4jogG3btu0HoIOIsNTGliYlevL/n/x3URy7/r19+3ZYlrUdwN3MfLcQ4h7btm9j5n9MTk7eMjY2NqvZ8VCSp4mCRPTznp5VZ0xN7fxTLX5VPx6q8wpSNr56/T5cdQBUN1PMm5/P3dHR0em26IEDAwPBsbGxhXI81f22E6+7u3c3ALu5LDazZcuWByvxAKCnp3+ffN4+TghxPIDnLSwsHAOgQ4gnh8e47VBKaC2AtUR0PDNjqUPR39+ftyzrTma+CeDfMPPYzMxUcSdGqeOhKk8zdTNzsjBl8D9VqL924xXk9CNXIr56+F2a/bdqB6CwodPkK0qYKeUtLMxNdHR0PgxgLxfFQz09PfsDuKNR8RleLTySuf1/FxyeAUaj0acTIU4kTgJwPDOeUpzsm6wAgEOI6BCAziUCIpH++4hozLbta4noOkiuDa/X8a2dp6nWMOOKSKT/BJjj21BekUo7AErEV8/kD1TpABQlf90q53a46wAgEAgchkIHQPWDZ3jub/8D2HXlbFnWMwAMFf6eIxtHk7UvM59HROcVvNwJ4GoAP02lUn+oVFDD41sTT3PtC+DqRCLxQrdTBqt+PFTnVZAS8dUp+S9d7TBQ/Q6A06WREmaqjP68HcBJLlHHAxhV/eAZHgDgOLflmVlYlvVZLCZ9mY6D6joQwJsBvDkWi91FRJcy80/S6fR/ijfS9Ph65rWIDs/lcldEo9EXjY6OZittqPrxUJ1XQUrEV+fkD2BxBuBghY11vPJfyGTG2LKs2yRwp6p+8AxvUUQ04JZBROsBrJfdt04iogMAfJSIPmpZ1p8A/EQI8YvJyR1PQMPj65XXYjq+MGWwVTo2aUmqHw/VeWXEqsRXJ96yK/8liTIFSj/XrXJukEAeGwx2rK7CU91vy/Mikf69ARwky2sjHQ/gG7ZtPxSJ9P8iEuk7suR7pY+vV16L6qz+/v5L4DAwTfXjoTqvgjyth6O635Lkv8KrcCggsLLhVV1VSKXKCYfDNwCYcYkNdHZ2nVSJp7rfduAx8ymyvDZVCEACoL90d/elu7p6XwANjq9J/it0XiwW+3zxB6ofD9V5fkt1v+XG8BWzhEOBYjE0S/4AMDw8nAPwe7ds27ZPqcRT3W878IQQpgMgKSI6QwgxFon0j1mWdbpMWdXbSzuIiN5tWdZ7APWPh+o8v6W63zJv73EmM7ZsemRRUqC0A2ArZEaWd71bPhGta0J8hueSNzAwEGTmM2S5Rrt0EoCrLMu60bKsoWoba9Je2kWfsyzrVVD/eCjL81uq+y3ilV75r1gbodwL0JzJjGl35b/MmBCuOwAADuzq6n2uzn5bmdfX13c6FifPUUGzWHzL5E6JMvcCuAXAdJNjfw6AzZZlXVd4NXKFNG4vrSoC8P2urt6zSj5X/XgowfNbqvstw+NMZizvtL0oKrRLTj0Fhcy44u3YseMvAFytBgcAQohX6uy3xXmvkmXXqDkAfwTwTWb7A7ZtnwvghHx+Yd/t2x/sn54eP4yIvi7BuzSVSj1zenq8l5n3sm37eQDOYbbfTUTfBPDnwj4bpVMA3GxZ1ucSiUTP0ocat5dWV1AIcVlPz6rjC/+v+vFQggfn2f08S3W/FXhl87nT6EDtkz8AjI2NLRDRVoldvvT8888P6eq3VXmJRKKfiORW9ZDXfwH8gojeCeD4cDjcNz09fsL09Pg7stnJL83MTP5qenr8L7Oz09t7eiLztfjNZieemJmZvHl6ejydzU5ePDW1862pVOq4cDjcV+gYvJWIfgTg33X2HALw3lwu9+94PP4SjdtLu6ibmZORSP8hih8PZXjM7NsUnzr4deBVHcO3rECNUwsqVzm2bV9KRAmXm+/20EMPnQUgpavfVuTlcrkEANeLO7jUPDNnAFwO4Kp0Or1szYBmLDRSGLj6l8IfAGDDhg375PP5GIAYFq/awz7XAwDsw8y/6OlZ9YZ8fuEdMzNTt9fq1yT/umkNFsdyvCCVSrmeMriVzgeSPF/uAGjkt1RVH+MHAe+JX/XK2WuvvbZu3779cbhcQEYI8b+o0gFQ2W+L8t4ku48ymsPiFLq/IqJ0KpXa2Qi/i2JPM2pu3rz5fgDfBPDNM888s6+jo+MMZo5hcYKjfp/qZTFC5kEhAjdFIv0fmJ4e/4ZXvyb51137ALh6aGjoxJGRkcerbazA71cVnidp7NcVr6ZbJKqZKdVdd92+AGBYosjpsVjsubr6bTVePB4/E7XP3T9GRC9n5j1SqZSVSqV+nEwmdzbCbwVJ87Zu3ToxNbVzeHp6/LXz87mn27Z9PhHd6GNMANAB4MuRSP8venpWSXcwGjzddzvrcNu2t0Sj0e5KGzX796sQz5M09uua57kDoKIZJx4RXSZTTgjxYZ39thKPmT8Mb5oD8EMhxFGpVOqUZDL5s3Q6PdlIvxVUc/3lcjPZmZnJH05N7XwBER0L4Hvw9w2DIWa+ORqNHu+2gArtpc10PBFdPjAw4JjwVD8eDXwG7kma+pXmeeoAqGrGiTc1tfNPWFwa1pWYOTY0NPQsXf22Ci8ejw8AeIHkrh4hoo8x89NTqdRrR0ZG/tYMvxXke/0lk8kbU6nUG8Lh8FOZ+d0AtvsU69OFEL+1LOv9qPIsVYX20o4iojOdpgxW/Xg0cO2QlhjQXk+edAdAZTNOvML7s/tIIMi27Qt19dsqPGa+EBJi5k/kcrmnJZPJjel02nUS1Dn5F/OGh4fH0+n0l2zbPoCI3g+g6vNhFwoC+KxlWVcmEok9GlF/JvlLa9mUwaofjwY/JlI6PhV4Uh0A1c04JX8hxC8hP3r6pZZlHaeb31bhxWKxdQAGJXZ131577fWJrVu3Sr1L37hkQw2bUXN0dDSbTCY/x8z7M/NHAOz0wcAZc3Nzf4rFYssWY1KlvbS7iOjdsVjsvaofD8NTiwdIdABUN+Nj8gcWb6l9u6Ojs0MXv63CSyQSXUR0scy+iOjzmzZtmm+mX79Va3zpdHoynU5/koj2J6IvAchXK1NJRHQAEf1+aZCsKu3FaFFEdFF3d+9rHb5S4niozitI2fjq9ftw1QFQ3YzPyX9JRwUCoTfr4LeVeLlc7kIA+0vs7pFQKPS9Zvr1W37Gl0wmd05N7XxPPp9/ARFtqzG0PYno+ng8frpf8fntt41FROI7PT2r1hV9psTxUJ23VH+qxlcPv4ODAzQ4OEBVOwBlVhVSxkwpr6dn1Tofkj8AgEj8v56e/r1V9ttKvKGhoUMAvFdyl18aHh52u/Sz8smmXsdjdnZqWy43+wIA7weQrSHEHmYejUT6X+5nfH75bXMFmfmy7u6+50OR46E6r0ilHQAl4qtX8l/6t3Cx4Yr1hFUx45T8mfkX8G/GtD6AvqKq31bibdy4Udi2/R3IHbudzPzNZvn1W/U+HrncbH56evzLRPQsLE6K5FUhAD+IRPre5Wd8tfo1AgB0EVEyEuk/XLagSueDRvAqSIn46pT8BYryebU7AJ5mMGtG5dQh+QMAmHmop2eV9Gx0qjcG1Xjbtm37MIABmX0y8yeqvd9fL79+q5HHI5lM3p1Kpc4govfA+6Q6BNBnI5H+jSq0P6NlWg3gasuy9nVbQLXzQb15FaREfHVM/ruUyYyVXyxhcHCgna/8l4mZvzQ0NHSkKn5bjTc0NHQygI9K7vafExMTX2ueXw7IlmtsfNV5yWTyiwBOBnB/DeF/yLKs9zTTr5Gj9gFwzdDQUNVp0FU7H9SbV0asSnz14JXJ5853AEp7CipXTr2Tf0Gdtm3/snjp1Gb5bTVeIpHYw7bty+A8zqSS3jw2Nlb16rVeftmn006zj0cqlfqDEOIoZpZZObNUn4/H469phl+jijrMtu0rTjvttEi5DZrd/hrNqyBWIb468ZxW/WU4fLHiGUFBVVcVakbldHf3rW9A8l/SIXNzc5ua6bfVeIlEIpDL5X4C4CmSu/5xKpX6rUJ+PUmV4zEyMvJ4Op1ex8wfQoW1wyuJmb8Xi8UqLttskn9TdFxXV9flTkudq9L+GsXzW6r7LTeGr5glHAoUi6Fw8iein6MxyR8AQETnxmKxi5rhtxV58/PzmwCcLrnrnUKIqm8KmOQvzeN0Ov0ZIjoXQM6DpQAR/SIWi53UCL9GUjrj4YcfXjZlsILtr648v6W63zJv73EmM7asgy9KCpR2ABo2g5kMrxnJf0lE9L54PP7uRvptRZ5lWZ9l5tfJ7puZ3z0yMvJIs/0SyVIaG59XXjKZ/CURrQPganBliTqJaDQejx/VAL9GEiKiV8bj8S8Aare/evD8lup+i3ilV/4r7u6VGwTImcyYufIvVznMn7cs61WN8NuKvFgs9i4svo8uq8vS6fQlavglTzPrqXg8SnlTUzv/z7btF8HbwkJ9zHzV+vXrn9pgv0ZVxMzvisfj74Pi7c9Pnt9S3W+5VREzmTHH85UoKrRLTj0FFcyokPwLIgDftyxrqJ5+W5EXj8f/h4i+ILtvIrqDmSu+jtnghUakpeLxKMebmZm8mZlPhsRKmkVaK4T4+SmnDIQa5NfIpZj5okik/1UlHyvX/vzgocoqls2Or4G8svncaXSgksm/q6s3qkjyX1IQwHBXV+9r6uG3FXmxWOy9zPw9yP8w52zbfmmld/5V9Ks7L5uduCsQECcCuFuWR0Qv7O3t+3QD/BrJ69tFUwYr2/5q5TGzp+XudfXrwKs6hm/FxAAqVk5XV29UCPEzqJP8lxQQQmyKRPqWBqWp3BiayrMs6/NE9DnZfQMAEb03nU6XncdeRb8OUja+SrzNm0ceJKIXw8PjACJ6d53npjfypiAzXxaJ9D9P9fbn5zNwr9LIb6mqPsYXwGLiN8m/FtGnurv7PpPJjEmX1LhxuX7Vz7KsHwCQmiymSD9JJpNlVwdUza+zWJsZNZ14yWTyTiHE6QDGJfHEzN/v7IzsW4f4jGpTF4DRaDT6TJlCqv/e2uBtHV95Nd0iMcn/SRHRu+Px+Mi6detWe/VbpJZoXBs2bNg7l8v9GsBrZPcNAET067Vr1/6PLn4lpER8MryRkZG/CSHWA3C98FJBawKB4GUHHHCI9EnZ7zEYRiu0WghxdTQafZqbjVX/vZnkL8/z3AEwyX+lmNkKBoM3Dw0NPV/Wb5FaonHFYrEX5/P5mwGcIl+TAIBttm2fvWnTpnkd/EpIifi88EZGRn4H4BzIJ+Djtm/ffpFMAdVHg7eQniqEuLralMEqtD8PPM/tRFO/0jxPHQCT/CvqabZt/6bwuo3jMyhVG4MfvMIt/08R0dUA9vRYh/fMz8+fVW7Qn0p+JaVEfLXwUqnUlczs5RXOd1iW9YJm+DWqqsNs276y3JTBKrU/GR4RKTmgXSWedAegQclfpdH+XhRk5ossy/r1+vXrD67kt0hNbwy18oaGho7M5XK/A/AheB+A8xgzn3HllVc+rLpfSSkRnx+8dDr9JSIaltw1Afj2wMBAxVu0Jvk3Tc/r6ur6VemUwSq2P7c8eLgDoLNfLzypDkADk39IlqWoXhQIBP4Rj8c/kUgkulRvDF55sVisNx6Pf8W27ZsAHF9Dfd0vhDgpnU7fprJfeZGSM2rWwguFQq8D8G/JEJ7d39//jkb5NZLW6du3b/8BCp13lduf4dXOAyQ6ACb5e1YHM384l8v9q6urN+rwvRKNwSvPsqyXEtGtzPx2yK/oV6zbbds+YWRkxDGpqOK3UVLd744dj07n8/mXQH7K4I1O69SrfjzaSK+wLOuLqrc/86quL37djZg0yd8X7S+ESHV39/2emT87MzN5NRRpDB54FIvFhojoQwCe40PdbBNCnJFKpRzn+FfAb0Olut8l3uzs1G3d3X1vKEzQ5VYRAF8DMFSv+Ixq1jsjkf6/TU+PX1byuVLtzy9eQU6PLJWIrx5+l2b/rXoHoMyqQr6Z6ezsibVB8t8lIjpBCDEaifT/sbu7bwiSz8qb2bgSiUQgHo+/0rKsfxLRr+BP8v9NLpcbKLfAjw4/Jj+lut9SXjY7sRnApZKY+NDQ0Pp6xGfkmz7X27uqv+j/lWx/tfKKVHoeViK+eiZ/J9NOGwZQp8rp7OyJBQKBn6FNkn8Z/RvAJYFA4KebN29+qNKGzWpc0Wj0aUKI85j5dUR0gF/GmflbHR0d7xgeHnZcflahHxPF4/Ejbds+loiezcxHENGRAFa53PUUgL8z8z8B/APAn4455pi/bty4cdkoZYX8SvFWrdq9b35+/hbIvfVxTygUfObOnY87veZZNT7LsqaweDfBqE6ybfslMzOTSSje/srxYrHYGUS01SV+ZHp6/KWNjK/RvAJz6aKfgeqPAOo2g5lJ/rt0OIDP5/P5z1qWlSGiH4VCoeTw8PCyCVca3bhisVgvEZ0D4FUATgZAVMsauMs1zcxvTKfTP/Uan99+Sz+Mx+OrmDkG4HQAg8y855J/D/XQA+AFRLTrNbht27btsCxrjJm3dnR0/GrHjkd3NNNvLbzLL7/88Xg8/jZm/oUEcr/5+fk3A/iqx/jM3YE6q9DJvVz19mfe1nHNXDH1P1XYuPjKf+m/Jvk3RpMAfgPgWiHEdTfe+Od/HHrowXV7DAMAa9bsJmZn548QQpzCzC8CcCIWpwv1W7fatn3O6Ojov2Ti89uvEy+RSARyudzpzPxqIrIAdNTBv5PmmfkaIvrp5OR4UohdE+0ocfJwy7MsawRAXAL90Oxs9pB8fn5ONj7Lsv4B4FmyXoyk9I1UKvVW2UKqJEPJOwCbp6fHz9Hp9ybJW3blj8WF/zhYpsCKVQLhYmEBN2ZM8nelXgDrAKyzbRvHHPPcx4jo/5jtvwJ0Wz6fv23PPfe4/ZJLfuDpeAQCoe6uru6DmXEIwIcSiefOzS2cRESrmOt6YXVZOBx+4/Dw8FSl+NDgH9PAwEBnX1/f63O53HsBPM3HOx1uFSKidQDW9fb2PwDwNwD6diqV2lEPv/XiMfNbiOgUAP2u4MDeHR1dr81m578tGx8R3cTMpgOgmFRPhhXkaT0c1f2WJP8VXsmhgMDKK39fkn8k0h8DYJK/P1ogoruZ+S4imsDiXYNdf8xMWOxI7Pojon7btg8ioqejxnUgJPVfIcRbRkZGtlTaqNE/poGBgc5Vq1ZdwMzvArC2gfXhRpMAvjAzM/PFa665ZtoPv7IBeOFZlvUWAF+X2M19u+225qBLLvlBTqIMotHoMUKIG1D9MaaRd0ndAVCh/RVL8g7Ar1Kp1DmNjK9BvKU7x8VX/rvGHgUdChSLAfgyiYlJ/r4ryMwHAzjY7VU7M3t5fl2L8sx8cUdHx0cqXfUDjf8xRaNRSwjxZWbev5EVIqFeAB/r6up6Uzwe/0gymbwEFZ57q3IyWrt27aaHH374XRKDRfd94okd5wH4vkx8MzOT27q7ezcSiU/KV62R31Kl/Rm/y3ilj42XJX+g6CqwUKA0O5jkb+RVNzPz8el0+p0qJf9IpH+fWCx2pRAiCUDV5F+svZn5e5ZlXRePxw+U9dvok1Fh8aaPyuyPmT+YSCRcTyK1FF82O/k527bjAP4r69HIP6nU/ozfZbxl+bw0+QPlb5+x08ZezJjk33b6DxF9PBQKXTY8PJyvtnEjf0zd3X3nANhERKuaXUkeNMDMf4/FYu9Pp9O7brGreDI65phjfrZt27b3A3i2y90eOD8/fy5czCdQGt/MzOSVAK7s7OxZGwwGnw0PAzeZeUXng4iqtl0decx8KoC3eY2lVCq2v3pKdb/lVkXMZMYc20uwqNAumeRvJCtmvksI8YlQKPQTN4kfaNyPaWEBwVWrVn2bmV/X7HqqUd1EdLFlWS8Mh8Ov37Hj0WkoeDLauHGjbVnWhQDSbsvYtv0eVOkAVIpvy5Yt9wO4vxl+deJFIv27yZbT1S+8L0impd8KvLL53Gl0oC/Jv7u7z4JJ/u2gBwG8YWJi4tBkMvlD1ZJ/b++qNf39/de1QPIv1ktzudwNkUjfIQ7fKXEymp4e3wLgj263J6Ij4/H4UY2Kz/Bqkw5+mdm3gc46+HXgVX17b1mBGqcWXJb8iegymOTvpH8BeBjAKWjsSPx66b2pVOoymQKNS/6rD7Ztewvq96w/D+BuZn6YiKaIaNK2bcbiGxc9WJwZ7wDU53fwDIB+09XVu35mZvLmetRfrTxm/iwRpdyWs2371QBuLsfzOz7D8yaN/PpyB0Ajv6Wq+vZeEPCe+J12bpJ/Rf3Dtu1TR0dHH4vFYk8RQpzLzK8EcFSzA/MiZn60o6PjcpkyjWr8PT2rnmXbdgbAGr/8EtEdtm1fL4QYI6Kbg8HgneWmMV7SKacMhPr7+w+2bX42EU4GaACLsz/6oT2FENd2dfVumJmZvFa1k1FHR/DqubmFu4nIVQeMiF4+MDDw3rGxsQUnnt/xtTnPk4xfbfy64tVUUSb5S2lX8geAdDr94ODgwJcAfK2zs+cZwWDgXNvmM4no2fD52VW9RESXVEuAxWrglf9htm1fA3+S/71E9BPbti9NpVK3eYgPU1PjdwC4A8BmAOjpWbWPbduvIKLzABwiw3RQrxAiFYn0vxjAH/yoP/h0PHbseMLu7u79DkCfdYnYs6+v7ywUxg6odrJsIZ4nGb/a+HXN83wL2iR/KS1L/sDy+pudnbplamr8I9nsxHOFoD0Lc/B/A8AtzQ68gmzbtr/jduNGNf7u7r4DC1f+u9fo709EFP/rX288IJlMfiSdTntJ/o5+k8nk3el0+pOpVOpQIhokoutqjLUbwBWxWOwIP+Lz83gEAoHvA5h1yxFCvLqR8bUbz+vbA5r69e3OtiZ+pXmeekulO+/q6n0BEf0UJvk7qWLyL9HCyEjyMQC/KvzhrLPO2isYDD6HiA4BcAgRHcLMhwB4KrzfKWAA9xHRbQBus237NiHEQ8w87JbJzFePjo7e7WbbRjX+jo5IrxAizcwyq9KV6h/5fP49s7NT1wNYuO++B+r640wmk9cCuDYajR4vhPgygOM9xr2KiK5ev379c7ds2fKAX/HV6ndkJPmYZVk/B/AaNyxmXn/OOefstnPnYxONiK/deLIsnf0SkS8D2nXx64Un3QEo3XlPT/8+zPgFgLAsqw0klfydDt6VV175MIArCn+7dNppp0U6Ojr2CwaD/bZt96Mw3S+z3QOgh0jkmXkKwKQQYgrAJBFNLiwsTAC4e3R0NFvMsyzrHEh0KIjoW262a1Tj7+tbzbbNPy/MjuhFE8z2xxYW5r+Zy83m/Y6vGm90dPRPAF4Qj8dfx8wXAfDyutZegUDg8kQicbJKSyzbtv1NIcRrXCLDudzcKwF8s1HxtRMvHo8rHZ+fPHi4A6CzXy88qQ7Ayvf8e7uYcTnUm0ddBdWc/CvpmmuumR4cHLjFLx4RrZdYCOi/Rx999BWpVOUB3o1s/Pm8/TkAL5ZlFrzfSIRXTE5OLt3RaNaPk5PJ5PdjsdjWwh21AQ92jp+bm7sYwBvrEJ8n3ujo6F8sy/onXK7eJ0TAwvIOgBIny3bjFaRsfC6WNFc6vmbzAIkxAM47F98GcIyXHbe46pr868AjZj7T7cbM/KONGzdWvL3WSL89PatOBvBuWSYAEOHiUChw8uTkzmYn/11Kp9MP7r//foNE+IQ3T3R+LBbbUK/4vPCYecQtm5mfHwiEOirx/I7P8BzllB+UiM90dnzx664D4LTzSKT/dADnet1xC0u35A/Lso7D4jvrrkREV1T6vsHT+/Yw8w8gPx7CBvhdU1Pj796x4/H5esXnlffPf/5NTE2Nf8K27f+Bh2e3RPStaDS6e73i88Bz3QEA0BkOdx7f4PgMb4VWFFUivjr5dTp/KBFfPfwODg7Q4OAAVe0AlFlVCAA2etlxi0u75D84OEBEiEoUeezoo4/+SyPjq8K7CMB+ktg8gFdOT0983YHnd3w18WZmJn/CzBsAzEmi9iSib6jS/tLp9DYA97jdTyAQOFnF49HqvApSIr46+i3tACgRX72S/9K/hYsNA6WV093dFwXwHC87b2H9Xcfkv8gj17f/AVxd7vZ/E57xHUFEb5TlAnjj9PT45aU8v+Pzi5fNTmzB4t02qVe4iOglPT2rTql3fG55zJx0u6/CojUNja/deRWkRHzGb+1+BwcHBIryebU7ACu+f9azjrSJ6ONedt7C+rtt2y/SMfkTBSPMfKTbcsy8tZHxVeIJIb4A6bks+MLp6fEfNyI+P3mpVGoEwJtkucz8+enpLJXymuE3EAgkJXb5vEQi0dPI+NqZ5yxSJj6T/Gv3W0j+u5TJjJVfLGFwcGDFlT+AhXvuuTcK4JleAmhRaZv8AaCrq/touE+iNjNf3cj4yvFisdgZzCw16p+ZL5+envh8I+KrBy+VSn2PmV29flmkY3bffe3LVPAbDAZ/B2CH281zudxJjYyvXXkVZKsQX4P8sirx1YNXJp87n/hLewrFlcPMr5ANoIWldfJfFD9XoviNxV6b6ZeIPiyJviOfX3hjOZ7f8dWLNz8//04AN8nsQwjxfhX8FlaK/LPb7d08Bmj28dCd57c09ssqxFcnntOqv4t3UR0KLHtGUFA+kxnjaDTaDWCdbBAtqhZI/gCRcN0BIKKt1XiN8BuNRo8FcIIE2gbwmrm57GQj4qsnb+vWrXOFTrjrNRgAPKO7u+90FfwSue8AENELGh1fO/H8lvGrlt9yY/iKWcKhQLEYy5cUPB5Al/9VqZ1aIvkX5Howp23b/6eCXyHEu2TYzPzd6enxv5Tj+R1fvXnpdPo2IvqczP6ISGqehHr5zedt1x0AAGUXxlLpeOjI81vGr1p+y7y9x5nM2LIB3KKkQOmPbdkzICHEC/2uSA3VMsm/oyPSC+BAlxju6Oj4a7P9Ft5tP0cC/xiz/ZFGxdco3s6dOz8FidfqALwoGo0+rdl+g8HAX+B+itaeWCx2YCWe3/G1A89vGb9q+S3ilV75r3h7q9zgL85kxvIOOz/anyrUVi2T/AEsBAIB16P/Adw5PDw83my/Qoizy2xfRvyVmZmpnY2Kr1G8sbGxWWb+tMSuiYiqjt+pt9/JyZ1PAPiP2/JCiCMr8fyOr9V5fsv4VctvuVURM5kxx1eIRVGhXXLqKRTkdaGVVlBLJf9MZoyFEAe4ZTHzXxXx+1KJXTyxsLDwzQbH1zBeKBT6MYD73W5PROep4JeI/uCWwczPrMbzO75W5jFzQLacrn7hfbVULf1W4JWdtt1pdGClOd6f7qXiWkAtl/wL/97PLY+I/tVsv7FYbC2Ak93HjO/OzWV3anQ8pHjj44/bzPbXJIodHo/HDyzHa5RfZv63BGr/RsfXZjxP0sEvM0vOEaK3Xwde6Ri+FVoxMUC5DTdu3CgAuJ6Yo4XUqskftm3v55bJbN/TbL9CiFMhMfHPwkL+Ep2OhxceEV0GubUCXtRsv8x8rwRuP52Oh2Y8T9LIry93ADTyW6p8NZ4AFhN/tQ3/9a9/dXuvQm31dyGEptP7VucRkes7OrbNdzXbr23bJ0rs6g9btmy5vZHxNYM3PT3xCICrZBDN9svM90gg9290fG3C8yTjVxu/rniur6YeffRR6RXJNNffhRCnjoyMPL70gWoHzwfefm7Z4XCouAPQFL9E5LoDwMy/anR8zeIx8+VuGcx8YjVevf2GQiGZOwD7rF69RlTi+R1fG/A8yfjVxq9rnusOwNjY2CwkFyPRWC2f/M8///wQgKe4xOcmJnY82ky/sVisFxJTUAcCgWsbGV8zecx8vQRqr0QisUcz/W7evPlhuF/dMJDNzq5pZHytzCMiT+dwTf16fmtAU7/SPNlBEo9Lbq+jWj75A8DDDz+8B5yXeXbSY9V49fYrhDgELp/pMfOjIyMjf29kfM3kjY6O/hcSr9bNz88f2WS/DOA+t/xQKLR7g+NrWZ4sS2e/RGTLsnT264Une7vkTgB7ygaskdoi+QNAIBDosW3Xv49Hm+2XmQ9yuy0R3QSXvX9VjocPvJsAuKojZj4vEul/akmd5QEgHo/LhginV8uq8ZjZ9ZWobfNuDai/tuDJHl+d/cLDHQCd/XrhyXYAbgPwfNmdaKK2Sf4AwMyuB3US0SMK+HXdAWDmW5sQX7MHdN7K7HoXryr8FdeZbHgV5SePiFbrdjxagVeQsvFV48ViMaXjazYPkHgEsPhepX2jl51ooLZK/gBg23bE7b6YeaLZfgHs43ZDIqraAVDteNTKs23bVadHRxGR67a6pGYfD915BTnlByXiM50dX/y6uwOwtHPb5t8FfJtHShm1XfIvSOa1TrcDturpt1+iyINNiK+pPCJ6QHY/usi27bDM9iocD515T2pFUSXiq5Nfp/FFSsRXD79Ls/9WvQNQvKrQ448/8m8A//WyQxXFzH9r0+Qv9QgAEh2AevklIteTUBHRZDWe3/E1myeEkL5Lo4uEEB1ut1XleOjKqyAl4quj39IOgBLx1TP5A1U6AEXJnwAgEulmZv6ll52qJmb+WyAQeFE7Jn8AEELI3FZ11QGos1+ZWSgdOwAqH49aeQsLCy3bAXB7B0Cl46Ejr4KUiM/4rd3v4OCAQFFnp9odgBXfBwKBH6DC4gI6qN2TPwAQkczDnKqv39Xbr+S83vlqPL/jazZPCNGyE3URkds7lcocD914ziJl4jPJv3a/heS/S5nMWPmT6uDgwK4r/+Kdj4yM3ALg514CUEEm+S/ybNuWmRCk4tV3g/xOuy3PzL1NiK+pPCGEzBgJ3VTxDpSKx0MnXgXZKsTXIL+sSnz14JXJ5853AEp7CqWVw8z/Dx4nlWimTPJfxsu5LVPp+XsD/U5KYHZ1ADQ6HjXxbNvuk923RirbVlU9Hrrw/JbGfquuh6Oj3wLPadVfhsMXK54RFLRsVaF0Ov0fZv6RbDDNlEn+y3nMPC9Rdz3VePX2y8xTEvHu0ej4ms2zbXsP2f1rJMcOgMrHQwee3zJ+1fJbOoZvScUs4VCgWIwySwoy88cBZH2rzTrKJH/HZ+ozEsV7qvHq7ZeItrtlCSEO1e141MoTQhwmW0YXObVV1Y+H6jy/Zfyq5bf47b0icSYztmz8XrCkQGkHoOwzoNHR0f9alvU6KD4ewCR/Z14wGHhcYrK2nmq8evslojvczi7HzIc1Oj4FeM+QKPJ7AP+sso3T48FaBv+W8tbB5WJUzLxsDRJNjoeyPL9l/Krlt4S3q3xp8keZnQIOPQUnpVKpX1iWdRSAD3iox7rLJP/yPNvmh4lcra0DFHUAmuXXtu073MbLzEc1Or5m84jo2RIdpM+l0+l0M/1GIv0nwGUHQAjxaDWe3/G1Ks9vGb9q+S3D40xmzHHQtygqtEtukv+Sjj766AsBXCEbaL3VyORPFIxEIv2nRiL9r+ju7rO6u/v2U7gxAMBCR0fHoxKopj9TDwQCd7jlEtH+PT39T2tkfM3khUKdq5n5SLflhBB/r8RrhF8AT3fLCQQCjzU6vlblOS3c5FWq+4XL1UNbxW8FXtl87jQ6UOo238aNG+1cLvdyADfLBlxH3diI5N/Xt3qvSKTva93dkQcBXAXgB0Q0TES3x+PxmyzLOl2G53d8lXjDw8M5AG4nj+mOxWJPbWR8pR+OjIw8AsD1dLf5vH1qI+NrJi8c7jgR7tf1mEgmk/c00+/q1XvsDsDtRFS8++67P6bT8dCM50k6+JWcO0R7vw68smP4lrRiYgAvlTM/PzOZzU4PENGvvJT3WT8Nh8Mn1Tv59/T0H5nP238G6E0Aukq3YeZjAFxlWdanUKUn2sTG5XpNdiHEoU2Ir1T/JxHvuibE1xQeM6+TKH5Ts/3Ozs7uJ4Hbftddty80Mr424nmSRn59uQOgkd9S5avxBLCY+GucVzjIvJCdmtp5LsAfRXNmCrSZ+X2pVOqVw8PDu0YN1+vKnxmjcLdC3Ycsy/rfavXnZ3wSvHvccm3bPrgJ8ZXqNxK7Oqurq3e3BsfXcF443NVNRGdLIK5utl8i2k8CeU+j42sTnicZv9r4dTeDqN+VMz098VkhRBzA456g3vQYM69Lp9Of97NyyvnN5/MfhcTytAAuisVia93Unx/xSfDucU/ng5oQ3/IImMckdhciolc0Mr5m8ILBoAXA9SRARHR1JV6D/O4ngXVafEzZ46EJz5OMX238up9BtB6VMzIyMprL5Q4goo/B/XNmLxonoo8y8wHpdPoqvyvHiRcOd3UD9GrJ4j1EdF4j4pPhEdHdbvlE4uBqPL/jK1U6nb4NwC1u9ymEeEsikXA16EmF4+GFJ0TgrRKYh5PJ5N8U8Lu/Wy4R7nbB8zu+luURkcwU4Lr79fzWgKZ+pXmeOgBudr5169aJZDK5UQhxADN/Dv5OGjRNRJ9ZWFjYP5lMfiKdTi+bJraelR0IBJ8Hh2f+bjCNiE+GZ9v2rRK7OajR8TmJmX8mse3BuVzupY2Mr5G8SKT/Rcx8rARqGAA32y8RuY7Ztvm2RsfXyjxZls5+icjTo2hd/XrhSXcAPIzefjydTr8/HA7vy8znA7gWEvPQFykHIAPgDQsLC/smk8kPXXHFFTvqWTlOPCGEq3eXHbR3I+KT4QWDwb9J7OoQIcLdjYzPSUII2YmnPlzpLoBKx0OWB+CjknX3/Wb7TSQSXQAkXlmkv1fi+R2f4bUODx7uAOjs1wtP6nlJLTsfHh5+AsB3AXw3kUh0zc7OPl8IcSyAg7H4THAVFp9lMoAJItph2/bdQog7bdv+S0dHx5+KB/c1q7JtOz8phKdXaSdVawybN2++37KsJwCscbG7UFdX1/Ox2AlrSHxOvKmpnfd2d/f9nohOcFns8FwudwGALzcivkbxIpH+8wA8XwK3bXJyx9+b7Xdubu5YIgq53MW8bef/3cj4DG+FlI2vGi8WiykdX7N5gEQHwM+dDw8PzwwODlwP4LeqVk55Ht0syyron42JT5r3NwCnuNmQmU+Cyw5APY8HEX0ZgNsOAAB8fP369b/csmXLA048v+OrN6+jI7KKmb8gMZMjAHxHBb9EJNNpuTWbnZpR/Xi0Iq8gpzvESsRnOju++HX3CEB1M43kjY6O3gXgRlkmEf1SUb9/lvBwYhPic3j1LbAFgOuZAQH0BAKB76PwXrDO7S+TGeNAIPANIpJZ/e/B2dnspYr4fYHErm7Q4Xi0Gu9JrSiqRHx18uvUm1Yivnr4HRwcoMHBAaraASjs3OmetxJmmvQe84WS2F9PTe38bTleM/0S0fUSmx+XSCTCjYzPibdjxxM2EX1BEnV6LBa7UPf2F4/H/5eIzpVhMttfzOfnc068RvtlZtd3AIjoukbH1+68ClIivjr6Le0AKBFfvZL/0r+Fiw1XrCesiplm8ZLJ5DXMvNEl9t58fuF1qvrN5eb+CPeDMrvm5uaOrcTzO75yvD333PMHAG6T4RHRxu7uvjMbEV89eJZlHcfMX5bEbifC91TwG4vFDpW5c2HbtlQHoFXOL83iVZAS8Rm/tfsdHBwQKMrn1e4AtM0zIFleOp3+GBG9EZXnOdgK8Amzs9Pbq/Ga5TeXm5mB3GOAgUbGV463adOmeSHEeySxASL6RWdnz3PrHZ/fvKGhocOxuOhWhwzXtu0PTU9PzpTymuR3g8Qub0mn09vdbtzs84HuPGeRMvGZ5F+730Ly36VMZqz8YgmDgwPmyr8KL5lMbrJt+0AieiczbyGivzLz/wH4BjOfMj09bk1PTzyiul8ijLkty8yJRsdXjjcyMrIFwDWS+J5AIJDu7u47vN7x+cWLx+P72bZ9NQCpqY2Z+fePPbb90lJes/zKTFksc/tflfOBrrwKslWIr0F+WZX46sErk8+d3wIo7SnAxapCOldOLbzR0dHHAHyl8KdcfG54ts3XEtGH3ZQnoiOj0ehho6Ojt6rgl5nfQkQ3w/3qcgCwOxFd393dFwPw+3rGVytvaGjoSNu2t6Iwj4SEFpj5gkikm4t5fsfnlhOPx/dj5udI7PraRsbXrjy/pbFfT+vhqO63wHNa9Zfh8MWKZwQFmeTfwrzdd9/tD5CYqVEIca4qftPp9H+I6F2y+wKwhogysVgs4bZAE575n27b9m8gn/zBbH9yZmbyH/WMTxIns2CRDVS/K6VC+9OZ57eMX7X8lhvDV8wSDgWKZa7824B3ySU/yAH4nQTuZSr5TSaTmwCMyu4TQCcR/dKyrK+feeaZFZ+tN9LvwgIC8Xj80wC2QmKhnyJd19ER+my94vPCY+ZzJDbflkwmdzYyvnbj+S3jVy2/Zd7e40xmbNn0yKKkQGkHoCWfARmeI+8KCeQhnZ09x1bhNdSvbduvA1YsHONWbwmFQjdEo1HHNxwaeTx6e1c/s7+//zfM/EF4W8/8ESK8dseOJ+x6xOeFt379+n0AHCdRpGJbbJHfW9N4fsv4VctvEa/0yn/F2gjlBgFyJjNmrvzbiBcOh38GYN4tNxAQL63Ea7Tf0dHRx2zbjsLj6pNEdKQQ4k+WZW0aGhraNdiuUccjFOrqjkT6v2jb9jbITfFbrJl8Pn/21NT4Q37HVwtPCHodJDozRPTjRsbXTjy/Zfyq5bcMjzOZMcdVIEVRoV1y6ikoZMbw6sAbHh5+FIu3nF2JGefZNjpV8jszM3mLbdsvB+BpyVMs/h7eYNv2PZZlff6ss87a28/4nPx2d/et6e7u+0g4HL4bwDvL7M+NbNu2Xz07O3WDn/HV6re7u6eLSLzJbRlm/l0ymbyzUfG1G4+ZPS1koqNfeLuDpq3fCryy+dxpdKBJ/m3Kq3Tl5bDtHr29/a9UzS8zd0LiTkYZ9QB4TygUujsS6f9RV1fv6eFw59KJs2a/09NZ6urqHejpWbWJiO4koo8AWF1jzO+emZlM+hFfiWriEQVeAolBjET0o0bGZ3jepINfZva03L2ufh14VcfwrZgYoI0qx/BKFAqFRgE8IbGrt2cyY7Lh1c1vJNJ/QSAQ+CWw685EreoAcK4QYjQU6rg7EunfFIn0n2dZ1r6y8fX09O8TifS/NBLp/9aee+59pxDiGmZ+DeReX3QSA3jb9PT4N2qtP4evauYR0QUSRWdyudwvK/H8jq/NeZ6kkV9f7gBo5LdUVR/jBwHviV/zyjG8Eg0PD+csy/o5gDe73N2hQ0ND6woT8jTN75o1u4Xn5ua/AOCtsuUltBeA1xT+YFnWDixORXwrgO3MPAVgkogYQC+AHmbeg4gOA3AoM3avQ0x5Zn5DNjtxaS31hzq1v+7uvhcy89ESxUe2bt06UY7nd3xtzvMk41cbv654NVWUamYMr3YeEf2Imd12AGDb9rsBuOoA1MNvONzVOze38FOA1suWr1GrARxf+IPT0rySy/XKaoKIXj09PX4FFG1/QogLmN1jSm//q/j7aBGeJxm/2vh1zfP8jERFM4ZXOy+ZTP4Zi1e1bjUQjUaPaYbfUKjzqaFQ+DoAjU7+zdZttp1/wdTUTmWTf1dXzyHMHJVAPHDUUUdlGhVfu/KIyNMAWU39mjvbVeSpA6CqGcPzh0dEX5PZXgjx8Ub77e7ue3Y43PF7ADLTy7aChufmZk+YmZm6HYq0FyeeEIHPwHkZcUcx8zc2btxoNyq+duXJsnT2S0RmQHsVSXcAVDZjeP7wZmamfwzgIYli62Kx2IsbFV9nZ88gEf0GwNNky2usRwC8dHp6/BULC3MTUKi9lPK6unpfCEDm6n8HgK83Kj7Daw8ePNwB0NmvF55UB0B1M4bnDy+fn88x21+QKUtEX0okEgEnnp/xdXf3vjYQCFwBoF+2fEHzzPy/AC4CMOOR0UjZAH7MbB85PT0+UvhMqfZS/NnU1DQFAoGLZDhE9LV0Oj2py++jXXgFKRuf4dXGAyQ6AKqbMTx/eUT4HgDX67EDeNbc3Nwb6hlfd3ffJ4jE9wGEZMsXtJOZT0+n09+enh7/YD6fP4yZvwePt0YboF8T4XnT0+Ovz2YnH6+1/tCA9rfXXk89m5mPlUBNzs/Pf1W330er8wpyyg9KxGc6O774dTdiUnUzhuc/b3p6cqa7u++LRPQ5CdTHE4nEz3bseHTCz/jOPvvsjoWFhe8DeIVs2SLdI4Q4a2Rk5N9Lfmdnpx4C8OZIpP/LRPRxZh5CDQNjfRIDuDKfz391dnZqzI/6a9x0xp0BZv60JO4bc3PTOxsRn+HJakVRJeKrk1+nV3aUiK8efpdm/616sits6DSYRwkzhlc/XkdHx7cAPO6WRUR75HK5D/sZ37p169bMz89fgxqSPxH9hZmPL07+xd9PT4/fMTW1M8HM+xLR+wHc4nVfNWgHgIvz+fxh09PjQ7olfwALoVD4PQD2k8BlQ6HQlxsVn+HVJCXiq6Pf0g6AEvHVM/kDVe4AFCX/tqgcw1vBm7Is68sAPimBfUd3d18ym534c63xRaPRA4QQVwI4VLbskogolc/nXz46Opp14fdBAJ8D8LloNHqsEOLVAM4BsNbr/qtoB4AkEQ3vueeembvuun0BmraX3t7VR9i2/VFJ5Hd27nxsh45+W5FXQUrEZ/zW7ndwcGDpop+B6o8A2uYZkOE583K53MXhcPgCAHu6RAeFED8Mh7uem8vNZL3GF4/Hj2PmtMR+V4iIvnrUUUe9a+PGjbZs/Y2Ojv4FwF8AvDUaje5PRMcJIY5n5uMAHI3FaYJlNI/F5YpvJKLf2bb9+2OOOeafrfDq2+rVe4RyudyPITc2Y4oIX9bRbyvynEXKxGeSf+1+i5I/gMUZgIMVNjZX/oaHrVu3TliW9V4AP3IFB8DMB4VC4c/mcjNv9hKfZVlDzPxTAF2yZQuyAbwzmUx+LZlM1lx/o6Ojd2Mxef8cWByTMDc3d3AgEHgqMz+FiNYw250AdQCAEGIKwCSAKWZ+yLbtOzs7O/87PDy8bBKWdDotfTzcqNG8eDy+EcARclT+2NTUxMM6+m01XgXZKsTXIL+sSnx14i278l9SsEyBFasEwsXCAhpXjmfewMBAsL+//83MfAYRHYnFkfN/XVhY+OLc3PR/mh2fH7xUKvVjy7JeC2BAYldvikT6kwCulonPsqx3AvgCvA/GyzLzuelCdq1H/Y2PP25jcR2A2/zg+R1fI3mWZR3HzO+TxP5tfj73dR39thrPb2nsl1WIr87Jf4VX4VBAYOWVv0n+DorFYk/p7+//PYCvEtGZAJ6CxdvD/xMMBm/q7u57dav4FUK8GfLL7F6SSCTWuNkwkUgE4vH4xQC+BO/Jfzszn1zP5G94T/ISiUQXFu8Myawxz/l8/q253Gy+lKe631bj+S3jVy2/5cbwFbOEQ4FimSv/8iIiugTA88p830VE3+ru7nt2K/gdGRn5NxFJTQ4E4Cm5XO6HGzdurJjQTzvttEgulxth5lpW87slEAgcl06nb1Sx/lqRNzc3931IDtBk5u/Pzk7doKPfVuL5LeNXLb9l3t7jTGZs2fTIoqRAaQegJZ8B+cGzLGs9gNOrbBYkoi+74anuFwBCodAnsPgsXEbRbdu2lX03fMOGDXt3d3f/BnJTxy4TEV0XDodfsHnz5ntVrr9W4lmW9SEiOleGy8yPzs/nLtTRbyvx/Jbxq5bfIl7plf+KtRHKXZlxJjNmrvwriJlf6HLT4xOJRFh3vwAwPDw8w8wXyMYA4P3xePy80g+Hhoaelc/n/8TMVVcTLCci+tGee+55xvDw8Ljq9dcqvGg0akHu1dAlvX9+fnZHKU91v63E81vGr1p+y/A4kxlzXAVSFBXaJaeegkJmVOE92+V24Vwu5+o2qeJ+MTg4QNnsxNXM/AvZssz83aGhoecv/b9lWYO2bf8OtS3o8/+SyeRrNm3aNK9L/enOsyzr2UKIS+E8c1ol/TqbnbhUN7+txmNmmfEaWvuFfBvV2m8FXtl87tRTqGV2IR0rxxOPiFxf1TNz1XfGVfdbzMvnF94cCoWfw8wHSSA6bNseiUajzxNCvAjAd+B9Tv8cEb0+mUz+RMf605UXjUZ3B5AG0COJfygQEK/RzW+b8DxJB7/MLIj86QPo4NeBV3UM37ICJvlL8XzrXWridxdvbi47GQqFXgbgdwA6JVBrhRA3ANirhuraSURDyWRyTNf605F35pln9gkhtkBuql8AyDPzKyYmdjyqk9824XmSRn59OUdr5LdUVR/jBwHviV/zyjE/php4U1Pjf+3u7ruAiDZJImtJ/nfbtn3W6OjorbrXn068WCzWS0RXAThOlg/w/8tmJ36nk9824XmS8auNX1e8mlY+U81ME3mepLHfhUxmjNPp9HeZ+VJZrkf9WQhxvEn+jeUlEokeItoK4PlS8EVduX37Q5/XyW+b8DzJ+NXGr2ue5w6AimaaxPMkjf0u483Ozr4JwL/9qpcyGgmHwwMjIyOPNNtvO/EK8zNcCeAEWT6A+5n5dT09kXld/LYDj4jysiyN/Zo721XkqQOgqpkm8DxJY78reNdcc820bdsJAFm/6qdEXz766KPPGR4enlHBb7vwotFod1dX1xYAJ8ryAcwT0cuz2YlHdPHbLjxZls5+ici8zVZF0h0Alc00mGcGTBY0Ojr6LwAJeDzBlFGemd+WSqXetbRinip+W523YcOGvQOBwBiAAVk+AGbm/5ma2vk7XfwaXmvy4OEcrbNfLzypDoDqZkxPunm8VCp1JTO/BjXcdivSNIChdDr9dVX9tiovFosdnc/n/8zMx8ryAYAI78pmJy7Vxa/hVZWy8RlebTxAogOguhnDaz4vnU7/FMA7ZPddoseJ6ORUKjWqut9W41mWNUREvwWwjyx/UfzJqanxr+ri1/Cqyik/KBGf6ez44tddB0B1M6rzsPg+qrLx+clLpVJfIyIv08QuaTUzx4oXEFLZb6vwLMv6AIBfAYjI8gGAmb8zPT3xUV38Gp4brSiqRHx18us0Z4AS8dXD7+DgAA0ODlDVgW2FnTtNH6mEGdV5AFBm+k0l4qsHb2pq58cjkf49AZzvoboEgI9u27btxLPOOuvluVx2u+p+deYlEon+ubm5bwGQWtinRMMHHLD/W77yla8q79fwPEuJ+Orot7QDoER89Ur+S/8WLjZcsZ6wKmZU51WQEvHVkxcOBy5g5strqKNTQqHQzZFI/4t18KsjLx6PD+Ryub/LrupXol/vttuaV37lK1+Vfr1M9/prNV4FKRGf8Vu738HBAYGifF7tEUDbPAMyjctf3o4dT9hTUxPnAfhBDXW1FsDW7u7e/7d69W5L6wYo6Vcn3urVe4Qsy/o8M1+LGhZjIqKR8fFx65JLfpBT2a/heRUpE585P9fut5D8dymTGWNRYWNz5W8aV008ITCXSqVeB+DTNdSZIBIX5nILN3Z39x2nsl8deJFI/7NyudxfALwHNUwExszf2W+/pyfGxsZmZMvqXH+tyKsgW4X4GuSXVYmvHrwy+dz5BFDaU2j1yvGTV0FKxNcMXiqVupCILkCFZSld6HAi+o1lWZvWrVu3WmW/KvKECHf09Kz6OIC/ADhCllssZvv/ZbMT/2tu++vP81sa+/W0Eq7qfgu8Ffl8iSUcCix7RlBQ1VWFNK6cujcuImr7+ksmkxcXnjVL3y4uEgF4QzAY/Hc8Hq/63LqV6s8rb2pqmnp6Vr2iq6vrdmb+MICqS1NXUB7AG7PZyU+o6tfwmifjVy2/5cbwFbOEQ4FiMUzy90NNj08FXjKZ/CUznwFgQnZ/JVrLzJdZlvXHWCzmNEhQCb/N5nV3952wdu1T/sDMPwCwtyyzRDPMfM709Ph3VfVreM2T8auW3zJv73EmM7bsLmzpu9alHYCWfAZkGlfzeOl0+npmPhHAf3yoquOJ6JpYLDZmWdauOetV8tsMXnd37+E9Pat+RkTXA3iOl4ot0f3M/OJsdiKlol/Da66MX7X8FvFKr/xXPIItNwiIM5kxc+XfBKnu16cZA//OzMcw88/8qDMiOhnAb+Lx+DXRaPT5qvltFK+rq3cgEulPEYmbmfns2mp1l7YEAuI52ezEH1Tza3jmfGX8uuJxJjPmOF5HFBXaJaeegkJmlOH5LdX9+slLp9OT2ezEKwC8ET6tJMjMLxZC/CES6f9jd3ffqyOR3i5V/NaL19HR2dHV1fuSSKT/T0KIawCcCedZzWSVY7bfPT09vmFiYsejqvg1vNp4ZSYl8yTV/cKf34E2fivwyuZzp9GBJvk3Qar7rRdvenr8B8z28wH8q9Y6LNJziOi7gLi7p2fVZ7u7+w5Uxa9fvHg8vn8k0vfBYLDjNiHEpQCO8bH+7gJwUjY7ebEqfg2vbjxP0sEvM3t+zVVHvw68qmP4lhWocWpB3SqnVp5vvUtN/NaNl81O/jsS6Xs+QF8E8AbvNblCa5j5XUT0zng8fj0zb87n88ktW7Y8oGP9bdiwYe+FhYWXENG5zHyczxc4Sxqem5v934WFuYlm+zW8uvM8SSO/vvxANPJbqqqP8YOA98SveeWYH5NCvOnpialMZuz8aDR6hRDiqwCeLl+bZUXMfCqAUwOBwMXxePxG27ZHmHlkdHT0VpXrLxqN7i+EOA3Ay/L5/ElE5NtVTYketm37/TMzk0vjMpRuL4ZXM8+TjF9t/Lri1VRRqplpIs+TNPZbN97o6GgqGo3+WghxIRZnqwvL7qeKiJmPJaJjiejT8Xj8Dmb+HTP/MRAI/Omhh+6/racnUuqtYfU3NDR0uG3bJwE4CcCJAPb12X+p8gB/SwjxsenpyfFG+zW8pvA8yfjVxq9rnufKUtFMk3iepLHfuvNGR0ezAC4cGhr6ETN/nZlf7GonHsTMBwM4mIhea9s21q59yjiAPxPhBtvmfzPzf4LB4J0AHvfT79DQ0J75fP5gIcTBzHwQgGcw8wtt296jXl4d9AciXDA1NfH30vhkQa3U/lqZR0R5Zvkbvpr6NXe2q8hTQlPVTBN4nqSx34byRkZGbgdwmmVZ5wD4MoB9ZPftQf0AXsyMFxMRiAi2bcOyrAlmvpuI7iKi/wKYZOZpIppm5qml/xYYvQVOLxF6bduOANRLRKsAHGRZ1sG2bfcREYpPxkR1eabvpEcAfOiRRx76SSTSXVz/WrcXw6vOk2Xp7JeIzID2KpJOaiqbaTDPDJhsEC+VSl1+2mmnbe3s7Hx/YU2Bftk4fFAfER0J4MjipL3073JXVcxA/R7bS2uaiL6Tzy98ZmZmajwS6S7+rmXai+GV58XjcaXj85MHMwNrVUmdmVQ3Y3rSrcu75pprprPZif83Nzd7ALP9ESxexRq50w5m/oQQtN/U1M4PzMxMjZd83/Tja3jq8QpSNj7Dq40HSHQAVDdjeO3BW1iYm8xmJy8C7IOJ8E4A98my2kjbiej9zPz0bHbi/01O7hx32Eap42t4avAKcsoPSsRnOju++HXXAVDdjOo8LL6Pqmx8OvKmpydnpqbGv7p27doDmfl/ANwuy21h3QvgrePj4/slk8nPZbMTU9Ds+Bpe83hPakVRJeKrk1+nAThKxFcPv4ODAzQ4OEBVxwAUdu40faQSZlTnAUCZ6TeViE9/3tg8gEs2btz4w7/+9a8nE9F5AM7B4kC8dlIWQJKILg2FQtcMDw/ngVY4vobXSF4FKRFfHf2WdgCUiK9eyX/p30EXG65YT1gVM6rzKkiJ+FqJt3HjRhvA9QCuTyQSb5mbm7MKnYHTUKWdaywbwPXM/BMAm9Pp9GTxl610fA2v/rwKUiI+47d2v4ODA0t3/RmofmJsm2dApnG1Dm94eHgGwM8B/HxoaGhP27ZfRkSvZObnok7z5zZSzPw3AD+1bfuyctMaq3Q8DE99nrNImfjM+bl2v0XJH8DiDMDBChubK3/TuLTnjYyMPDI4OHAxgG91d/fuRiROAvgUgE4BcKhsbE3Sf7B4pX8dgOvT6fT2RtWf4bU+r4JsFeJrkF9WJb468ZZd+S8pWKbAilUC4WJhAY0rxyT/NuBls5OPAxgp/C309a3ZK5/PnwJg6U961cA66T4ius627euJ6LpUKuX6TQedjofhNZ/ntzT2yyrEV+fkv8Jr0KGAwMorf5P8axARmfpTk/cQgMsKf1i3bt3qYDD4LADPLvwdCmB/LM7H79s66gXZAO7H4oj92wH807btf9m2/Y+5uentmtSf4WnM81vGr1p+Swbw7ypfzAo6FCgWo0VvAzW4cTU9PsOrzrviiit2APht4W+XBgYGgqtWrdo3n8/vB2B3IuwGYHeA1hBRBxYXLFr6LwDkmDlHRHPMPENET2BxLYHHiegxAPetWbP6vv/+926WiU/1+jM8fXh+y/hVy2+Zt/c4kxlbNj1ysKRAaQfAJP8mSHW/7cYLBpGfmtp5Pxav2H2Jb2pqp7J+Da+1eX7L+FXLbwmv+Mp/xdoI5QYBstPGCphRjue3VPdreIZnePry/Jbxq5bfMjzOZMbyTtuLokK7ZJJ/c6S6X8MzPMPTm1dmUjJPUt0vEeUlNq+6vovqfivwyuZzp9GBJvk3Qar7NTzDM7yW5HmSDn6JcIfb7Zn537r7deBVfXtvxcQAsjvWuHJq5fk2oYwmfg3P8AyvtXiepIvfqanxBwA86KYMEf1Jd78OX1V9+ywIeE/8mleO+TEZnuEZXrvyPElDvxcC+EGVYtenUqlrWsSvFM/1csA6mGkiz5M09mt4hmd4+vI8SUe/09PjPwXw3XJlmPkuInodHF7V1tGvLM9zB0BFM03ieZLGfg3P8AxPU57kwDjt/QJYSKVS5zPz2QD+DGAWWEz8zPyV2dnZI5LJ5D2t5FeG5ymhqWqmCTxP0tiv4Rme4WnMk2Xp7neJl06nNwPYPDAwENxjjz0iw8PD4yrF1yyedFJT2UyDeWbApOEZnuFpxYvH40rHV2/e2NjYAgCT/AuSegSguhnTkzY8wzM8w/OHV5Cy8RlebTxAogOguhnDMzzDMzzD84dXkFN+UCI+w6uNtyRXjwBUN6M6D4tzBigbn+EZnuEZ3kqtKKpEfIZXG6+IWf0OQGFDp+kjlTCjOg8Ayky/qUR8hmd4hmd4LqREfIZXG6+ICaBKB6Ao+ZfOeqeEGdV5FaREfIZneIZneC6kRHyGVxuvwBQoyufV7gCYZ0Dmx2R4hmd4Lc5zFikTn+HVxiswV0z9H6ywsbnyN8nf8AzP8FqcV0G2CvEZni+8peS/rHywTIEVqwTCxcICGleOSf6GZ3iG13Y8v6W63zblOa36y3D4YsUzgoJM8q9BRGTqz/AMz/CU4vkt1f22KW/FnfxiVtChQLEY5jaQH2p6fIZneIZnePWS6n7blFf69hlnMmN28QeipEBpB8Ak/yZIdb+GZ3iGpy/Pb6nut415pVf+dum25QYBstPGLVY5vvD8lup+Dc/wDE9fnt9S3a/hAVjM546rQIqiQrtkkn9zpLpfwzM8w9ObV2ZSMk/Swa/hAQDK5nOnnkItswvpWDkm+Rue4Rleu/I8SWO/7cSr+vbeiokBZHesceXUyiPZcpr7NTzDM7zW4nmSxn7bjVf17bMg4D3xa1455sdkeIZneO3K8ySN/Rqeg1wvB6yDmSbyPEljv4ZneIanL8+TNPZreGXkuXGoaKZJPE9Sye+ZZ57ZEQ6HBwA8B8C+ePLxhlMH0QYAy7K82PaDNwlgWz6f/83s7NR2FerP8OrD6+rqfYYQ4gQiPIsZnYWvmt3+VvCY2SbCf5hx47ZtN/3mvvseUKL+nHhElGeWv+GrQ3txw9u4caN48MEHA5s2bZpXMb5G8zwlNFXNNIHnSSr5jUajxwghfgzgmX75a4QCgcBMJNL/kXA48PUdO55YGuWqensxPBcaGBjo6unp/zQzLgAgPOSrhoqICv8FnvOcY6879tjjXrd58+Z73ZZv5PHw4k/19lKNl0gk1uRyubcD2LBt27ZDAYQsy9oO4FoAX0ulUje0kl8ZlvQjAJXNNJin/YDJ9evXHyyE+C00S/4FdQH4Qi638CG3fp2k0vEwvEVeX1/fD5jxDtT4iLIZYuZT8/n87xKJRL9bv1D8eOjMsyxrMJfL3QHgowCeBSBU+H4tgJcD+JNlWV8dGBgItoJfWZ7UD0x1M6YnLccTQlwCoNuLF3VEH+ztXX2Y6u3F8Nzxurp6hojopbJlFdM+uVzu8278QuHjUZCy8VXjDQ0NnQxgK4A1VVAXrFq16jv77vtUobNfWR4g0QFQ3YzhyfHOOuusvYjohbL7VVAh27ajsoVUOx6Gt8gTInCObFlFdbYbvw5fKXE8CnLKD0rEV40XjUa7bdu+rMw2K8TMrzvqqGPOLsdT3a8sb0muOgCqm1Gdh8VBdUrF19HR8VwPPlTVMTIbq95e2pz3HNnyimpNPB7fz4XfYilxPJ7UiqJKxOeGJ4R4LYCnyHCFEB8qx1Pdrxfm4OAAVe0AFHbuNH2kEmZU5wFAmek3mxofM+/uxYuKkvGiensxPOwmy1BVtm2vaJeqH48KUiI+CV7cg8ejenr699HUrywTQJU7AEXJv3TWOyXMqM6rINXja0mp3l4Mr7Wl+vGoICXik+Qd5MUoMw7Q1K9bpkBRPq92B0DbZ0DN5lWQ6vG1pFRvL4bX2lL9eDiLlInPA8/rokdCU79umCum/g9W2Nhc+bdo8h8c9HdVMNWlensxvCd5siwdpPrxqCBbhfg88u7G4qRmcoZt+z+a+q3GW0r+y8qLMgVKP2fFzCjLqyAl4jNXXruk+vEwvBZQu9WfKn6J6AoP4d8+Ojp6t45+q/BW5PNdgyUdCix7RlBQ1VWFNK6cuv+YiEj1+mtJqd5eDK82ngZqq/pTqb3Mz89/F8AOmf0x80W6+q3AW3Env5glHAosqxOY5O+Hmh6fSf67pER7MbzaeDpIxbd/6iXV2ssVV1yxg5lfL7HLdEdHx4909VuGV9r+OJMZs4s/ECUFSjsAOj8DahjPb5nkX5tUby+GVxtPY7Vk/anaXtLp9GZmfiWAuSqb/mpmZublw8PDeZ39OvBKr/zt0m3LJQV22rjFKscXnt9SfVUw1aV6ezG82ngaqyXrT/X2ks1OXNbbu/ovzPYHmRHDk9MC55n5dwC+lk6nR+DyLq3qfsvwOJMZc+zcFC+AsEsm+TdHZrR1bVK9vRhebTyNpUT9+f32j+rtZYk3ObnjbgDnr1695k1TU9k9Ojo6O3fu3Hn/2NjYrArxNYBXNp879RRqmV1Ix8pR4mTUaL/xeLzZln2V6u3F8GrjaSwl6s/vx4CqtxcnXmHZ8Ae2br1KyfjqwKs6hm/FxACyO9a4cmrlkWw5Xf1qImXrz/Bq4+mqVn37R/X2Yni7VLX9BQHviV/zyjE/ptaRU2dMifozvNp4mqvp9ddu5yvDk+O5Xg5YBzNN5HmS6n41lhL1Z3i18dpN5nxleI3mee4AqGimSTxPUt2vxlKi/gyvNl67qZFv/6gcn+E1luepA6CqmSbwPEl1vxpLifozvNp47SbV3/5Rvb0YnneedAdAZTMN5rXkgEmNpUT9GV5tvHaT6sfD8FqbJ9UBUN2M6UnXxtNYnl5fVf14tCmvbaT68ShI2fgMrzYeINEBUN2M4dXGazepfjwMr7Wl+vEoyCk/KBGf4dXGW5KrH5zqZlTnoc1WBVNdqrcXw2ttqX48ntSKokrEZ3i18YqY1e8AlFlVSBkzqvOA9loVTHWp3l4Mr7Wl+vGoICXiM7zaeEVMAFU6AEXJv/TZnBJmVOdVkOrxtaRUby+G19pS/XhUkBLxGV5tvAJToCifV7sDYJ4BteiPqd2kensxvNaW6sfDWaRMfIZXG6/AXDH1f7DCxubKv0WT/6DPq4KpLtXbi+E9yZNl6SDVj0cF2SrEZ3i+8JaS/7LyokyB0s9ZMTPK8ipIifjMldcuqX48DK8F1G71p7rfNuWtyOdLLOFQYNkzgoJUX9VKCV45teqqYKpL9fZieLXxNFBb1Z/q7aVNeSvu5Bezgg4FisUwt4H8UNPjM8l/l5RoL4ZXG08HtdPbP6q3lzbllbY/zmTG7OIPREmB0g6ASf5NkEn+tUn19mJ4tfE0VkvWn+rtpY15pVf+dum25ZICO23cYpXjC89vNcovEeWZm27Xd6neXgyvNp7Gasn6k40vkUgEZmdnO/bee+/5TZs2zdfbr+EBWMznjqtABosK7ZJJ/s2RGW1dm1RpLwMDA8HVq1cfBmBVyVfEzKVjbJiIbAA8NDQkG2JNPGZ+KJlM3oXCIypV6q8FpUT9+f32z+DgAIXDXb2BQPBQIjqYCE9hxloiWktEe1mWtReAVczcSURdADpzuVxQCIHt27fDsiwGMFf4m2Tmx4UQTwB4gtl+FKD/2rZ9NxHd2dHRcSeAJ5pdf5ryyuZzp55CLbML6Vg5SpyMGu03Ho8327KvUqG9xGKxtQC+RkRR27a73O7L7zsxMjzLssYB/GhmZuZC287NNbP+WlRK1J8fjwHj8fiBAJ4P4Gjbtg8nomcAeBqKOqBU+FdxGySickgC0Fn46yeifZ4st1hGiMWn1LlcDpZlPQLgH8z8DyL6uxDiLyMjI/9scv2pzGNUGcC/rIBJ/lI8ki2nq19N1NT6GxoaepZt22MAdmt2RUiqH8AFXV1dZwrRfeLk5M7iqyzT/mpQC7z9s188Hn8fgBcw8/OZec8ib3WsubLaE8CLiOhFAGDb9lKn4HpmvlYIcV0ymbxT9fNpA3lV218Q8J74Na8cJQbUqe5XEzmdjRpWf+eff35o+/btP4R+yb9YB+fz9pcAvKaa30pq0/ZXTk2vvxrPV+uYeV19q6hm7QngpUT0UmaGZVn3AhgDcH0uN3fd/Pzsw4XtlGjPqvFcLwesg5km8jxJdb8aq6H19+ijj54O4DnNNl2riOjl3d19T6/mt5xM+6tNqp+vNNHTAbwawA/D4Y57IpH+q7q7+16+evUeEVmQ6udnP3ieG4eKZprE8yTV/WqshtcfMz+32aZ91NGZzNh/ZAuZ9lebzNs/dZEAcCoRnZrL5b5pWdYIEf04FApdOzw8nK9UUPXzs188T3cAVDXTBJ4nqe5XYzWl/mzbPrDZxv0SER0iW8a0v9rUqPNBf/9uTwMQbbbfJqkbwCuY+epcLvdfy7I+H41Gn+m0oernZz950h0Alc00mNeSAyY1VtPqj5o0IqoeYmYpL6b91aZGnA+6u/ue39Oz6ucLCwu3M/OGZntWQE8B8B4hxD8ty7piaGjo+UtfqH5+9psndVWruhnV36NX3a/G8vT6qqm/2lSn9tw2quf5YPXqNWJ2dn5ICPEOAMe10W1/WZ1l2/ZZlmVdb9v2p2ZmJn/jsI0S5+d6nK9c3wFQ3Yzh1cZrN5n6q02qP2ZTXfWsv66u3mgul79JCPEzAMc126smOkUIkYlE+n/b07Oq+M0HJc7P9TpfufrBqW5GdR7abFUw1WXqrzaZ5F+b6lV/PT2rTmDmTwF4QbM9OigHYJaZ54hogZmDRNQBYOlPFR3HzCORSP/fmPnD6XR6iyxAg3y0625b1R9dmVWFlDGjOg9or1XBVFeD1tuupBsBbK+yjdOt8FqO7cEApAf3VfBrkr9H1aP+enr6n8WMzzLzWU2ytRPAbUV/twshHl5YWHgMwOO2PT85NzdbOup+l9+NGzeKm266aQ0R7QZgdyHEXsx8MIBDi/7WNNjTkUQ0Go/HU/l8/oLR0dH/uimkQz4qftQWdLHhivWEVTGjOq+CVI+vJaVC8hJCfGxkZGSLJK+m+CKRvvcB9MlWqD+d5Xf9DQwMdEUifR9hxnsAhBrhgZnvIqLriOhPRHRbMBi8bXh4+NFa/G7cuNEG8Fjh7zYnVjQa3Z2IDgP4cICeR0SnAKj72zfMbAkhXmxZ1ifWrl37RacFjGT9ulWdkv/SxQoD1X98Tlc2SphRnVdBqsfXklI9eZn4Wlt+1188Hh8E8C1mPqjOoT/AzNcT0XWBQOC6zZs339sMvzMzk48DuKHw90MA6Orq3YeITiKiUwGcCmCfOtVBN4DPbN++/VXxePzNyWRyrN5+65z8ASzOAByssLG58m/R5O/3qmCqS/XkZeJ7kudXzCrJz/qLRqO7CyG+xMzn1THkmwH+KTO2pNPpW5vptxJvZmbynkxm7G4APwKA9evXHxwIBM4EcB6AekzOdTgzX29Z1k+Z+d3pdHp7I/3WyFt25b+kYJkCpVf+VVcVarAZZXkVpER85sprl5SovwauCqZyfLt4lmV5DVVJ+Vl/lmUNAvgxgL3rEOpDAF9GRJdOTY3/y0t8fvuV5W3ZsuUOAHcA+NrQ0NDhtm2/CsArAOzrc129AsBplmWdNz09fk2z/ErwVuTzJZZwKFC6vjhgkn9NaoFVwbSUCuttqxEfKR5fyz7G8sXv+eefH4rFYhcBuAb+Jv8sgJ8BWBcOB/afnp74oK7Jv1QjIyP/TqVSHzz66KP3s237RVh8bDDlV8UR0R4Atvb09H8mHO4svZuqUv2tuJNfzAo6FCgWA7AVMqMsr4qaHp9J/rukxG1rE19tPB3kx9s/Z5999gHbt2//GRE9z8fQxgF8nZkvzmYnngCA6Wlv8S1J1fZSGGB43eDgwPWhUNf7QqHg24jEW+DPWwXEjPeHQh0nEInz5uayDzTbbwmvtP1xJjO27GJAlBQo7QCY5N8EmeRfm1RvL4ZXG09jSfm1LGtoYWFhGwC/kv9jAD4cCoX2m54e/9hS8vca35JUby9LvPn5mZ3Z7OQnFhbmDybCB1H9dVy3emEwGPpLT8+qF6vkFyuv/FfcCSz3/jJnMmOq37ZWgue3GrkqWLO91kMatBfV44MG8eko2eR/IYBfAejzYd8PAnjXzMzMftPT45/eufOxaYdtlDi+jeDNzWUnp6bGLwqHw/sDeDuA+z3V6nLtzsxbYrHYRQMDA64vtho1BiiTGXM834uiQrvk1FNQyIwyPL+l+m1h1aVDe2FmZV+tLUSoeHxayrXfgYGBTsuyfgrgk3CeEEpGMwAuzOVyB6RSqS/bdi4LhX8fjeYNDw/PpFKpr4XD4QOJ6P0ApiV3USoiovf19fWlo9Fot0J+y+Zzp9GBJvk3Qe3m129pVH9KvlqrUXy6ybXfs846a6/+/v4xAC/3Yb+jRPSMVCr16a1bt86p/vtoJm94eDiXTCY/B+BwItosu69SEdGZQohrE4lE2XEGDXz7p+Kd/BUTA3gx3EqNQYLn28plqvvVRDrWn4mvhSXz9s/69esPDoVCN6D2xXvuYWYrlUrFksnkPYD65xdVeKlU6r5kMnk2EZ0F4E7Z/Zbo+Fwu9zvLsla8gthAv1XbnwAWE79J/jXzPEl1v5rIqTOmev2Z+FpfrvxalvXsQCDwWwBPq2FfOSL6jG3bz0yn0+mlD1U/v6jISyaTW8fHx58F4OMA5mRjKNLhAP5gWdYzVPVbUyJTzUwTeZ6kul+NpXL9sYnPaEmxWOy5AK5Gba+l/YeZX5JKpbYVf6j6+UVl3tjY2Ozg4MDG7u6+JBH9DIsLEnnRPgB+OzQ0tH5ycsefVPMrs4qZ7ztvEZ4nqe5XYyldf0SkxKu1FSJUPL7W0dDQ0AuJ6FrUlvx/zszHpNNpk/zrwMtmJ/6ZzU4fD+BSWUaR1ti2nenu7jtTNb+eOgC6HLwG8DxJdb8aS4f6Uz0+aaken4qyLOtE27avhvfX/GYBvCmVSp2bTqcni79Q/fyiG495YXp6evx1RPRaLM6e6EXdRDTc07PqeJX8SncAdDt4deS15JgJjdWS9Wfiaz3FYrEjAKSxuMqcF90uhDg+lUp9p/QL1c8vOvOSyeQPARwL4F+y3IK6mTnZ3d13uCp+pToAOh88Fd6jV92vxvI0iFX1+mu3+BymIm85RaPR/YnoKgCrPCLSzPzckZGRv5V+ofL5JZFIhIeG4rt3dvbs29XVs6qrKxJWKT63vFQqdYtt288D8AtZfkFriOiKSKRfeuniepwPVJuxSBue7KplqvttN6lef+0WXztMV51IJPaYn5+/mpm9LujzvXA4/Kbh4eEVs7opcn6haDS6byAQOIGZjwdwCIADADw9l8t1AEAg8OT09JFI/ywR3cfM/43FYncS0V9t2/5rZ2fn34aHh3N1iM8X3ujoaBbAuZZlPQLgbbL7wuLAwKuHhoZOHBkZebyOx6OqXP3gFGlc2vKgx/SvbSPV66/d4muT5N+Ty+W2AjjYI+JTqVTqw05fNPP8t3HjRvG3v/3tBbZtbwAwBGA/Zte77GTmgwEcTEQvAgAhBHK53FQ8Hr/Wtu0r5ufnf7F169YJVfwWiVOp1AWxWOwRIvqE7D4BHG7b9pZoNPqiQofC7/jceK7+CKDMqkKed67IwWsYD/BnVbB6xtdOatB624rFx4rH19rJHwByudwPATzHQ1Fm5replvzPPPPMjlgs9oabb775Vtu2fwvgnQD286m6epjZIqJN4XD4gXg8fnEsFju0mX7LKZ1Of5KI3gjAy9oqxwshflVp7YB6Jn+gyomr3HrCXneu2sGrN6+CVI+vJaV68mrUqmAKxtfSisViHwRwtoeiOQDnptPprzt92YzzXyKR6I/H4+8Lh8P3ENGmwhV8PdXDzG8lolsty7qqu7vvtEb6daNkMrkJQALeJg06o6+v71P1jK+EKVB0Pqh2ZaDswiCq8ypI9fhaUqonLxNfayoej59JRJ/0UDRXmNLXcbBZo89/559/fsiyrI/mcrn/MvNFAPZqZD0WdDoRXRWJ9P+oo6N793r6leVNT48n8/l8FIuvZ0qJiN5rWdZZ9YyvwFwx9b+osLG58m/R5D84OEBlHku0pFRPXia+J3l+xayCiOhAZr4M8o+ImJlfnU6nr3L6stHnv2g0etj27dv/COBj8Gd54lp1bjAY+ntPz6pzMpkx6cL1qr/Z2akxZj4P8o8DCMCPN2zYsE+94iuTz50bZmlPAQpND6o6r4KUiK9drrxc+FWi/hq4KpjK8XnmKa5vw8PrfkT09nQ6/XOn7xp8PBCLxd4qhNgGb+MX6qndmfmyeDw+kkgkenzyW3P9ZbMTKWb7rR787JbP539+yikDoTrE57TqL8PhixXPCApyvapVpcrxyYyyvHKSWRWsSX5bUiqst61GfKR4fC2Z/AFv7/p/OplMXuz0RSOPR3d3356WZW0loosBdDawzqTEzFYul7t2aGhot1r8+ll/2ezkd5j5Ix7snNDb2/dpn+NbceVfzBIOBYpVdT1h2cqp0YyyvCpqenwm+e+SEretTXy18VpRzPz9VCp1odN3jTweXV29+xHR7wGc3uw6cann2bb926Vb6LJ+69Ge0+n0JwFcLIkFEb27ZM2AWpN/sTiTGVt2MSBKCpR2AJRYGER1nt8yyb82qd5eDK82Xosq3dHR8UanLxp5PCKR/sOFEL8HcGCzK0RSh+fz+d/HYrGDZPzWsz2nUqm3Q37GQCKiS3p6+vfyIb7SK/8VdwLLDU7hTGbMXPk3QY3yS0Re3ltVXhq0F9XjgwbxtZSI6A5mfmWzZ/grTE97DQCvMxVWkg3gEQB3A9iBGsalVNDTiCh52mmnRZpRfw48DofDrwXwT8nd7MaMz/k5BiiTGXM834uiQrvk1FOoQ+Voz/Nbqt8WVl06tBdmVvbV2kKEisfXcpoF8JLSFf2Axrbnjo7IKgBXAXiqD56mmXkrgPfatv08IcTuRx99dCiVSq1NpVIHpFKpNeFwOBQOh3ezbftZzPw/RHQJgNt92Pczu7q6NgEgFc4Hw8PDM0KIlwCYltzdy+Lx+It8iq9sPnfqKbTkKneqn4wa7Tcejzfbsq/SqL0o+WqtRvG1lJj5nalU6ubSzxs92t+yrO8DeEaNdv5ARF8NhULJ0rn8R0ZGlm1YuNvxROHvX4ODAz8AEIxE+g9m5jcS0asB9HuM4+WWZf1+enr8uw2qv4q8kZGRf1uW9WYAP5LZJzN/I5FIHFFtXYQK8VUdw7diYgDZiqm1cjTm+bZymep+NZGO9Wfia2/9PJ1Of7v0wyZcDLwJi/P4e1UKwPHT0+MvTCaTv3STsMrFNz09fkc2O/GebHb66QDeDmBShlWkr0QifUc2ov5cVVAq9WOXduGFAAApmklEQVQAP5Tc9aG5XO49NcRX9TG+ABYTv0n+NfM8SXW/msipM6Z6/Zn42liF5/7nl37e6PPBhg0bns7MX/Jo435m3jA9PZ6Ynh7/s5/xMS9MpFKprwUCgWcQUcpDbCGALpqezi6dG5renm3bfguAWyRD+HA8Ht+vXvHVtEiI6snLJP/aeBpL5fpTZlItTeNrBeXg8Ny/GecD27Y/Dw/v+RPhhwsL80dmsxNb6hnf5s2b708mk0NE9GbIDxw8dY899hqsZ3wympmZnGHmcyE3XXAXM3+1XvF57gConrxM8q+Np7GUrj8iUuLV2goRKh5fS+gLyWTy5uIPmnE+GBoaeiEzJ+TD509t3/7QG+fmspP1jK94h8lk8ltE9DIA8zL7IaLPrF69h3Seq9fxyGYn/g3w5ySLx4aGhtbXIz5PHQDVk5dJ/rXxNJYO9ad6fNJSPT7FdE84HF62OFCzzgf5fP79HuJ/5/T0xMcike6G3ylKJpO/ZOZzJHd3RC6Xe0Uj4nPLm52d+TwR/UeGYdv2p1B41OlnfMr0jDTkteSYCY3VkvVn4mstCSHeNjw8PLP0/806HwwNDR1CROvdkwGAPzs9Pf6NRsRXTul0Ok1En5Hc7fluN2zE8cjn5+cK4wFkdEQsFov6HZ9UB0D15KX6e/Sq+9VYngaxql5/7Rafw1Tkrab0yMjIlhK/TTkf2Lb9ekn8n8Ph0CcaFV8l7dy586MAfiux6xOi0ej+jYrPDS+dTl9DRMMyPCK60M/4AIkOgOrJy/Bq47WbVK+/douvDaarzgYCgQtc+G3U+cCSwE8JQeft2PH4fAPjK6uxsbEFZn4bJO7CCiFe3qj43PJs234H5F5zfF5XV++gH/Htqhe/zPhdOa3Egx7Tv7aNVK+/douvDZI/mPmTmzdvvreK34acD6LR6GEADpGIftPk5M67GxWfG142O3ELAJkr6FeizNwtzToe6XT6QWbeKMMmog/UGt9SjIODA1S1A1BmVaG6V06r8ACAmZWtv3ZTndpLTa/T1j8+Vjy+1k7+AB6an5//UhW/DTsfBAKBkyR2wUIEvtPI+NzybDv/cYmih61fv16ZhYKWtNdee10M4L9u+UR0Uk/Pqhd4ja8oRgBVTlzl1hNuVOXozqsg1eNrSamevOoYny/P1lWvP1VFRF/cunXrnCrnK2Y+Eu511eTkjjtUOF+V8mZmpm4nohvdlg8Gg0c3Mj43vE2bNs0DkHotkJk/UEPyFyg6H1S7MlB2YRDVeRWkenwtKdWTl4mvZfV4Npv9tmLnK9cdACL6mQrnq/IzBvLlbhnMfHQ1nt/xueGNj49/H8DDErs7Y2hoSKYTtxTjiqn/RYWNzZV/iyb/wcEBKvNYoiWlevIy8T3J8ytmVUREX7XtXBZqna9cr/gnc4XtY3yuecyclEAd3ej43PDGxsZmAXxRZp/5fP41MvGVyefOdwBKewpQaHpQ1XkVpER8bXTlVc2vEvXXoPg8t2ONf28qaIKZv+6nX5/qb5Xb/c3Ozt7VhPhc84455pg7AGRd4o5WtT3PzMx8C8DjbrcnonMHBgaqnofKjFHa9dq0cCiw7BlBQVVXFapn5ejCKyciUr3+WlINrD9bltXY+Ejx+Foy+QPAN6enx6f88utT/RHcL7M7s3Xr1rkGxyfF27hxow3gNpfIPW0bHY2Mz62uueaaaSL6qkSRtX19fae7iG/FlX9xbMKhQLEYJvn7oabHZ5L/Lilx29rEVxtPA80CfLFffn2sPwbwgMttb21CfNI8ZnYdZ3//qp5Gx+eWR4RvQm5egFdVia/0MS9nMmPLLgZESYHSDoASC4OozvNbJvnXJtXbi+HVxtNBzLxlenriUT/81qH+/uJyO1fP/xVoL24fAWB+fiHShPhc8SYnd04A2Oy2HBHFEolEfzkeVl75r7gTWG4QIGcyY+bKvwlqlF8iyjfbaz2kQXtRPT5oEJ/yYuZL/fBbj/Zs2/bFqH5Xch7AxW54fscnyyMi1/sJBAKRarwm+71Uonjn3NzcS1zEx5nMmOP5XhQV2iWnnoIilaMUz2+pfltYdenQXphZ2VdrCxEqHp8W2j49PXlNrX7r1Z5nZiZ/R1T53XMi+mAqlfpHM+LzwJPZV3cT4nPN2779wd8AuFcC86pKvILK5nOn0YEm+TdB7ebXb2lUf0q+WqtRfMqLmX8hxK5OthL1V8qbmhr/iG3b52Ll++f3MPOZyWTyizI8v+OT5O3udj+BQOAxFY/Hknp6IvOQuAtARCdEo9GnVXj7p+Kd/BUTA8gaaWTlKMbzbeUy1f1qIh3rz8TXgiq6/a9E/ZXjzcxM/iKVSj0lGAweCOAMAE9LpVIHpNPpq1SIT4J3kIttAACBQODBJsQnxRNC/FgCR0Q0WIZX9TF+EPCe+JtROQrzPEl1v5rIqTOmev2Z+FpT/5yZmbzZq99mnA9+9atf3QXA1fv+Cp6vCMCBbvbFzI8ODw/nGhyfNG9kZOR2y7JuAHCcG2ahA/ATL/HVtEiIgo2hWTxPUt2vxlK5/pSZVEvT+JQWEX7q1a/q5wMVeUNDQ4dh8bm+G0ld/TfZ709cIJc04DU+zx0AFRtDk3iepLpfjaV0/RGREq/WVohQ8fjUFjOuVKH+2oVn2/Y6id3ep4vfYDC4VQK/d2dnz6Fe4vPUAWh25SjE8yTV/WosHepP9fikpXp8DdQj1UbOO0n184HiPNcdACL6vS5+C49l7nG7j0BAnOIlPukOgAqVowivJQdMaqyWrD8Tnz5i5jFInhdUPx+ozNuwYcPeAE50uz0RXaeZ3+vd74lO9hKfVAdAscppKk+WpYNfjcWtWH/tFp/DVORayU2CcfCr7PlAdV4+n78AK6e7LaeJnTt3/lUnv5LtaQAe3kxz3QFQrXIMT+3koLpUr792i68VpqvO5/OuT9iqnw9U50Wj0T4A/ytRZGxsbKzshZuKfm3blukA7DY0NHSEbJyuOgAqVo5OPOgx/WvbSPX6a7f4WiH5A7hvy5Ytd9ToV4nzgQ48IegtcL+qIYjoqko8Ff2m0+kH4X6lQ9i2faxMjIODA1S1A1BmVaGmV44uPABgZmXrr91Up/ZS0+u09Y+PFY9P++QPuHxeq/r5Sgdeb+/qgwH6iESxqbm5uZ/q6JeZZe4CuLoDUPyoTbjYcMV6wqpUjuq8ClI9vpaU6smrjvH58mxd9fprsm6owa8S5wMdeFNT0yFm/jaALrfliOiHW7dundDRL8CuVmQs6NkumAJF54NqVwbKLgyiOq+CVI+vJaV68jLx6S3btiuuSa/6+UoX3p577v0mZj5Fpmw+n/+Grn5tm2+XKFaxA1BI/ruUyYyVvzU4ODhgrvxbNPkPDg5QmccSLSnVk5eJ70meXzE3Wsxc9lmt6ucrXXhdXb2nE9GXZMoS0a9HR0dvdeKp7hcA8vkFmQ7AbkNDQ3s68crkc+c7AKU9BSg0PajqvApSIr5Wu/Kqwa8S9deg+Fp2rQ9FNLlly5YHGuG3XXmRSN+RQoifwf1rfwAAZv6Ejn6X/n9+fnYHMz/qtrxt2/s78JxW/WU4fLHiGUFBVVcVakblqMYrJyJSvf5aUg2sP8WX0CbF49M6+QOA41Wa6vWnC6+np/8IgNIAeiQRP0ylUr/Vza/DV67fBGDm/Ut4K678i2Nb1gFwmIiDYZK/H2p6fCb575ISt61NfLXxFNOK5/+q158uvO7uvjOZMQZgb0nEjnA4/D7d/DrxINEBALB/Ea/0bglnMmPLLgZ2dQAKBUo7AEosDKI6z2+Z5F+bVG8vhlcbTzUR0bITtOr1pwsvEul/IxGNQP7KH8z8/uHh4Ud18luB57oDQERPL/f2T2nyB8q/BcCZzJi58m+CGuWXiPLN9loPadBeVI8PGsSnlJifHKmtevvTgbdmze6dkUjf1wBcDG9zbPz2mGOO+b4ufqvxituXC+3pwONMZszxfB8sCmKXnHoKqlZOM3l+S/XbwqpLh/bCzMq+WluIUPH41JMQ4uF6+G1HXkdHZO3c3PzPATpZtnxB9zBzYuPGjbYOfl3ytktg93D4rGw+dxodaJJ/E9Rufv2WRvWn5Ku1GsWnnBYWFh5Tvf3pwOvu7jsqGAz+CYDX5D9h2/b6dDq9XQe/bnlE9JgEeveif1cdw7diYgBZI82unCbyfJldTQe/mkjH+jPxtYDy+fwTfvpV/XxQD15XV+9xhdXvni5bvqA8gJeMjo7+Swe/Mrx8Pv+4WzYz71ZctFp8AlhM/Cb518zzJNX9aiKnzpjq9WfiaxEFg2LcL7+qnw/qwYtE+p8vhLgKwCrZ8kti5remUqmrdfAry7viiit2wuWrxkTUKxNfTYuEqFA5ivA8SXW/Gkvl+lNmUi1N41NNdjY7Ne+HX9XPB3W67f8CAFshsbJfieaZ+TXpdPrbOvj1yGMAsy53E5aJz3MyU6hyms3zJNX9aiyl64+IlHi1tkKEisennEzy98jr7Ox5JhFdAaBPtnxB47ZtbxgdHb1OB7818uYAdLvYTqxevYfA4iORqvKU0BSsnGbxPEl1vxpL+fqzbfugWCz2XMlijms3FF7l5FgsVq38Pn56KFWbt7+5Wv2qfj6oBy8U6to9EAhshvcr/3sBnDU6OnqLDn594M253A5YvAsw42ZD6aSmaOU0g9eSYyY0li719yUi+fGjXso0Qqb97XqlVon2pwOvo6OzIxgMXwrgYNnyBd04Pz8fvfLKKx/Wwa9PvHm3G05NTYXgsgMgNQZA4cppOE+WpYNfjeVpEKupv9pUp/asm0I1+lX2fFAvXjAY/jiA02TLAwARbbZt++Q2S/7AYjtzpZ6eHtedBdcdAMUrx/Bq5LWbTP3VJtUfszVQYRV+v7rwurv7ngfQe2TLAwAzf+6oo45KjI6OZnXx6xcPQIfEtjm3G7r6waleOarzoMf0r20jU3+1yST/ZXJ9ZebCrxLng3rxuroiYSLaBPk5VBaY+c3pdPq76XRaG78+8zpdbm4PDw9XHQC4dLet6h2AMqsKqVY5yvIAwGkAl0rxtZPq1F5qep1WJ5nkv0IikUiEffCrxPmgnjwi8X4Az5BE5G3bPiedTn9XN79+8aampkNwfweg6mDB4kdtwsWGK9YTVqlyVOZVUNPjs217wkc/TRURufJSx/Yy2ew68EuV6rJBvzft6jKfz+/mZjvVz1f15HV19e5b6ABIiYheMzo6mtLNr5+8vfd+6mq4v8io+PsZHBwQKMrn1aDKLgyiOq+ClIgvGAz+1UdPTRURVfVS5/Zyc7PrwC8x800u/BbL7/Z8Y7PrQFYl06/K+lXifFBvXiAg3o3F19Nk9MFkMnmpjn795OVy82skipZdN6CQ/HcpkxnjYIWNzZV/iyb/wcEBmph44oFIpP8WyN+SU02cz+evquYXdWwvzHwdEc3Dw/NgxfQIM2+r5rdIvrdnIrqCmc9pdkXIiJl3r/S96uerevN6evr3Zsb/yDCIKJVMJi/S0a/fvFAotDuza8xjZXhLyX8ZyPEOQGlPAQpND6o6r4KUiK+Yl8/nXw+XM0YprG+Njo7+yY3fEvl2PLLZibsAfKzZFVGrbNs+f3R0NFvNb0F1ac/JZPJHhUVhtJFt23t59Su7L01574TcKPZ7AbwGAGvq11eebdtrJRCPO/CcVv1lOHyx4hlBQVVXFWpW5ajEKyciUrL+ZmenbrTt/EsAPOKX1waKiejr4XC47CtFjWwv4+PjFzHzJ6Bnh2oKwBuWnrW68VvH9syhUOhlRJSSQDdbh9bg17V05K1Zs3uQGa+S4Qgh3ppMJnfq6LcePCI6UAKzvYS34k5+cWzLduYwEQcDUGJucNV5VdT0+MrxZmamRlav3uO3uVwuQUTPYeanwf1rOk7b1VJ3bngTRLSNma9JJpM3NLv+ingLAD5qWdYwgHUAngNgtYL19+QXzA8JIW4SQoxs3rz53ibX3y4NDw8/CiAei8XOEEKcxMxHwPk1qHrW31MAHOay3IoOgOrnq0bxZmdzA0Qk8ww7PTIyskVXv/XgoUwHs4zuLeKVvn3GmczYslUFd+2wUKD0B2WSfxPUBL+PAvimwvFpw0ulUv8A8A9V49OJl06nrwJwlV88mfi6unpPE0JscVOeiA6rxmtG/anAI6KEBIqZ+d06+60Hz7IsmQ7A3SW8XfGUJn+U2Sng0FNQtXKazfNbqvs1PMNrE94/JTCHYPHiyTyzLuItLCAAYEgCtyWbnbhTV7915LnuABDRPQ48zmTGHB9NiqIgdskk/+ZIdb+GZ3jtwhsdHb0X7uckiFiWtY/OfuvBW7169TMBrHLLY+av6+y3HryhoaHdALiaZwIAhKD/OnxcNp87jQ40yb8JUt2v4RleG/L+LYE8rAX8+srL5/PPkUA+8MgjD43p7LcePNu2ZW7/PzYxsaP4NUBGlQH8KyYGkDXSzMppMk92Pmvd/Rqe4bUb7xa3TGb7GS54qvv1m/dcCez1PT0RrsJT3W89eDIdgNLHVlXfPgsC3hO/ApWjEs+TNPZreIbX6rx/ueUSieOwfCCtjn595RHR0W65tm1fr7vfevCY+Xgid9eaRMsGH7uKr6ZFTJpdOQrxPEljv4ZneO3Ac30HAMBAC/j1m7cXXIuLX+nV1a/vPCI61S0/n7f/UY1XKs8dABUqRxGeJ2ns1/AMry14tm3LvAmwd2dnz6E6+60Dr9o8GLsUDAa3u+Cp7tdXnmVZ+wI4yO0+iOhG2fg8dQBUqBxFeJ6ksV/DM7y24Y2Ojv4XwP1u9xMIBE7S2a+fvEQiEQDQ73IX8w899MCEzn7rwWNm11f/AB7Ztu2mv8nGJ90BUKVyFOCZAZOGZ3gtziOiayV2J3PCVtKvX7xsNtsnsZvHenoi8zr7rQdP5vY/M4/dd98D0m/wSXUAVKqcZvNkWbr7NTzDa1OeTAdgABJvBynq1xeeECIA98rp7rdOvFPc7svrAlquOwAKVo7hGZ7hGV5debZty3QAdovH40fq7LdePL+lut9aeevXrz8YwL5u95fP5+vXAVCtcnTjYfGqQNn4DM/wDM9Z6XT6QQC3ut2emc/S2W89eH5Ldb9+8IQQVdtRke7bsmXLHbIxDg4OUNUOQMGM0+2clqnsevIAgJlN/Rme4enLu16iyHkt4Nck/ybziOg8t9tCrn0uxQigyh2AouRf+lyrpSq7XrwKUiI+wzM8w6vOY2aZ26uHRaPRY3X26xfPb6nu1y+eZVnPwOJy4q4k0z4HBwcEivJ5tTsATt+3VGXXi1dBSsRneIZneO54zPb/AZh3WzYQCLxKZ79+8ODjVOk6+PWZ9yqJbdm27YzLGFdM/S8qbGyu/E3yNzzDa3vezMzUTgBXuy3PzC87//zzQ7r69YNn27bMWwDa+/WLt3HjRgHgFRJF/m/Lli0PVIuvTD53vgNQ2lPA4jvvTa8cHXgVpER8hmd4hifPY+YfS2B2f/jhh8/U2W+tPGZ7Bu7nSpmsxlPdr1+8m2+++VQA+0gUqdguC/E5rfrLcPhixTOCgqquKtSIylGdV05EZOrP8AxPY978/HwawE63LCJ6lc5+a+XlcjNZALe5LPpX3f36xWPmV0sUyTLz5VXiW3HlXxybcChQLIZJ/n6o6fEZnuEZnnfe1q1b5wAMSyDXh0KdT9XVr088t49NVmynqd+aeH19q/cAMCRRLJlOpyfL8bDy7T3OZMaWzRYoSgqUdgBsVSpHZZ7fUt2v4Rlem/J+IoHtCIfD79Tcb00827Y/CuDeKsWvSqVSP2sFv7Xy8vn8BQAiEkV/XImHlVf+K6YKLjcIkDOZMXPlX1l5txsGAoHOFvBreIbX1rxUKvU7APe4p9P5vb2r1ujqt1be6OjohG3b6wDc7Fg7RKlwOPwqFN0h1dlvLbxgsKMPoDdLFH0wHA5nyvFKPuZMZswxX4miQrvk1FNoZuWoyCOiKbfb5vP5vXX3a3iGZ3hgIrpUYhc9+bz9No391swbHR39VzgcPo6IXsvM3wJwFTN/UQgRTSaTQ8PDw4+2kl+vvHA4/L+QWD4ZwGXDw8P5crwSlc3nTj0FT7fAdapsP3ioMHK1VERUtQOgul/DMzzDA5h5E4D3AwjBhYjoLaFQ1+cATOjo1w/e8PBwDsAPC3/KxddsXjjc1Q3QBRLFGcAPXMRXdQzfiokBZI3Uu3JU5THb97ndnoiO0d2v4Rme4QGpVOo+IrpMYnerwuGwzK1dpfwaXv15oVD49US0hwRiSyqVusVFfFUf4wtgMfGb5C/HY8btbssw8/qBgYFgJZ7qfg3P8AxvUUR0EeTe7HlnNBrt1tWv4dWPFwiEOgC8U4ZBRJ/0Kz7XywE3o3JU5glB/5AoutuqVatO1tmv4Rme4S1qZGTk3wBSErveUwjxfl39Gl79eJ2dXe8A8FQJTCaZTP7Zr/g8dwB0rGw/eaFQ4N/M/Kjb8sx8IYpey9DNr+EZnuE9KSL6rGSR98disYN09Wt4/vO6u/ueDtCHZDhCiE/6GZ+nDoCOle03b8eOJ2wiulYCc0o8Hj9DV7+GZ3iG9yRvamrnXwGMSRTrIKKv6+rX8PznEdEXAXS55TDz70ZGRv7P17fZVK0cHXhdXb0xIURSAndnKBQ6bufOx5xGBCvv1/AMz/Ce5HV19Q4KIa6URCRSqdTlTjzV/Rqef7xIpP9MyD1GAjOfmc1OXO1nfFJ3AHSt7HrxOjs7twJ4XAJ54Pz8/C9Xr94t5MRT3a/hGZ7hPcmbmZnMAPitJObLiUSiR0e/hucPb9Wq3UIAviqJu9Hv5A+snCu46ZWjE++WW27JH3744R0ATpFA75/P24eEw+Gt8/O5BZ38Gp7hGd5ydXZ238TMb4D7i6m+hYWFjn333fvXOvo1vNp5gUB4I4CoDI+ZXzs/P/dfv+JbkqtGq3Nl15uXzWa/BOBhyV0kAJHp61u9h25+Dc/wDO9J3sjIyM2FyYFci4jeHon0P19Hv4ZXG6+nZ9WRAN4jwyOi4Wx24nq/4luKcXBwgKreASiYWbGkYD0qR0fenXfeOX/YYYdNAVgvuaunMvPrDj/88IW99tpr2z333LOgg1/DMzzDW8474ogj/pjP598A9wO6BIBBgC617YVZ3fwanjded3dfD4BrAchM+jO1sDA/lM/Pl848W1PyX/p3wMWGJvlX4e29995/6+zsfCmA3SV32QXgtM7OzvMOP/zwVYcccsj4bbfdtl11v4ZneIb3JO+WW26ZKVwErJPArwoGQ4flcrO/1M1vLbypqWnq7Ozp+PWvr51XMb568g477LAfAzhJhkmEj8zMTP3aj/gKMQoU5XOqsvFS8i/eTovKbjQvFoudQkS/hsS4ijJ6CMDdhf8+iuWrDorlE5ARUGGhBxcyPMNrKx4RMYDb8/n8X0ZHR29AmRn9ZM8HiUQiMDc3dxMRHSkZ87tSqdSXZY2qdv6rxuvq6j2xMBnSSQA6AcwB+B2Az6ZSqYwsT3W/pbxYLPYmIvqWJPafk5PjzxMCC6U82fgKMRY/8udMZoypwsbFV/5L/9WispvFsyzrLQC+7nZ7IyOjpupqAG9IpVLL1vXwej6IxWInEdH/ScYwT0QvXJrdzY1UPf858WwbnX19/Z9ixtvKbc/M32Lm94yOjmZ19+vEGxoaOtK27T9hsePjVkxEp05N7fy9T/EtJf+l8pzJjLEoU6D0c65X5bQSL5VKfRPAt2VjMDIyaopOB/CHRCLRv/RBLeeDdDr9GwDfkIwhxMy/WLdu3Wo3G6t8/nPiVUv+AEBE/yuE+GIr+C3lxWKxXtu2fwm55A8iXFqH5L+kXWv/CIcCy54RFFR1VSEvldOCPHR0hN4FuRnCjIyMmqd9crncFwB/zgfj4+PvAXCLm22LtF8oFPrF+eefX3GJYQ3Of8t4PT2rTqqW/Iv0png8fprOfkt5iUQiQESXAjhEEr1dCPEBn+JbMYavmCUcChSLYZK/FO+JJx5bWFiYPxvAFlmGkZFRU5TYd9+nCvhwPhgbG5sVQrwcQE4mAGZ+8fbt23+IMuOydDn/lXh6r2QdfKAST3W/pby5ubnvAIhJou18Pv+qiYkdj5byPMRXOh6NM5mxZWNiAiUFSp/527pUtkq8fH4+19vbM2zbHABwoizPyMiooepcu3btzxcWcjtKPvd0Pthnn70e6ejonAPwYsmizz700EP7b7vttquLP9Tt/LekcLjzmwDCMlV37rnnfiq4SNLObzHPsqxPEdHbZdlE+FQ2O/kjn+IrvfJfMcC23ERAnMmMmSv/GnhPPPF4LplMfoiZX4nFEa9GRkaKKhAIlA5Aq+l8sH37Q1/B4jvfUiKid8Tj8feV8hw2Vfr819+/mwAQkcSFbrjhhl4d/WJ58r8AgNQqfwWNhUKBT9YhPs5kxvJO21NRoV3/79RT8Kty2pEXjUYPE0J8BkBcdh9GRkZ118PT0+NPK/p/X84HnZ09TwkEAjcB2E0Sxcz82mx24sfQ+PxnWdYU5DoB8x0dwd4nnnjcduKp7hcAYrHYy4joMsgvtLc9l5s7dn5+9mGf46v4GN9pdKBJ/j7zRkdHb02lUkPM/EIAf5Ddl5GRUT3Fxe9n+3Y+mJ2depCIXoXlc3m4ERHR97q6euMO3+l0/pN9JfK3mif/M4joR5BP/jYzv6bRyR8o6QDUOLVgSyTrevLS6fTvU6nUC5nZAnAF5E8MRkZG/uqPk5MTny/82/fzQTKZvJKI3ukhrqAQ4peRSP+rinmanf8+izITLTmJmT9fhaesX8uyXk5EaciNeQAAEOGz2ezEtXWIr+pjfNmeiqfKMTxnxWKxtUKIM23bfjERvRDA02TKGxkZedYCwJ+fnZ35dD4/P4c6nw/i8fjFzPxWb6Hyh6anJz7b7POVF14sFvsyEb2jqkPm72SzE2+rxlPRbywWezsRfRke8ikRjc7Pz75kbm52rhl+g9U2qOfO252XzU48AuCnhT+Ew13dgUDwQCLaXQjRa9t2jxBCqlEx84qpiInI850GwzO8VuLZdl7YNt8eCNDfp6cnZwof1/18EAqF3pHL5Q4AcJZ81PTp7u6+PQG8CxJX1Cqc/yYmJj7Y19eHwoj4Mucy/vbCwrxf7703+sr/MwA+IAV+Ur8bH9/58kAATUn+QA13AFRoXIZneIZneLrwEolEz9zc3O88rBewpMvWrl37mk2bNlVdSEcFv8UqTJP8QQADKFoLgJm/ULj93dT4ZHmJRCIwPz+/iZlfJ8su6J+2nT9lZmbq8Wb69dQBUK1xGZ7hGZ7h6cDbsGHDPvl8/gYAT5HdLwAQ0a/n5+dfesUVV+wot41Kfp0srF+/vvuxx7bP9/RE2Adew/2eeeaZfeFw+FIAUVl2QfcS4cSpqfH7m+1XugOgeOMyPMMzPMNTmheLxY4gomshv3z4ku4F8NJUKnWDDn5biReNRo8RQvwSwIGybABg5kfz+fzJc3PTt6rgV8hsrPvBMzzDMzzDazYvnU7/3bbtAQDbZWMo6OkAfhuPx9+tg99W4VmW9RYhxB/gMfkDmGLmmCrJH5C4A6D7wTM8wzM8w1OJ19nZ88xAIHANgL1lyxcpvbCw8Jq5uemdqvvVlRcKdfWGw+HvAzhHllukSdu2N8zMTF6rgt8lueoA6HzwDM/wDM/wVOV1dEQOCgaDvwbwVFlOke5l5ldksxN/Vt2vbryenlXHMPMv4P2qHwAeARCbnh7/swp+i5jVHwGUWVXI8851bgyGZ3iGZ3h+8ubmpv8jhDgVi8/1verpRDTW3d33hY6O7l6V/erCEyLcEYn0X8TMf0Rtyf8e286frGLyB6rcASi3nrDXnevaGAzP8AzP8OrJ6+tb8zTbtn/NzAfLckv0IDO/O51O/1xlvyrzIpF+C8CXAewjyywWM/99fj63bn5+9gEV/BaYSxf9DFTvACwl/+LtlD54hmd4hmd4OvLWrVu3OhgM/hLAoCzfQdfatv3W0dHRW1X1qxqvq6vnQCECXwFwuizPQf83Nze7YWFhbocKfgvM4jv+nMmMMVXYuPjKf+m/yh48wzM8wzM83XkDAwPB/v7+LwF4myt4ZeWI6IuhUOjTw8PDUyr6VYEXDnd1B4Oh9xLRewB0yPIcNDI7mz0vn5/PKuR32ZU/KnUACj2F0iv/qgsLNNCM4Rme4Rley/Isy3o9gG/Aw+IyDnqCmb+Wz+e/VjqBkCp+m8ELBjv6Ojo63gLQ2+B9ToZi5ZntT3R2hj/7xBOP5xTyu+zKH4XkDzg8AihK/sXfm+RveIZneIbXQN7Q0NALbdv+FYA9ZfddRpMAvhkOh784PDz8qGp+G8Xr7u7dTQjxNma8GcCq2qp0lx6ybfuVMzOTv1XM79IA/uIr/11LLpNDgdIrf1shM4ZneIZneG3Di0ajTwsEApcz87GyMVRQloi+Oz+f+/LcXPZBlfzWkxcKdT41FAq9i0icDyDiT1UCAK4JBMRrJyZ2PKqSXyx/e2/pyt8u3o5KCpRe+Zvkb3iGZ3iG10TeKacMhPr6+i4E6EMAQrLl/3979/PbRhHFAfz71m6cpMaVWlohROCAq1C4QFRRgQq4VQBRUBwjrcqhgKhEhAQcuMGhlS/0kP+ACCGRcIoPdhJIQFRWQK040PRAkFCLKiuXpG1C0iapm6y98zjYDomxXa9/ZZy8J+0hsf2ZfTMr7dv1eLZEpAD8BGCI2f4+mVy9r0O+tfT6+vr2zM3NnTIM4z0Ab6I23/HnwmZW4fn5W/1797azDvkW8DZf+f/vKZrFCgDkVwqaJCOeeOKJtyu91lbvcy6X6xsAzzh1yohFAMOGYQxGo9HfdMi3Gq+3t/d5AO8y8zuozff7+THLzGeSyeVLOuRbwstd+Rd8hDZt+tDG33LyF0888cTTz3O59rR4PG3nszPWHT3Lpdwgor8BDCmlJrq6uq6Gw+GC5wOd+i8cDhtTU1PPGobxBoAzAJ6qR98AUAC+tqz1c6nUWm5CpbbHCzIFQNE5fPkFAKpcXUiLg0E88cQTbyd7wWDwRQDfAvA7tR3GHSL6hZnjhmHEo9Hon7r0XzAYfJqZTxLRSQCvANhf5764atv2J2trq1e2I98KvJInfyCvAJCTv3jiiSdec3iBQKDV5/N9RkRfAHio7Aaqi1sAJonwOzOuGwZdc7uNmaWlRVWvfLNX908QUSeATgDHiOgEgEcalPNdgM+3tLi/yua5Zf9qnW8jvZIrATZbMuKJJ554u80LhUKHbNsOE9GHRT5b71gHcAPAtex2nYhu2ra9AGAhnU7/09HRcX9gYCCV/8GzZz9omZ2d9brd7gNExgEADxPhEJHxJDIn+05k7nK0bkNeYObvlFKfr62t3s57qWmPl81RVQGgWzLiiSeeeLvVC4VCR2zb7ieit5y23aBgZIqFFDK/ZvCgBhehddlR5ksul+vcysrS5QIv74jjBaii83VMRjzxxBNvt3s9PT0niKgfwFGn+7Hbg4h+JqIvV1aWfoWm41tLr6JZpAUWGQAy1V2tFi0QTzzxxBOvAi+ZXJ68d+/uC0qpV5n5B/z3W3CJwsEARonoWCwWey178td2fGvpOb4DUKRxoLrlgsUTTzzxxKuD5/XuO6wUf0pE7wNod2ru4FAAhgFcGBkZmQaac3yr8RwVANnGjbzPMapbMVA88cQTT7w6e6Zp7rcs6yMAHwN41Km/g+IGMw8x8+DY2Fgi989mH99KOsLpjNH8Rwqi2ApD4oknnnji6eNFIpFFABcCgUC/z+frJqLTAEIA9lXRZrPEHWYeBjA4Ojp6uch7mnp8K4my7wB0b31KIFDgwQJOQjzxxBNPvO31TNNssSzrdQCnAfSgcesJNCLSzPwjgMFUKjU6MTGxXuyNuoxHAz0CyiwAso1viRokI5544oknniZedmGhUwDeJqKXADxe6T5tY/wFIM7McY/HM5m961EydB2POnob5/0HFgDdeQ8JQqbyqHhWqXjiiSeeePp7bW3eDpfL/bJS6ni2IDhSqVvHSDBznIjiqVQqPj4+flOX/tPcY+ABBcDmSiEXNWhcPPHEE0+8JvNM0zxoWdZxAEeZ2W8Yhp+Z/QB8lbbpIJiZE0T0BzNPE9E0EV2JxWKJSsFmH49qvYsXJ7nsSYDVNCyeeOKJJ15ze5FIZB5ANLtthGmaB9PptJ+Z/Uqpw0T0GDJzCbzM7CUiL4DNWzuANAArtxHRCjMvAMhtt4loRimVAJBYXl6ecbuxXmr/dO8/Hb1/AfZ3GqSLjOpeAAAAJXRFWHRkYXRlOmNyZWF0ZQAyMDIxLTAxLTExVDA5OjA5OjI1LTA2OjAwfTdtgQAAACV0RVh0ZGF0ZTptb2RpZnkAMjAyMS0wMS0xMVQwOTowOToyNS0wNjowMAxq1T0AAAAASUVORK5CYII=;" vertex="1" parent="LU8-xw11yKQ6b2Q469gx-173">
          <mxGeometry x="159.87" y="551" width="87" height="87" as="geometry" />
        </mxCell>
        <mxCell id="LU8-xw11yKQ6b2Q469gx-8" value="Missing values" style="text;html=1;strokeColor=none;fillColor=none;align=center;verticalAlign=middle;whiteSpace=wrap;shadow=1;glass=0;fontSize=14;" vertex="1" parent="LU8-xw11yKQ6b2Q469gx-173">
          <mxGeometry x="151" y="633.25" width="109.75" height="20" as="geometry" />
        </mxCell>
        <mxCell id="LU8-xw11yKQ6b2Q469gx-10" value="" style="shape=image;imageAspect=0;aspect=fixed;verticalLabelPosition=bottom;verticalAlign=top;shadow=1;glass=0;strokeWidth=1;fillColor=#000000;fontSize=14;fontColor=#FFFFFF;image=data:image/png,iVBORw0KGgoAAAANSUhEUgAAAGQAAABkCAYAAABw4pVUAAAABmJLR0QA/wD/AP+gvaeTAAAU20lEQVR4nO2daXhT55XH/3fRlSzJkixblo2NsQ1mscEGs4RCDDFmX9IsE8g0NJk20KQkedKmLaTNpAntZJqlydOm2ViStDTlSWDSDCFAzB4ohAAG22AbbOMNjC3LliVZ69W9950PPKYktSxdWYAn6PfN0j065+p/9S7nPe9rIEaMGDFixIjxrYC69o81L7/7BMtSz4milHizArqVYBi6SxDI2pdWP/yn3teuCrLm9+/eTgNf3D5lPG3Q625OhLcYdocT/zheLkEiM363esURAGB736QIKUpMNPBjx+Sobl6ItxbpQ8w4V9/kt3Z1zwBwBADof75NlCzDBjGNcb1gGIYCiLL3b7q/i2PceGKCDDJiggwyYoIMMmKCDDJiggwyYoIMMmKCDDJiggwyYoIMMmKCDDKuS/LK4XThZHk1LjRdgsPRAwAw6HXIzkzDpPG50Ou0MR9BiKoghADHTlTiiy9PQRTFr73X0WlDR6cNJ05XY+a0Qnxncv4t7SMYURVk36Hj+KrsTL/XiKKI/YdPwOP1oWTGlFvWRzCi1oecr2sKeRPXcuzkGdTWN9+SPvojKoIQAuz/x0nZdgeOnAQht5aPUERFkPaOTti6HbLtOrvs6LB23lI+QhEVQdoskQdz2dJ1S/kIRVQE8Xr9Edt6PL5bykcooiKIOk4Z+qIgaNTh1VR8W3yEIiqCpJhNEdumpiTdUj5CER1BkhORaDTItktKNMBsCq8m79viIxRREYSigOLbJ8m2m1U0+ZbzEYqoTQxHjRiGqZPGhX39dybnIyc745b00R9RTZ2UzJgCjToOB4+U/UsO6KpDhsXM6YWybvrb6CMYUc/2Tp00DmNGZqGsogYNjZfQ7XACABL0OmRnp2NSfi50Ok3MRxCuS/pdr9NiVtHkqLat31Yf3yS2QDXIiAkyyIgJMsiICTLI+H+zISTg6YDf3gCfvQm8sxkBnw2CtxtE4iEGPAAARqEGRXNg4xKgUBnB6YZBZciC0pANhTrytMiNZNAKIvI9cLWfgrv9BLydVRB4N1ilFlpDJgyJ2VBpC8ByWig4DVjuyvBT4N0I8G4IvAs+lxU9XbVobyqFyLvBclrEJeVCmzIFmpRCMFz0CxSiwaASRBJ8cF48BFfrMXhsNWA4DUzpE5E5/TEYzHlQaZMj+lyfqwN2SxWsLSdgrd6E9vK3oU7MhTZtKnTpRaDZwbOLb1AIwrvaYG8shbPlIEBRGDJiFvKmPQydaRQoigr9ASFQaZORok1GyvBiECLBaT2Ptvr9aKvejM6qv0GXcQcM2fPBaVKicDcD46YK4nc0orNmC9yWU4g3jcaYaatgzioCzXLXzSdF0dAnj4E+eQxGTlkJS+NhtNTsQNPeJ6ExFyJpzDIo9ZnXzX8oboogAY8VttpP4GjeB13yGBTMeQ6mjNtC2nl8AqqabKhqsqHZ4kJrpxs9Hh6+gACKUFByDHRqJdJMagwza5E7zIi8LCPUyr5vk2Y5pOaUIDWnBPb2KjRWbEXzwTWIHzIViWPuB6dNjfath+SGCiIFPLBWb4ajeR/05lxMXvIa9Mmj+7URJYKvqi3Ye+oSTtdZQVE0DDotVGoNdMYUGM0KsCwDABAEAYGAgPYeDxo7urDtSDMIkVA4MhklhWm4bYwZDN13E2hIycOElDzYLdWoO/E+mvb/DPrM2TCNuR+0Qh317yIY1whC+QVRuG6OXO1l6KjYCJqmkFf0U6TmzMI3DpL4GqJEsLfsIrYebIDd5UdiYiJyc3Oh1+tA0+FNnyRJgsPhxKVOK179qAIJ8UosKx6OksJ00MGEMedi8uJXYG35CueOvoPGy8dgyl0OXcaMSG47JKIoEoC6uph/VRBCUYe7bA7ubE0donmSA+Ft8Dd9BMlZi6zxy5CVvzRkH3H+oh1vfHIWbTY3UlOHYMToVLAKhWzfNE0jIcGAhAQDMrMy0XqpDeu2V+OzL1vw+N15yEkPvjpoyrgNiUMmoLHiIzSWvwNrwwFww5aCUhplxxEMu8OJTptdSREc6n3ta4/J069sfJxh6OejddZJsuIScrXl0OiSkV/8C+iSRvR7PSEEWw9ewOb9dUg2JSEzMxMcF90OnvfzaGpqgrWzE8tnj8Q9M4Yj1EDO1d2Eyv2/R0/3RdS4x8MSiM6CFMPQXaIoPf/iL1a80fvawMeUfbDt3Tvj1UR4kwAPDC98gMoqWEZRNNOvDR8Q8fKH5aio70T2iOEwma7vzNraYcWFCxdQONKEny8bD47tvxkkkoDG8o/IhdObCUD9VeF3P1782EFXtOOKuiCfr5+XxzCK7ZwyPi2/5BnOkJIX0sbHi3j+zyfQ3OHGmNxcqNU3phP1eLyorq5CllmD5x6aDBXX/0MDAN3tZ3Fm3wt8wO+6RCSyeM7KHTXRjCmqguxeP/9ummH+ljBkPDuueLVCoQzdFwmihN9sOon6yy7k5Y2FUhV5bVQk+H1+VFWdRU5aPH79/UlgmNBfScDnxJmDLwVsrRUBEOF7c1aWbotWPKEfiTAgBNT0tHlrKZp6M2v8/Wxu0U8YJsx0xJv/exblF2zIGzsWKtWNT2GwLAtDghFVtc3ocnoxeXTo9AzDKpEyfBZDJEFht1QtW75kBPXXT+u/WLt24PEM+BeyZct9XEKP+88UmPvGFq9mzVm3h237RcVl/GFrBcblj4VOd3PP6HI4nThbeRZPLS1AUf6QsO0sjYdx9sArAiBtZ2j394p/cHBANaUDWg/Z9u6d8UaXbxej0Nw7+c5XZYnhcPN459MqDM3IuOliAIBep8PQjKF4a1sVHG4+bDtzVhEmL/k9SyvUi0RRu3vPutn6gcQRsSAH3l+YooZ0nFMbp0+963VOl5Qjy/79XefAshyGpqdFGkLUGZqeDoZV4C+l52XZ6UwjMfW7f+SUGuNtFBt3dO+GEnOkMUTUZJW+N3coA+VhjT4tdeLClziFSt4T3trpxmN/OISx4/Jg0Ef+QPXY2mBrb4DffWVDplITD2NqNuITvp6DykhkkaJn4A8Q1FkC8PDBd9d0d9tRVV2Nt34yA0MS5ZX58F47ynas4T3OtlZeEmYsXLnrktx7ki3I3vcWZQPUIY1+qGniopc5hVL+Qs/rH1fiVIMTY8fJLzIjREJj5SHUnvgcPV2tfV4Tn5iGUVMWYHhBERYXaDEy5Z+zfC9P8FmFB81dwdNEZyorMWmEAU/cIz++gN+Jsh1PB9z2i5YALxQt+PHnTXLsZTVZ+95enEYIdfCKGC9FJIbHL+BQZRtSUsPvOHtx263Y++dfo+zzd4OKAQA9Xa04uWsjzK5jXxMDAOI4CosK1FBzwZ/F1CFpOFR5GT6+76rF/lAodZi0+BWF1piZzHLskT3rZsua1octyIF1S5IkDgc0hqHJV34Z8bKDBYCjZ9tB0zQSExNk2TmsF7Fv03Owd4S/wXJ+8dQ+X1dzFEaYg+fGjMYEUBSFL6vaZcXYC8tpMHHhi1y8MSsJrOqgnD4lLEH2rJutlzjqYLwxe9jkJa8qI/ll9HLiXAcSjAmgqPB/nH6PE//4n9fg9/bI8hUfHzxOlSL4L4SmaRgSEnD8XIcsf9fCchpMXPQiF2/MTKMY7d6dHywIq6MN+a1sX7dETbGqXUp1Uk7hgv/iWEVcxEESQnCmwQadTl5HXnnwQ3ic8vf/VdfUBn2vzd5/c6TXG1B5oWtAu2tZhRqFC17glJrEUQo/u69009yQo4R+Bdmy5T5GxUgfK5TxEycuejHiZqqXDrsXbh8PvYz0fo+tDc1nj0Tk77U3NiAg/Gvnfb49gIu2/td+dLp4uLw8rA5vRL57USh1mLjwdwpOqclnAtzWLVvu6zc70q8gBqfrVZpRlBQueIFTaQaefW21usEwNJTK8PNVLdXHQIgUkb/zdQ14eNXPcbqyCnwggG6nB0frfdhR4Qlpq1KpwDA0Lne6I/L9tc/SJmPiopc4muFmJzg9r/R3bVBBdm+c/wgF+okJ83+r0BqzBhwUAFgdXqjjlLIqSSxN4Z+q0Bfn6xrw6JO/RNHce7F81bM4Wu+HFEYzRFEU4lQcrPaB/UJ60RgyMH7u8woCPLln/YKVwa7rU5Dd6xfMBOg3R09/jE5IGRuVgIArRQqMzNOz3XZr1Py7HPI+i2UU8Pijt6ydkDoOY6avoglNvf35hnlFfV3TpyAUTb2uTxpBpY9eELVgACAgSGGvh/fCe6O3BhTwymt+aJqCP4K5SH+kj14IfdIIiqGYN/p6v89vRwKecHTWk0vndkY1GAVLQ5Lk9QdKdfRKPrk4eZ8lSQTKMBat5HCpZgccnfVEJOLjfb3fpyDzVuw8RAhZVXPkLam7rTJqwahVLMQ+Rj392uijt5SrkflZghgIWtMVCba2CtQcfVsCxEfnryw93Nc1QduPeSt3rQekP50ufS7QY2uISkAmfRw8Pj+IjMF9Snb0NlWmDA//sDFCCDxeHiZD5POua3F1N6Ni99oABfxx7orSjcGu67dBt+u0P5PEwL7Tu57hfa7IZ629pJu0EEUJPl/4Z4oMHT1V1qw+GBRFY+io0NWRvfh8PkiShLSkgW/s9Lk6ULZzDS8K/J5unfoX/V3b750uXbpV1DjV9wT8rrKTO1bzvNc+oMBMhjhoVBycTmfYNvHGVAwbG/7CVzCy8mdCawy/mNrp7IE2jkOSfmC/kIDfibKdT/MBv6dS4gJLly7d2u8oIeSjN+2prV4i+BbwHlvtqdJn/UIg9KQqGBQFjBtuhNMp70yq/DuWQa2P/CwRjcGEcTOXyrJxOhwoGJEUsmarP4SAB2W7fuX3ubvOB5RCybwHd4cc5oXVFsx5ZK+DDqDYZWtqObn953zALy/Jdy1TRifD1mWTNdpSqnW4/d6fQamWv9SrVOsw/Z6nZI2wJElCd7cNU0ZHPqAQeDfKdjzNu2zNlyG65yxcviusZiHsxrn4ke2dNI9il/2ipWzHaj7gD7/ZuZZpeSkghMBm65ZlpzelY/aDa2Ewh79VICElC7MfWgu9KV2WL5vNBkIIpuZGtl+kV4weW6OFwH/77JX7LOHayhpkb9pR2/PQXTnbAv6eZZ0tJ+LM2TMYhpVXR6VgaVjsXtS1dCLZLG/pWaFSI7vgDmh0JrjsFvg9ff9SdUlpyJ95PybMfQicSn6nfKG+HtNyTZg2Vr4gV1YM1wRc9haLwAsz5v9o90U59gNZUz+k1qUOmbjoZY5TyUunX+50Y9UfD2FsXi4MBvnHIfXi6rbA1tYAn/tKn6TS6GFMzYY2IeIaA3R3d6O6ugZv/3QmUozyKiivrqn3tF2k/GRmyY8/C76sGYSIu6wD7y9MESRqv1KdmD1p4YvKOJ28zS2vf1yJ47U2FBSMBxVka8CNhhAJ5acrMG1MEh67W14Oz+O8jFM7f8n7Pd31Iu8vnvfj3RHNEyIe4Bf/YGe7B8xtvLf7yLFPngjYLdWy7B+aPxqiEMDFS7ILM64bFy9eAiQBD84bKcvOaa3F8W0/Cfg9XceI4J0WqRjAAEtJP/z0PL/4gYIPlT7PyMt1+3Lj4s10vDE7LFsVx8CcEIfSo7Uw6PU3vKb3mzgcDtTXXcCT/5aPEWnhN6OWhkMo3/O8KAn8pyzjvrtkxf4BLaAMOHO2dWu1uGlb3d8vnMxirC1fzpAkEQmpBVQ4ax7DzPGw9fhRVtUMozERCsXN2YPq9XpRU12NOZPScXdReA8UIQQXyjah9tg7RJKk385ZseuxrAlNA87VR7XxLt244C6GojcnDClgx92xRhFOAZ0oEvzmrydR19pzU6vfR6Xr8J/fnxh0D+K1BHxOnDnwMm+7XC5Eu/o96r3p3vcW5BJCb+eU8enjSp7hwlng8vEi1v7lBBotbuTm5kGtjk5CLxRujwc1VdXIStHi+f+YBKXi5u8PiW6yH8CmbfXWH85Ley9AScPaavfkExAkmHOp/hKELENjRsEQXGh1oLy6AUqlEhpN9E9ruxaLpQPnzp3DxJwkPLO8EFwIMYgkoOH0ZlJ96DVIAv8B43ffWfLonsvRjuu6jjf3rJ93Lxj2vThdqnLcHauVoQqyCQH+fugCPthbi6TERGRlZYFTRn+PYUNjA7q6bHhw7ijcdXt26D2GtiacOfiy321vEUCEH81ZUbo5qkFdw3WfAOxZNzsDLLeBEGp29vilVGbBMirU7L7ukh1vfFKF1i4XUlJTkTZkCBQR7MK9lkAggNbWy2hra0NGshaP3zUWw9P6n9CKgh9NFR+RhvIthAJ2S3TgR/N+KG/mLZcbNiMr3bhgCUMxG1ilJmHklJVcqH3qkkSw/3QrPjpQD5vTj8REI0wmE/QGvax96naHA1arFV2dNiTpVFg2azhmTUgLWflibfkK5478ifd7HT2QxKfmrNy1Sc79RsoNnSIfeP8ugyDyLxDgEb1ppDhyyoqQm0IlieD4OQv2lrXiVK0VFAXodDqo4tRQq+OgULBXK1lE8cpJDh6PFz6vB06nE4QAE0ddOclhyujkoAcG9GJvr0LtVxt4R2cdQ4j0Fi0Jz855ZK/8/2ERITclZ7Fv48JhhKKelSTpB3rTSCFrwr9z4Zx14uNFVDVeOeukqb0HrZ0eOD08/PyV4b+SY6FTc0g3aTAsRYu8TCPyMo1h7a61t1ehsfxDvqv1pAJgPiEC//TcR/fUDfhmZXJTk0i71y8cTzP0fxMizNcmDuczcr+rNGcXIdwNowNFFHywNBxGS/WnfldXPQcwu0RK+NX8h0srbkgAfTAosnq735mTA4XicQrUwzTFcqk5s5jUESW03jwmKuvp10KIBIelBm31+0lb3T5RIoIfkrRBpKQ3568orY+qswgYFIL0cuDNO7QBpeoBmlYslyRxGsuqxMShk2hTxm2MwZyHuPjI0ureHgvslrOwthwXuy6elATBx9A0e0QUAx9AKf4tnKXVG8WgEuRaPt84z8gQejFo+l4KVLEkCfEMqwpojBmiLjFHFac1g1Vqrp67CODqeYuC3w2vywJnV53PbWthRMGnoGlFDyHSfgLhY55nP1u8aoe8JcsbxKAV5Jvsent+JsNgAkWjELSikKboYUQSzQBUkiRoAICmWTdA+SiKbpeI1AwSOE0knGJo+lTJip3R+992MWLEiBEjRowYofg/6ePVMnmr/xwAAAAASUVORK5CYII=;" vertex="1" parent="LU8-xw11yKQ6b2Q469gx-173">
          <mxGeometry x="375.8699999999999" y="552" width="90" height="90" as="geometry" />
        </mxCell>
        <mxCell id="LU8-xw11yKQ6b2Q469gx-12" value="Outliers" style="text;html=1;strokeColor=none;fillColor=none;align=center;verticalAlign=middle;whiteSpace=wrap;shadow=1;glass=0;fontSize=14;" vertex="1" parent="LU8-xw11yKQ6b2Q469gx-173">
          <mxGeometry x="366.8699999999999" y="635" width="109.75" height="20" as="geometry" />
        </mxCell>
        <mxCell id="LU8-xw11yKQ6b2Q469gx-13" value="" style="shape=image;html=1;verticalAlign=top;verticalLabelPosition=bottom;labelBackgroundColor=#ffffff;imageAspect=0;aspect=fixed;image=https://cdn2.iconfinder.com/data/icons/competitive-strategy-and-corporate-training/512/745_Business_gear_management_operation_process_Business_Management-128.png;shadow=1;glass=0;strokeWidth=1;fillColor=#000000;fontSize=14;fontColor=#FFFFFF;" vertex="1" parent="LU8-xw11yKQ6b2Q469gx-173">
          <mxGeometry x="283.46" y="468" width="64.82" height="64.82" as="geometry" />
        </mxCell>
        <mxCell id="LU8-xw11yKQ6b2Q469gx-15" value="Normalization" style="text;html=1;strokeColor=none;fillColor=none;align=center;verticalAlign=middle;whiteSpace=wrap;shadow=1;glass=0;fontSize=14;" vertex="1" parent="LU8-xw11yKQ6b2Q469gx-173">
          <mxGeometry x="343.28" y="486.15999999999997" width="96.72" height="20" as="geometry" />
        </mxCell>
        <mxCell id="LU8-xw11yKQ6b2Q469gx-22" value="Imbalance data" style="text;html=1;strokeColor=none;fillColor=none;align=center;verticalAlign=middle;whiteSpace=wrap;shadow=1;glass=0;fontSize=14;" vertex="1" parent="LU8-xw11yKQ6b2Q469gx-173">
          <mxGeometry x="10.129999999999995" y="635" width="109.75" height="20" as="geometry" />
        </mxCell>
        <mxCell id="LU8-xw11yKQ6b2Q469gx-23" value="" style="endArrow=classic;html=1;strokeWidth=1;entryX=1;entryY=0.5;entryDx=0;entryDy=0;" edge="1" parent="LU8-xw11yKQ6b2Q469gx-173">
          <mxGeometry x="140.99999999999994" y="578" width="50" height="50" as="geometry">
            <mxPoint x="153" y="617" as="sourcePoint" />
            <mxPoint x="85.63" y="617" as="targetPoint" />
          </mxGeometry>
        </mxCell>
        <mxCell id="LU8-xw11yKQ6b2Q469gx-24" value="" style="endArrow=classic;html=1;strokeWidth=1;" edge="1" parent="LU8-xw11yKQ6b2Q469gx-173">
          <mxGeometry x="60.49999999999994" y="529" width="50" height="50" as="geometry">
            <mxPoint x="62" y="572" as="sourcePoint" />
            <mxPoint x="62" y="534" as="targetPoint" />
          </mxGeometry>
        </mxCell>
        <mxCell id="LU8-xw11yKQ6b2Q469gx-25" value="Near miss" style="text;html=1;strokeColor=none;fillColor=none;align=center;verticalAlign=middle;whiteSpace=wrap;shadow=1;glass=0;fontSize=14;" vertex="1" parent="LU8-xw11yKQ6b2Q469gx-173">
          <mxGeometry x="16" y="546" width="89.75" height="20" as="geometry" />
        </mxCell>
        <mxCell id="LU8-xw11yKQ6b2Q469gx-28" value="Balanced data" style="text;html=1;strokeColor=none;fillColor=none;align=center;verticalAlign=middle;whiteSpace=wrap;shadow=1;glass=0;fontSize=14;rotation=90;" vertex="1" parent="LU8-xw11yKQ6b2Q469gx-173">
          <mxGeometry x="-20.370000000000005" y="496.53999999999996" width="80.5" height="20" as="geometry" />
        </mxCell>
        <mxCell id="LU8-xw11yKQ6b2Q469gx-29" value="" style="group;container=0;strokeColor=#1EB6FF;" vertex="1" connectable="0" parent="LU8-xw11yKQ6b2Q469gx-173">
          <mxGeometry y="468" width="119.88" height="190" as="geometry" />
        </mxCell>
        <mxCell id="LU8-xw11yKQ6b2Q469gx-80" value="" style="group;container=0;strokeColor=#3399FF;" vertex="1" connectable="0" parent="LU8-xw11yKQ6b2Q469gx-173">
          <mxGeometry x="1" y="237" width="503" height="210" as="geometry" />
        </mxCell>
        <mxCell id="LU8-xw11yKQ6b2Q469gx-81" value="" style="group;strokeColor=#CCCCFF;container=0;" vertex="1" connectable="0" parent="LU8-xw11yKQ6b2Q469gx-173">
          <mxGeometry x="154" y="469" width="350" height="190" as="geometry" />
        </mxCell>
        <mxCell id="LU8-xw11yKQ6b2Q469gx-82" value="" style="endArrow=classic;html=1;" edge="1" parent="LU8-xw11yKQ6b2Q469gx-173">
          <mxGeometry width="50" height="50" relative="1" as="geometry">
            <mxPoint x="24" y="468" as="sourcePoint" />
            <mxPoint x="23.910000000000025" y="371" as="targetPoint" />
          </mxGeometry>
        </mxCell>
        <mxCell id="LU8-xw11yKQ6b2Q469gx-84" value="" style="endArrow=classic;html=1;" edge="1" parent="LU8-xw11yKQ6b2Q469gx-173">
          <mxGeometry width="50" height="50" relative="1" as="geometry">
            <mxPoint x="42" y="468" as="sourcePoint" />
            <mxPoint x="41.91000000000008" y="389" as="targetPoint" />
          </mxGeometry>
        </mxCell>
        <mxCell id="LU8-xw11yKQ6b2Q469gx-85" value="" style="endArrow=classic;html=1;" edge="1" parent="LU8-xw11yKQ6b2Q469gx-173">
          <mxGeometry width="50" height="50" relative="1" as="geometry">
            <mxPoint x="51" y="468" as="sourcePoint" />
            <mxPoint x="50.91000000000008" y="398" as="targetPoint" />
          </mxGeometry>
        </mxCell>
        <mxCell id="LU8-xw11yKQ6b2Q469gx-86" value="" style="endArrow=classic;html=1;" edge="1" parent="LU8-xw11yKQ6b2Q469gx-173">
          <mxGeometry width="50" height="50" relative="1" as="geometry">
            <mxPoint x="60" y="469" as="sourcePoint" />
            <mxPoint x="59.91000000000008" y="407" as="targetPoint" />
          </mxGeometry>
        </mxCell>
        <mxCell id="LU8-xw11yKQ6b2Q469gx-87" value="" style="endArrow=classic;html=1;" edge="1" parent="LU8-xw11yKQ6b2Q469gx-173">
          <mxGeometry width="50" height="50" relative="1" as="geometry">
            <mxPoint x="69" y="469" as="sourcePoint" />
            <mxPoint x="68.91000000000008" y="416" as="targetPoint" />
          </mxGeometry>
        </mxCell>
        <mxCell id="LU8-xw11yKQ6b2Q469gx-88" value="" style="endArrow=classic;html=1;" edge="1" parent="LU8-xw11yKQ6b2Q469gx-173">
          <mxGeometry width="50" height="50" relative="1" as="geometry">
            <mxPoint x="79" y="469" as="sourcePoint" />
            <mxPoint x="78.91000000000008" y="416" as="targetPoint" />
          </mxGeometry>
        </mxCell>
        <mxCell id="LU8-xw11yKQ6b2Q469gx-89" value="" style="endArrow=classic;html=1;" edge="1" parent="LU8-xw11yKQ6b2Q469gx-173">
          <mxGeometry width="50" height="50" relative="1" as="geometry">
            <mxPoint x="90" y="469" as="sourcePoint" />
            <mxPoint x="89.91000000000008" y="416" as="targetPoint" />
          </mxGeometry>
        </mxCell>
        <mxCell id="LU8-xw11yKQ6b2Q469gx-90" value="" style="endArrow=classic;html=1;" edge="1" parent="LU8-xw11yKQ6b2Q469gx-173">
          <mxGeometry width="50" height="50" relative="1" as="geometry">
            <mxPoint x="101" y="469" as="sourcePoint" />
            <mxPoint x="100.91000000000008" y="416" as="targetPoint" />
          </mxGeometry>
        </mxCell>
        <mxCell id="LU8-xw11yKQ6b2Q469gx-91" value="Pass data to CNN" style="text;html=1;strokeColor=none;fillColor=none;align=center;verticalAlign=middle;whiteSpace=wrap;shadow=1;glass=0;fontSize=14;rotation=-90;" vertex="1" parent="LU8-xw11yKQ6b2Q469gx-173">
          <mxGeometry x="-57" y="367" width="135" height="18" as="geometry" />
        </mxCell>
        <mxCell id="LU8-xw11yKQ6b2Q469gx-76" value="" style="group" vertex="1" connectable="0" parent="LU8-xw11yKQ6b2Q469gx-173">
          <mxGeometry x="366" y="384" width="96.98710000000005" height="9.059999999999945" as="geometry" />
        </mxCell>
        <mxCell id="LU8-xw11yKQ6b2Q469gx-77" value="" style="endArrow=classic;html=1;entryX=-0.11;entryY=0.54;entryDx=0;entryDy=0;entryPerimeter=0;" edge="1" parent="LU8-xw11yKQ6b2Q469gx-76">
          <mxGeometry width="50" height="50" relative="1" as="geometry">
            <mxPoint y="9" as="sourcePoint" />
            <mxPoint x="96.98710000000005" y="9.059999999999945" as="targetPoint" />
          </mxGeometry>
        </mxCell>
        <mxCell id="LU8-xw11yKQ6b2Q469gx-78" value="" style="endArrow=classic;html=1;entryX=-0.11;entryY=0.54;entryDx=0;entryDy=0;entryPerimeter=0;" edge="1" parent="LU8-xw11yKQ6b2Q469gx-76">
          <mxGeometry width="50" height="50" relative="1" as="geometry">
            <mxPoint as="sourcePoint" />
            <mxPoint x="96.98710000000005" y="0.05999999999994543" as="targetPoint" />
          </mxGeometry>
        </mxCell>
        <mxCell id="LU8-xw11yKQ6b2Q469gx-73" value="" style="group" vertex="1" connectable="0" parent="LU8-xw11yKQ6b2Q469gx-173">
          <mxGeometry x="366" y="364" width="96.98710000000005" height="9.059999999999945" as="geometry" />
        </mxCell>
        <mxCell id="LU8-xw11yKQ6b2Q469gx-74" value="" style="endArrow=classic;html=1;entryX=-0.11;entryY=0.54;entryDx=0;entryDy=0;entryPerimeter=0;" edge="1" parent="LU8-xw11yKQ6b2Q469gx-73">
          <mxGeometry width="50" height="50" relative="1" as="geometry">
            <mxPoint y="9" as="sourcePoint" />
            <mxPoint x="96.98710000000005" y="9.059999999999945" as="targetPoint" />
          </mxGeometry>
        </mxCell>
        <mxCell id="LU8-xw11yKQ6b2Q469gx-75" value="" style="endArrow=classic;html=1;entryX=-0.11;entryY=0.54;entryDx=0;entryDy=0;entryPerimeter=0;" edge="1" parent="LU8-xw11yKQ6b2Q469gx-73">
          <mxGeometry width="50" height="50" relative="1" as="geometry">
            <mxPoint as="sourcePoint" />
            <mxPoint x="96.98710000000005" y="0.05999999999994543" as="targetPoint" />
          </mxGeometry>
        </mxCell>
        <mxCell id="LU8-xw11yKQ6b2Q469gx-30" value="" style="rounded=0;whiteSpace=wrap;html=1;fillColor=#dae8fc;strokeColor=#6c8ebf;" vertex="1" parent="LU8-xw11yKQ6b2Q469gx-173">
          <mxGeometry x="22.909999999999997" y="250" width="128.19" height="117" as="geometry" />
        </mxCell>
        <mxCell id="LU8-xw11yKQ6b2Q469gx-31" value="" style="rounded=0;whiteSpace=wrap;html=1;fillColor=#f8cecc;strokeColor=#b85450;" vertex="1" parent="LU8-xw11yKQ6b2Q469gx-173">
          <mxGeometry x="31.909999999999997" y="259" width="128.19" height="117" as="geometry" />
        </mxCell>
        <mxCell id="LU8-xw11yKQ6b2Q469gx-32" value="" style="rounded=0;whiteSpace=wrap;html=1;fillColor=#dae8fc;strokeColor=#6c8ebf;" vertex="1" parent="LU8-xw11yKQ6b2Q469gx-173">
          <mxGeometry x="40.91" y="268" width="128.19" height="117" as="geometry" />
        </mxCell>
        <mxCell id="LU8-xw11yKQ6b2Q469gx-33" value="" style="rounded=0;whiteSpace=wrap;html=1;fillColor=#f8cecc;strokeColor=#b85450;" vertex="1" parent="LU8-xw11yKQ6b2Q469gx-173">
          <mxGeometry x="49.91" y="277" width="128.19" height="117" as="geometry" />
        </mxCell>
        <mxCell id="LU8-xw11yKQ6b2Q469gx-34" value="" style="rounded=0;whiteSpace=wrap;html=1;fillColor=#dae8fc;strokeColor=#6c8ebf;" vertex="1" parent="LU8-xw11yKQ6b2Q469gx-173">
          <mxGeometry x="58.91" y="286" width="128.19" height="117" as="geometry" />
        </mxCell>
        <mxCell id="LU8-xw11yKQ6b2Q469gx-35" value="" style="rounded=0;whiteSpace=wrap;html=1;fillColor=#f8cecc;strokeColor=#b85450;" vertex="1" parent="LU8-xw11yKQ6b2Q469gx-173">
          <mxGeometry x="67.91" y="295" width="128.19" height="117" as="geometry" />
        </mxCell>
        <mxCell id="LU8-xw11yKQ6b2Q469gx-36" value="" style="rounded=0;whiteSpace=wrap;html=1;fillColor=#f8cecc;strokeColor=#b85450;" vertex="1" parent="LU8-xw11yKQ6b2Q469gx-173">
          <mxGeometry x="222" y="277" width="99" height="81" as="geometry" />
        </mxCell>
        <mxCell id="LU8-xw11yKQ6b2Q469gx-41" value="" style="rounded=0;whiteSpace=wrap;html=1;fillColor=#dae8fc;strokeColor=#6c8ebf;" vertex="1" parent="LU8-xw11yKQ6b2Q469gx-173">
          <mxGeometry x="231" y="286" width="99" height="81" as="geometry" />
        </mxCell>
        <mxCell id="LU8-xw11yKQ6b2Q469gx-42" value="" style="rounded=0;whiteSpace=wrap;html=1;fillColor=#f8cecc;strokeColor=#b85450;" vertex="1" parent="LU8-xw11yKQ6b2Q469gx-173">
          <mxGeometry x="240" y="295" width="99" height="81" as="geometry" />
        </mxCell>
        <mxCell id="LU8-xw11yKQ6b2Q469gx-43" value="" style="rounded=0;whiteSpace=wrap;html=1;fillColor=#dae8fc;strokeColor=#6c8ebf;" vertex="1" parent="LU8-xw11yKQ6b2Q469gx-173">
          <mxGeometry x="249" y="304" width="99" height="81" as="geometry" />
        </mxCell>
        <mxCell id="LU8-xw11yKQ6b2Q469gx-44" value="" style="rounded=0;whiteSpace=wrap;html=1;fillColor=#f8cecc;strokeColor=#b85450;" vertex="1" parent="LU8-xw11yKQ6b2Q469gx-173">
          <mxGeometry x="258" y="313" width="99" height="81" as="geometry" />
        </mxCell>
        <mxCell id="LU8-xw11yKQ6b2Q469gx-45" value="" style="rounded=0;whiteSpace=wrap;html=1;fillColor=#f8cecc;strokeColor=#b85450;" vertex="1" parent="LU8-xw11yKQ6b2Q469gx-173">
          <mxGeometry x="267" y="322" width="99" height="81" as="geometry" />
        </mxCell>
        <mxCell id="LU8-xw11yKQ6b2Q469gx-46" value="" style="endArrow=none;html=1;exitX=0;exitY=0;exitDx=0;exitDy=0;" edge="1" parent="LU8-xw11yKQ6b2Q469gx-173" source="LU8-xw11yKQ6b2Q469gx-35">
          <mxGeometry x="22.909999999999997" y="243" width="50" height="50" as="geometry">
            <mxPoint x="89" y="348" as="sourcePoint" />
            <mxPoint x="267" y="403" as="targetPoint" />
          </mxGeometry>
        </mxCell>
        <mxCell id="LU8-xw11yKQ6b2Q469gx-47" value="" style="endArrow=none;html=1;exitX=0;exitY=0;exitDx=0;exitDy=0;" edge="1" parent="LU8-xw11yKQ6b2Q469gx-173">
          <mxGeometry x="22.909999999999997" y="243" width="50" height="50" as="geometry">
            <mxPoint x="58.90999999999997" y="286" as="sourcePoint" />
            <mxPoint x="258" y="394" as="targetPoint" />
          </mxGeometry>
        </mxCell>
        <mxCell id="LU8-xw11yKQ6b2Q469gx-48" value="" style="endArrow=none;html=1;exitX=0;exitY=0;exitDx=0;exitDy=0;" edge="1" parent="LU8-xw11yKQ6b2Q469gx-173">
          <mxGeometry x="22.909999999999997" y="243" width="50" height="50" as="geometry">
            <mxPoint x="23.99999999999997" y="250" as="sourcePoint" />
            <mxPoint x="223.09000000000003" y="358" as="targetPoint" />
          </mxGeometry>
        </mxCell>
        <mxCell id="LU8-xw11yKQ6b2Q469gx-49" value="" style="endArrow=none;html=1;exitX=0;exitY=0;exitDx=0;exitDy=0;" edge="1" parent="LU8-xw11yKQ6b2Q469gx-173">
          <mxGeometry x="22.909999999999997" y="243" width="50" height="50" as="geometry">
            <mxPoint x="33" y="259" as="sourcePoint" />
            <mxPoint x="232.09000000000003" y="367" as="targetPoint" />
          </mxGeometry>
        </mxCell>
        <mxCell id="LU8-xw11yKQ6b2Q469gx-50" value="" style="endArrow=none;html=1;exitX=0;exitY=0;exitDx=0;exitDy=0;" edge="1" parent="LU8-xw11yKQ6b2Q469gx-173">
          <mxGeometry x="22.909999999999997" y="243" width="50" height="50" as="geometry">
            <mxPoint x="49.91" y="277" as="sourcePoint" />
            <mxPoint x="249.00000000000006" y="385" as="targetPoint" />
          </mxGeometry>
        </mxCell>
        <mxCell id="LU8-xw11yKQ6b2Q469gx-51" value="" style="endArrow=none;html=1;exitX=0;exitY=0;exitDx=0;exitDy=0;entryX=0;entryY=0;entryDx=0;entryDy=0;" edge="1" parent="LU8-xw11yKQ6b2Q469gx-173" target="LU8-xw11yKQ6b2Q469gx-36">
          <mxGeometry x="22.909999999999997" y="243" width="50" height="50" as="geometry">
            <mxPoint x="151.10000000000002" y="250" as="sourcePoint" />
            <mxPoint x="350.19000000000005" y="358" as="targetPoint" />
          </mxGeometry>
        </mxCell>
        <mxCell id="LU8-xw11yKQ6b2Q469gx-52" value="" style="endArrow=none;html=1;exitX=0;exitY=0;exitDx=0;exitDy=0;entryX=0;entryY=0;entryDx=0;entryDy=0;" edge="1" parent="LU8-xw11yKQ6b2Q469gx-173">
          <mxGeometry x="22.909999999999997" y="243" width="50" height="50" as="geometry">
            <mxPoint x="160.10000000000002" y="259" as="sourcePoint" />
            <mxPoint x="231" y="286" as="targetPoint" />
          </mxGeometry>
        </mxCell>
        <mxCell id="LU8-xw11yKQ6b2Q469gx-53" value="" style="endArrow=none;html=1;exitX=0;exitY=0;exitDx=0;exitDy=0;entryX=0;entryY=0;entryDx=0;entryDy=0;" edge="1" parent="LU8-xw11yKQ6b2Q469gx-173">
          <mxGeometry x="22.909999999999997" y="243" width="50" height="50" as="geometry">
            <mxPoint x="169.10000000000002" y="268" as="sourcePoint" />
            <mxPoint x="240" y="295" as="targetPoint" />
          </mxGeometry>
        </mxCell>
        <mxCell id="LU8-xw11yKQ6b2Q469gx-54" value="" style="endArrow=none;html=1;exitX=0;exitY=0;exitDx=0;exitDy=0;entryX=0;entryY=0;entryDx=0;entryDy=0;" edge="1" parent="LU8-xw11yKQ6b2Q469gx-173">
          <mxGeometry x="22.909999999999997" y="243" width="50" height="50" as="geometry">
            <mxPoint x="178.10000000000002" y="277" as="sourcePoint" />
            <mxPoint x="249" y="304" as="targetPoint" />
          </mxGeometry>
        </mxCell>
        <mxCell id="LU8-xw11yKQ6b2Q469gx-55" value="" style="endArrow=none;html=1;exitX=0;exitY=0;exitDx=0;exitDy=0;entryX=0;entryY=0;entryDx=0;entryDy=0;" edge="1" parent="LU8-xw11yKQ6b2Q469gx-173">
          <mxGeometry x="22.909999999999997" y="243" width="50" height="50" as="geometry">
            <mxPoint x="187.10000000000002" y="286" as="sourcePoint" />
            <mxPoint x="258" y="313" as="targetPoint" />
          </mxGeometry>
        </mxCell>
        <mxCell id="LU8-xw11yKQ6b2Q469gx-56" value="" style="endArrow=none;html=1;exitX=0;exitY=0;exitDx=0;exitDy=0;entryX=0;entryY=0;entryDx=0;entryDy=0;" edge="1" parent="LU8-xw11yKQ6b2Q469gx-173">
          <mxGeometry x="22.909999999999997" y="243" width="50" height="50" as="geometry">
            <mxPoint x="196.10000000000002" y="295" as="sourcePoint" />
            <mxPoint x="267" y="322" as="targetPoint" />
          </mxGeometry>
        </mxCell>
        <mxCell id="LU8-xw11yKQ6b2Q469gx-57" value="" style="rounded=1;whiteSpace=wrap;html=1;" vertex="1" parent="LU8-xw11yKQ6b2Q469gx-173">
          <mxGeometry x="464" y="243" width="27.39" height="189" as="geometry" />
        </mxCell>
        <mxCell id="LU8-xw11yKQ6b2Q469gx-62" value="" style="ellipse;whiteSpace=wrap;html=1;aspect=fixed;fillColor=#0D0D0D;" vertex="1" parent="LU8-xw11yKQ6b2Q469gx-173">
          <mxGeometry x="468.39" y="249" width="18.61" height="18.61" as="geometry" />
        </mxCell>
        <mxCell id="LU8-xw11yKQ6b2Q469gx-63" value="" style="ellipse;whiteSpace=wrap;html=1;aspect=fixed;fillColor=#000000;" vertex="1" parent="LU8-xw11yKQ6b2Q469gx-173">
          <mxGeometry x="468.39" y="271" width="18.61" height="18.61" as="geometry" />
        </mxCell>
        <mxCell id="LU8-xw11yKQ6b2Q469gx-64" value="" style="ellipse;whiteSpace=wrap;html=1;aspect=fixed;fillColor=#000000;" vertex="1" parent="LU8-xw11yKQ6b2Q469gx-173">
          <mxGeometry x="468.26" y="292.61" width="18.61" height="18.61" as="geometry" />
        </mxCell>
        <mxCell id="LU8-xw11yKQ6b2Q469gx-65" value="" style="ellipse;whiteSpace=wrap;html=1;aspect=fixed;fillColor=#000000;" vertex="1" parent="LU8-xw11yKQ6b2Q469gx-173">
          <mxGeometry x="468.26" y="314.61" width="18.61" height="18.61" as="geometry" />
        </mxCell>
        <mxCell id="LU8-xw11yKQ6b2Q469gx-66" value="" style="ellipse;whiteSpace=wrap;html=1;aspect=fixed;fillColor=#000000;" vertex="1" parent="LU8-xw11yKQ6b2Q469gx-173">
          <mxGeometry x="468.26" y="336.61" width="18.61" height="18.61" as="geometry" />
        </mxCell>
        <mxCell id="LU8-xw11yKQ6b2Q469gx-67" value="" style="ellipse;whiteSpace=wrap;html=1;aspect=fixed;fillColor=#000000;" vertex="1" parent="LU8-xw11yKQ6b2Q469gx-173">
          <mxGeometry x="468.26" y="359.61" width="18.61" height="18.61" as="geometry" />
        </mxCell>
        <mxCell id="LU8-xw11yKQ6b2Q469gx-68" value="" style="ellipse;whiteSpace=wrap;html=1;aspect=fixed;fillColor=#000000;" vertex="1" parent="LU8-xw11yKQ6b2Q469gx-173">
          <mxGeometry x="468.26" y="382.61" width="18.61" height="18.61" as="geometry" />
        </mxCell>
        <mxCell id="LU8-xw11yKQ6b2Q469gx-69" value="" style="ellipse;whiteSpace=wrap;html=1;aspect=fixed;fillColor=#000000;" vertex="1" parent="LU8-xw11yKQ6b2Q469gx-173">
          <mxGeometry x="468.26" y="405.61" width="18.61" height="18.61" as="geometry" />
        </mxCell>
        <mxCell id="LU8-xw11yKQ6b2Q469gx-72" value="" style="group" vertex="1" connectable="0" parent="LU8-xw11yKQ6b2Q469gx-173">
          <mxGeometry x="366" y="345" width="96.98710000000005" height="9.059999999999945" as="geometry" />
        </mxCell>
        <mxCell id="LU8-xw11yKQ6b2Q469gx-71" value="" style="endArrow=classic;html=1;entryX=-0.11;entryY=0.54;entryDx=0;entryDy=0;entryPerimeter=0;" edge="1" parent="LU8-xw11yKQ6b2Q469gx-72">
          <mxGeometry width="50" height="50" relative="1" as="geometry">
            <mxPoint y="9" as="sourcePoint" />
            <mxPoint x="96.98710000000005" y="9.059999999999945" as="targetPoint" />
          </mxGeometry>
        </mxCell>
        <mxCell id="LU8-xw11yKQ6b2Q469gx-70" value="" style="endArrow=classic;html=1;entryX=-0.11;entryY=0.54;entryDx=0;entryDy=0;entryPerimeter=0;" edge="1" parent="LU8-xw11yKQ6b2Q469gx-72">
          <mxGeometry width="50" height="50" relative="1" as="geometry">
            <mxPoint as="sourcePoint" />
            <mxPoint x="96.98710000000005" y="0.05999999999994543" as="targetPoint" />
          </mxGeometry>
        </mxCell>
        <mxCell id="LU8-xw11yKQ6b2Q469gx-92" value="Conv layer" style="text;html=1;strokeColor=none;fillColor=none;align=center;verticalAlign=middle;whiteSpace=wrap;shadow=1;glass=0;fontSize=14;rotation=0;" vertex="1" parent="LU8-xw11yKQ6b2Q469gx-173">
          <mxGeometry x="111" y="414" width="69" height="18" as="geometry" />
        </mxCell>
        <mxCell id="LU8-xw11yKQ6b2Q469gx-93" value="Conv layer" style="text;html=1;strokeColor=none;fillColor=none;align=center;verticalAlign=middle;whiteSpace=wrap;shadow=1;glass=0;fontSize=14;rotation=0;" vertex="1" parent="LU8-xw11yKQ6b2Q469gx-173">
          <mxGeometry x="288.71000000000004" y="413" width="69" height="18" as="geometry" />
        </mxCell>
        <mxCell id="LU8-xw11yKQ6b2Q469gx-94" value="Flatten layer" style="text;html=1;strokeColor=none;fillColor=none;align=center;verticalAlign=middle;whiteSpace=wrap;shadow=1;glass=0;fontSize=14;rotation=-90;" vertex="1" parent="LU8-xw11yKQ6b2Q469gx-173">
          <mxGeometry x="402.99" y="290" width="97.01" height="18" as="geometry" />
        </mxCell>
        <mxCell id="LU8-xw11yKQ6b2Q469gx-125" value="" style="group;container=0;rotation=-180;strokeColor=#3333FF;" vertex="1" connectable="0" parent="LU8-xw11yKQ6b2Q469gx-173">
          <mxGeometry x="1" width="503" height="225" as="geometry" />
        </mxCell>
        <mxCell id="LU8-xw11yKQ6b2Q469gx-164" value="" style="endArrow=classic;html=1;" edge="1" parent="LU8-xw11yKQ6b2Q469gx-173">
          <mxGeometry x="24" y="7" width="50" height="50" as="geometry">
            <mxPoint x="61.25" y="105" as="sourcePoint" />
            <mxPoint x="61.25" y="136" as="targetPoint" />
          </mxGeometry>
        </mxCell>
        <mxCell id="LU8-xw11yKQ6b2Q469gx-163" value="" style="endArrow=classic;html=1;exitX=0;exitY=0.5;exitDx=0;exitDy=0;" edge="1" parent="LU8-xw11yKQ6b2Q469gx-173">
          <mxGeometry x="24" y="7" width="50" height="50" as="geometry">
            <mxPoint x="185.10000000000002" y="205" as="sourcePoint" />
            <mxPoint x="106" y="104" as="targetPoint" />
          </mxGeometry>
        </mxCell>
        <mxCell id="LU8-xw11yKQ6b2Q469gx-128" value="Dataset" style="strokeWidth=2;html=1;shape=mxgraph.flowchart.database;whiteSpace=wrap;fillColor=#FFFFFF;" vertex="1" parent="LU8-xw11yKQ6b2Q469gx-173">
          <mxGeometry x="423.90999999999997" y="90" width="64.09" height="60" as="geometry" />
        </mxCell>
        <mxCell id="LU8-xw11yKQ6b2Q469gx-129" value="&lt;br&gt;Test&lt;br&gt;Dataset" style="strokeWidth=2;html=1;shape=mxgraph.flowchart.database;whiteSpace=wrap;fillColor=#FFFFFF;" vertex="1" parent="LU8-xw11yKQ6b2Q469gx-173">
          <mxGeometry x="296.87" y="150" width="69" height="69" as="geometry" />
        </mxCell>
        <mxCell id="LU8-xw11yKQ6b2Q469gx-130" value="&lt;br&gt;Train&lt;br&gt;Dataset" style="strokeWidth=2;html=1;shape=mxgraph.flowchart.database;whiteSpace=wrap;fillColor=#FFFFFF;" vertex="1" parent="LU8-xw11yKQ6b2Q469gx-173">
          <mxGeometry x="294.87" y="21" width="69" height="69" as="geometry" />
        </mxCell>
        <mxCell id="LU8-xw11yKQ6b2Q469gx-136" value="" style="endArrow=classic;html=1;exitX=0;exitY=0.5;exitDx=0;exitDy=0;exitPerimeter=0;entryX=1;entryY=0.5;entryDx=0;entryDy=0;entryPerimeter=0;" edge="1" parent="LU8-xw11yKQ6b2Q469gx-173" source="LU8-xw11yKQ6b2Q469gx-128" target="LU8-xw11yKQ6b2Q469gx-130">
          <mxGeometry x="24" y="7" width="50" height="50" as="geometry">
            <mxPoint x="222" y="201" as="sourcePoint" />
            <mxPoint x="272" y="151" as="targetPoint" />
          </mxGeometry>
        </mxCell>
        <mxCell id="LU8-xw11yKQ6b2Q469gx-137" value="" style="endArrow=classic;html=1;entryX=1;entryY=0.5;entryDx=0;entryDy=0;entryPerimeter=0;exitX=0;exitY=0.5;exitDx=0;exitDy=0;exitPerimeter=0;" edge="1" parent="LU8-xw11yKQ6b2Q469gx-173" source="LU8-xw11yKQ6b2Q469gx-128" target="LU8-xw11yKQ6b2Q469gx-129">
          <mxGeometry x="24" y="7" width="50" height="50" as="geometry">
            <mxPoint x="420" y="124" as="sourcePoint" />
            <mxPoint x="372.8699999999999" y="64.5" as="targetPoint" />
          </mxGeometry>
        </mxCell>
        <mxCell id="LU8-xw11yKQ6b2Q469gx-103" value="" style="shape=image;html=1;verticalAlign=top;verticalLabelPosition=bottom;labelBackgroundColor=#ffffff;imageAspect=0;aspect=fixed;image=https://cdn1.iconfinder.com/data/icons/jumpicon-basic-ui-line-1/32/-_Dot-More-Vertical-Menu-128.png;strokeColor=#000000;fillColor=#FFFFFF;" vertex="1" parent="LU8-xw11yKQ6b2Q469gx-173">
          <mxGeometry x="201" y="113" width="27" height="27" as="geometry" />
        </mxCell>
        <mxCell id="LU8-xw11yKQ6b2Q469gx-104" value="" style="shape=image;html=1;verticalAlign=top;verticalLabelPosition=bottom;labelBackgroundColor=#ffffff;imageAspect=0;aspect=fixed;image=https://cdn1.iconfinder.com/data/icons/jumpicon-basic-ui-line-1/32/-_Dot-More-Vertical-Menu-128.png;strokeColor=#000000;fillColor=#FFFFFF;" vertex="1" parent="LU8-xw11yKQ6b2Q469gx-173">
          <mxGeometry x="201.45999999999998" y="137" width="27" height="27" as="geometry" />
        </mxCell>
        <mxCell id="LU8-xw11yKQ6b2Q469gx-105" value="" style="shape=image;html=1;verticalAlign=top;verticalLabelPosition=bottom;labelBackgroundColor=#ffffff;imageAspect=0;aspect=fixed;image=https://cdn1.iconfinder.com/data/icons/jumpicon-basic-ui-line-1/32/-_Dot-More-Vertical-Menu-128.png;strokeColor=#000000;fillColor=#FFFFFF;" vertex="1" parent="LU8-xw11yKQ6b2Q469gx-173">
          <mxGeometry x="201.45999999999998" y="162" width="27" height="27" as="geometry" />
        </mxCell>
        <mxCell id="LU8-xw11yKQ6b2Q469gx-138" value="Model&lt;sub&gt;1&lt;/sub&gt;" style="rounded=0;whiteSpace=wrap;html=1;strokeColor=#000000;fillColor=#FFFFFF;" vertex="1" parent="LU8-xw11yKQ6b2Q469gx-173">
          <mxGeometry x="186" y="7" width="57" height="24" as="geometry" />
        </mxCell>
        <mxCell id="LU8-xw11yKQ6b2Q469gx-139" value="Model&lt;span style=&quot;font-size: 10px&quot;&gt;2&lt;/span&gt;" style="rounded=0;whiteSpace=wrap;html=1;strokeColor=#000000;fillColor=#FFFFFF;" vertex="1" parent="LU8-xw11yKQ6b2Q469gx-173">
          <mxGeometry x="186" y="43" width="57" height="24" as="geometry" />
        </mxCell>
        <mxCell id="LU8-xw11yKQ6b2Q469gx-140" value="Model&lt;span style=&quot;font-size: 10px&quot;&gt;3&lt;/span&gt;" style="rounded=0;whiteSpace=wrap;html=1;strokeColor=#000000;fillColor=#FFFFFF;" vertex="1" parent="LU8-xw11yKQ6b2Q469gx-173">
          <mxGeometry x="186" y="79" width="57" height="24" as="geometry" />
        </mxCell>
        <mxCell id="LU8-xw11yKQ6b2Q469gx-141" value="Model&lt;span style=&quot;font-size: 10px&quot;&gt;n&lt;/span&gt;" style="rounded=0;whiteSpace=wrap;html=1;strokeColor=#000000;fillColor=#FFFFFF;" vertex="1" parent="LU8-xw11yKQ6b2Q469gx-173">
          <mxGeometry x="184.10000000000002" y="195" width="57" height="24" as="geometry" />
        </mxCell>
        <mxCell id="LU8-xw11yKQ6b2Q469gx-150" value="Voting" style="rounded=0;whiteSpace=wrap;html=1;strokeColor=#6c8ebf;fillColor=#dae8fc;" vertex="1" parent="LU8-xw11yKQ6b2Q469gx-173">
          <mxGeometry x="24" y="90" width="75" height="21" as="geometry" />
        </mxCell>
        <mxCell id="LU8-xw11yKQ6b2Q469gx-151" value="Output" style="rounded=0;whiteSpace=wrap;html=1;strokeColor=#006EAF;fillColor=#1ba1e2;fontColor=#ffffff;" vertex="1" parent="LU8-xw11yKQ6b2Q469gx-173">
          <mxGeometry x="24" y="137" width="75" height="21" as="geometry" />
        </mxCell>
        <mxCell id="LU8-xw11yKQ6b2Q469gx-152" value="" style="endArrow=classic;html=1;exitX=0;exitY=0.5;exitDx=0;exitDy=0;exitPerimeter=0;entryX=1;entryY=0.5;entryDx=0;entryDy=0;entryPerimeter=0;" edge="1" parent="LU8-xw11yKQ6b2Q469gx-173" source="LU8-xw11yKQ6b2Q469gx-130">
          <mxGeometry x="24" y="7" width="50" height="50" as="geometry">
            <mxPoint x="303.03999999999985" y="82.5" as="sourcePoint" />
            <mxPoint x="242.9999999999999" y="18" as="targetPoint" />
          </mxGeometry>
        </mxCell>
        <mxCell id="LU8-xw11yKQ6b2Q469gx-153" value="" style="endArrow=classic;html=1;exitX=0;exitY=0.5;exitDx=0;exitDy=0;exitPerimeter=0;entryX=1;entryY=0.5;entryDx=0;entryDy=0;entryPerimeter=0;" edge="1" parent="LU8-xw11yKQ6b2Q469gx-173" source="LU8-xw11yKQ6b2Q469gx-130">
          <mxGeometry x="24" y="7" width="50" height="50" as="geometry">
            <mxPoint x="294.87" y="90" as="sourcePoint" />
            <mxPoint x="242.9999999999999" y="52.5" as="targetPoint" />
          </mxGeometry>
        </mxCell>
        <mxCell id="LU8-xw11yKQ6b2Q469gx-154" value="" style="endArrow=classic;html=1;exitX=0;exitY=0.5;exitDx=0;exitDy=0;exitPerimeter=0;entryX=1;entryY=0.5;entryDx=0;entryDy=0;entryPerimeter=0;" edge="1" parent="LU8-xw11yKQ6b2Q469gx-173" source="LU8-xw11yKQ6b2Q469gx-130">
          <mxGeometry x="24" y="7" width="50" height="50" as="geometry">
            <mxPoint x="294.87" y="92.5" as="sourcePoint" />
            <mxPoint x="242.9999999999999" y="89.5" as="targetPoint" />
          </mxGeometry>
        </mxCell>
        <mxCell id="LU8-xw11yKQ6b2Q469gx-155" value="" style="endArrow=classic;html=1;entryX=1;entryY=0.5;entryDx=0;entryDy=0;" edge="1" parent="LU8-xw11yKQ6b2Q469gx-173">
          <mxGeometry x="24" y="7" width="50" height="50" as="geometry">
            <mxPoint x="294" y="56" as="sourcePoint" />
            <mxPoint x="242.10000000000002" y="207" as="targetPoint" />
          </mxGeometry>
        </mxCell>
        <mxCell id="LU8-xw11yKQ6b2Q469gx-156" value="" style="endArrow=classic;html=1;entryX=1;entryY=0.75;entryDx=0;entryDy=0;" edge="1" parent="LU8-xw11yKQ6b2Q469gx-173">
          <mxGeometry x="24" y="7" width="50" height="50" as="geometry">
            <mxPoint x="296" y="187" as="sourcePoint" />
            <mxPoint x="245" y="25" as="targetPoint" />
          </mxGeometry>
        </mxCell>
        <mxCell id="LU8-xw11yKQ6b2Q469gx-157" value="" style="endArrow=classic;html=1;" edge="1" parent="LU8-xw11yKQ6b2Q469gx-173">
          <mxGeometry x="24" y="7" width="50" height="50" as="geometry">
            <mxPoint x="297" y="189" as="sourcePoint" />
            <mxPoint x="246" y="90" as="targetPoint" />
          </mxGeometry>
        </mxCell>
        <mxCell id="LU8-xw11yKQ6b2Q469gx-158" value="" style="endArrow=classic;html=1;exitX=-0.053;exitY=0.542;exitDx=0;exitDy=0;exitPerimeter=0;entryX=1;entryY=0;entryDx=0;entryDy=0;" edge="1" parent="LU8-xw11yKQ6b2Q469gx-173" target="LU8-xw11yKQ6b2Q469gx-160">
          <mxGeometry x="24" y="7" width="50" height="50" as="geometry">
            <mxPoint x="185.97900000000004" y="20.008000000000038" as="sourcePoint" />
            <mxPoint x="102" y="98" as="targetPoint" />
          </mxGeometry>
        </mxCell>
        <mxCell id="LU8-xw11yKQ6b2Q469gx-160" value="" style="ellipse;whiteSpace=wrap;html=1;strokeColor=#000000;fillColor=#000000;" vertex="1" parent="LU8-xw11yKQ6b2Q469gx-173">
          <mxGeometry x="99" y="96" width="9" height="9" as="geometry" />
        </mxCell>
        <mxCell id="LU8-xw11yKQ6b2Q469gx-161" value="" style="endArrow=classic;html=1;exitX=0;exitY=0.5;exitDx=0;exitDy=0;entryX=1;entryY=0.5;entryDx=0;entryDy=0;" edge="1" parent="LU8-xw11yKQ6b2Q469gx-173" source="LU8-xw11yKQ6b2Q469gx-139" target="LU8-xw11yKQ6b2Q469gx-160">
          <mxGeometry x="24" y="7" width="50" height="50" as="geometry">
            <mxPoint x="194.97900000000004" y="29.008000000000038" as="sourcePoint" />
            <mxPoint x="115.68198051533955" y="106.31801948466045" as="targetPoint" />
          </mxGeometry>
        </mxCell>
        <mxCell id="LU8-xw11yKQ6b2Q469gx-162" value="" style="endArrow=classic;html=1;exitX=0;exitY=0.5;exitDx=0;exitDy=0;entryX=1;entryY=0.5;entryDx=0;entryDy=0;" edge="1" parent="LU8-xw11yKQ6b2Q469gx-173" source="LU8-xw11yKQ6b2Q469gx-140" target="LU8-xw11yKQ6b2Q469gx-160">
          <mxGeometry x="24" y="7" width="50" height="50" as="geometry">
            <mxPoint x="195" y="64" as="sourcePoint" />
            <mxPoint x="117" y="109.5" as="targetPoint" />
          </mxGeometry>
        </mxCell>
        <mxCell id="LU8-xw11yKQ6b2Q469gx-172" value="Extracted features" style="text;html=1;strokeColor=none;fillColor=none;align=center;verticalAlign=middle;whiteSpace=wrap;shadow=1;glass=0;fontSize=14;rotation=-90;" vertex="1" parent="LU8-xw11yKQ6b2Q469gx-173">
          <mxGeometry x="405.99" y="182" width="86.49" height="18" as="geometry" />
        </mxCell>
        <mxCell id="LU8-xw11yKQ6b2Q469gx-175" value="AdaBoost learning" style="text;html=1;strokeColor=none;fillColor=none;align=center;verticalAlign=middle;whiteSpace=wrap;shadow=1;glass=0;fontSize=14;" vertex="1" parent="LU8-xw11yKQ6b2Q469gx-173">
          <mxGeometry x="-3.42" y="200" width="134.86" height="20" as="geometry" />
        </mxCell>
      </root>
    </mxGraphModel>
  </diagram>
</mxfile>
